M48
; DRILL file {KiCad (5.1.12)-1} date 12/31/21 16:14:20
; FORMAT={-:-/ absolute / inch / decimal}
; #@! TF.CreationDate,2021-12-31T16:14:20+01:00
; #@! TF.GenerationSoftware,Kicad,Pcbnew,(5.1.12)-1
; #@! TF.FileFunction,Plated,1,2,PTH
FMAT,2
INCH
T1C0.0157
T2C0.0300
T3C0.0315
T4C0.0354
T5C0.0394
T6C0.0512
T7C0.1693
%
G90
G05
T1
X3.775Y-2.975
X3.775Y-3.175
X5.875Y-3.8
T2
X4.1Y-3.2
X4.1Y-3.3
X4.1Y-3.4
X4.1Y-3.5
X4.1Y-3.6
X4.1Y-3.7
X4.1Y-3.8
X4.1Y-3.9
X4.1Y-4.0
X4.1Y-4.1
X4.1Y-4.2
X4.1Y-4.3
X4.1Y-4.4
X4.1Y-4.5
X4.1Y-4.6
X5.2Y-3.2
X5.2Y-3.3
X5.2Y-3.4
X5.2Y-3.5
X5.2Y-3.6
X5.2Y-3.7
X5.2Y-3.8
X5.2Y-3.9
X5.2Y-4.0
X5.2Y-4.1
X5.2Y-4.2
X5.2Y-4.3
X5.2Y-4.4
X5.2Y-4.5
X5.2Y-4.6
T3
X3.2Y-3.65
X3.2Y-3.8469
X3.3Y-3.05
X3.3Y-3.55
X3.4Y-3.65
X3.4Y-4.15
X3.6Y-2.7
X3.6Y-3.2
X3.65Y-3.65
X3.65Y-4.15
X3.8Y-3.65
X3.9Y-3.85
X3.9Y-4.35
X3.9969Y-3.65
X5.625Y-3.6
X5.625Y-4.1
X5.875Y-4.0
X6.0128Y-4.0
X6.75Y-3.8266
X6.75Y-3.925
T4
X3.5Y-3.45
X3.6Y-3.45
T5
X3.2Y-4.05
X3.2Y-4.15
X3.95Y-3.2
X3.95Y-3.4
X5.375Y-3.6
X5.4Y-4.275
X5.4Y-4.375
X5.4Y-4.475
X5.4Y-4.575
X5.4Y-4.675
X5.4Y-4.775
X5.5Y-4.275
X5.5Y-4.375
X5.5Y-4.475
X5.5Y-4.575
X5.5Y-4.675
X5.5Y-4.775
X5.6Y-4.275
X5.6Y-4.375
X5.6Y-4.475
X5.6Y-4.575
X5.6Y-4.675
X5.6Y-4.775
X5.625Y-3.325
X5.625Y-3.425
X5.7Y-4.275
X5.7Y-4.375
X5.7Y-4.475
X5.7Y-4.575
X5.7Y-4.675
X5.7Y-4.775
X5.725Y-3.325
X5.725Y-3.425
X5.8Y-4.275
X5.8Y-4.375
X5.8Y-4.475
X5.8Y-4.575
X5.8Y-4.675
X5.8Y-4.775
X5.9Y-4.275
X5.9Y-4.375
X5.9Y-4.475
X5.9Y-4.575
X5.9Y-4.675
X5.9Y-4.775
X6.0Y-4.275
X6.0Y-4.375
X6.0Y-4.475
X6.0Y-4.575
X6.0Y-4.675
X6.0Y-4.775
X6.025Y-3.025
X6.025Y-3.125
X6.025Y-3.225
X6.025Y-3.325
X6.025Y-3.425
X6.025Y-3.525
X6.025Y-3.625
X6.025Y-3.725
X6.1Y-4.275
X6.1Y-4.375
X6.1Y-4.475
X6.1Y-4.575
X6.1Y-4.675
X6.1Y-4.775
X6.125Y-3.025
X6.2Y-4.275
X6.2Y-4.375
X6.2Y-4.475
X6.2Y-4.575
X6.2Y-4.675
X6.2Y-4.775
X6.225Y-3.025
X6.25Y-4.025
X6.3Y-4.275
X6.3Y-4.375
X6.3Y-4.475
X6.3Y-4.575
X6.3Y-4.675
X6.3Y-4.775
X6.35Y-4.025
X6.4Y-4.275
X6.4Y-4.375
X6.4Y-4.475
X6.4Y-4.575
X6.4Y-4.675
X6.4Y-4.775
X6.45Y-4.025
X6.5Y-4.275
X6.5Y-4.375
X6.5Y-4.475
X6.5Y-4.575
X6.5Y-4.675
X6.5Y-4.775
X6.525Y-3.025
X6.525Y-3.125
X6.525Y-3.225
X6.525Y-3.325
X6.525Y-3.425
X6.525Y-3.525
X6.525Y-3.625
X6.525Y-3.725
X6.75Y-3.225
X6.75Y-3.325
X6.75Y-3.425
X6.75Y-3.525
T6
X3.4531Y-4.3
X3.4531Y-4.7921
X3.65Y-4.3
X3.65Y-4.7921
T7
X3.2Y-2.7
X4.45Y-4.45
X6.75Y-2.7
X6.75Y-4.7
T0
M30
