G04 #@! TF.GenerationSoftware,KiCad,Pcbnew,(5.1.12)-1*
G04 #@! TF.CreationDate,2022-02-06T22:11:33+01:00*
G04 #@! TF.ProjectId,curtain_wiring,63757274-6169-46e5-9f77-6972696e672e,rev?*
G04 #@! TF.SameCoordinates,Original*
G04 #@! TF.FileFunction,Copper,L2,Bot*
G04 #@! TF.FilePolarity,Positive*
%FSLAX46Y46*%
G04 Gerber Fmt 4.6, Leading zero omitted, Abs format (unit mm)*
G04 Created by KiCad (PCBNEW (5.1.12)-1) date 2022-02-06 22:11:33*
%MOMM*%
%LPD*%
G01*
G04 APERTURE LIST*
G04 #@! TA.AperFunction,ComponentPad*
%ADD10R,1.700000X1.700000*%
G04 #@! TD*
G04 #@! TA.AperFunction,ComponentPad*
%ADD11O,1.700000X1.700000*%
G04 #@! TD*
G04 #@! TA.AperFunction,ComponentPad*
%ADD12C,1.600000*%
G04 #@! TD*
G04 #@! TA.AperFunction,ComponentPad*
%ADD13R,1.600000X1.600000*%
G04 #@! TD*
G04 #@! TA.AperFunction,ComponentPad*
%ADD14R,1.800000X1.800000*%
G04 #@! TD*
G04 #@! TA.AperFunction,ComponentPad*
%ADD15C,1.800000*%
G04 #@! TD*
G04 #@! TA.AperFunction,ComponentPad*
%ADD16C,4.700000*%
G04 #@! TD*
G04 #@! TA.AperFunction,ConnectorPad*
%ADD17C,7.500000*%
G04 #@! TD*
G04 #@! TA.AperFunction,ComponentPad*
%ADD18O,1.600000X1.600000*%
G04 #@! TD*
G04 #@! TA.AperFunction,ComponentPad*
%ADD19O,1.850000X3.048000*%
G04 #@! TD*
G04 #@! TA.AperFunction,ComponentPad*
%ADD20C,1.524000*%
G04 #@! TD*
G04 #@! TA.AperFunction,ViaPad*
%ADD21C,0.800000*%
G04 #@! TD*
G04 #@! TA.AperFunction,Conductor*
%ADD22C,0.250000*%
G04 #@! TD*
G04 #@! TA.AperFunction,Conductor*
%ADD23C,0.760000*%
G04 #@! TD*
G04 APERTURE END LIST*
D10*
X137160000Y-113665000D03*
D11*
X137160000Y-116205000D03*
X139700000Y-113665000D03*
X139700000Y-116205000D03*
X142240000Y-113665000D03*
X142240000Y-116205000D03*
X144780000Y-113665000D03*
X144780000Y-116205000D03*
X147320000Y-113665000D03*
X147320000Y-116205000D03*
X149860000Y-113665000D03*
X149860000Y-116205000D03*
X152400000Y-113665000D03*
X152400000Y-116205000D03*
X154940000Y-113665000D03*
X154940000Y-116205000D03*
X157480000Y-113665000D03*
X157480000Y-116205000D03*
X160020000Y-113665000D03*
X160020000Y-116205000D03*
X162560000Y-113665000D03*
X162560000Y-116205000D03*
X165100000Y-113665000D03*
X165100000Y-116205000D03*
D12*
X101520000Y-92710000D03*
X96520000Y-92710000D03*
X81280000Y-92710000D03*
X81280000Y-97710000D03*
X171450000Y-97195000D03*
D13*
X171450000Y-99695000D03*
D12*
X152725000Y-101600000D03*
D13*
X149225000Y-101600000D03*
D14*
X88900000Y-87630000D03*
D15*
X91440000Y-87630000D03*
D16*
X81280000Y-68580000D03*
D17*
X81280000Y-68580000D03*
X171450000Y-68580000D03*
D16*
X171450000Y-68580000D03*
X171450000Y-119380000D03*
D17*
X171450000Y-119380000D03*
X113030000Y-113030000D03*
D16*
X113030000Y-113030000D03*
D10*
X153035000Y-94615000D03*
D11*
X153035000Y-92075000D03*
X153035000Y-89535000D03*
X153035000Y-86995000D03*
X153035000Y-84455000D03*
X153035000Y-81915000D03*
X153035000Y-79375000D03*
X153035000Y-76835000D03*
X155575000Y-76835000D03*
X158115000Y-76835000D03*
X165735000Y-76835000D03*
X165735000Y-79375000D03*
X165735000Y-81915000D03*
X165735000Y-84455000D03*
X165735000Y-86995000D03*
X165735000Y-89535000D03*
X165735000Y-92075000D03*
D10*
X165735000Y-94615000D03*
X158750000Y-102235000D03*
D11*
X161290000Y-102235000D03*
X163830000Y-102235000D03*
D10*
X81280000Y-105410000D03*
D11*
X81280000Y-102870000D03*
D10*
X100330000Y-81280000D03*
X136525000Y-91440000D03*
X137160000Y-108585000D03*
D11*
X137160000Y-111125000D03*
X139700000Y-108585000D03*
X139700000Y-111125000D03*
X142240000Y-108585000D03*
X142240000Y-111125000D03*
X144780000Y-108585000D03*
X144780000Y-111125000D03*
X147320000Y-108585000D03*
X147320000Y-111125000D03*
X149860000Y-108585000D03*
X149860000Y-111125000D03*
X152400000Y-108585000D03*
X152400000Y-111125000D03*
X154940000Y-108585000D03*
X154940000Y-111125000D03*
X157480000Y-108585000D03*
X157480000Y-111125000D03*
X160020000Y-108585000D03*
X160020000Y-111125000D03*
X162560000Y-108585000D03*
X162560000Y-111125000D03*
X165100000Y-108585000D03*
X165100000Y-111125000D03*
X165100000Y-121285000D03*
X165100000Y-118745000D03*
X162560000Y-121285000D03*
X162560000Y-118745000D03*
X160020000Y-121285000D03*
X160020000Y-118745000D03*
X157480000Y-121285000D03*
X157480000Y-118745000D03*
X154940000Y-121285000D03*
X154940000Y-118745000D03*
X152400000Y-121285000D03*
X152400000Y-118745000D03*
X149860000Y-121285000D03*
X149860000Y-118745000D03*
X147320000Y-121285000D03*
X147320000Y-118745000D03*
X144780000Y-121285000D03*
X144780000Y-118745000D03*
X142240000Y-121285000D03*
X142240000Y-118745000D03*
X139700000Y-121285000D03*
X139700000Y-118745000D03*
X137160000Y-121285000D03*
D10*
X137160000Y-118745000D03*
X100330000Y-86360000D03*
X142875000Y-84455000D03*
D11*
X142875000Y-86995000D03*
X145415000Y-84455000D03*
D10*
X145415000Y-86995000D03*
X171450000Y-81915000D03*
D11*
X171450000Y-84455000D03*
X171450000Y-86995000D03*
X171450000Y-89535000D03*
D12*
X91440000Y-81280000D03*
D18*
X91440000Y-68580000D03*
X142875000Y-104140000D03*
D12*
X142875000Y-91440000D03*
D18*
X92710000Y-92710000D03*
D12*
X92710000Y-105410000D03*
D18*
X83820000Y-90170000D03*
D12*
X83820000Y-77470000D03*
X86360000Y-105410000D03*
D18*
X86360000Y-92710000D03*
D12*
X99060000Y-110490000D03*
D18*
X99060000Y-97790000D03*
D19*
X92710000Y-121720000D03*
X87710000Y-121720000D03*
X92710000Y-109220000D03*
X87710000Y-109220000D03*
D20*
X104140000Y-81280000D03*
X104140000Y-83820000D03*
X104140000Y-86360000D03*
X104140000Y-88900000D03*
X104140000Y-91440000D03*
X104140000Y-93980000D03*
X104140000Y-96520000D03*
X104140000Y-99060000D03*
X104140000Y-101600000D03*
X104140000Y-104140000D03*
X104140000Y-106680000D03*
X104140000Y-109220000D03*
X104140000Y-111760000D03*
X104140000Y-114300000D03*
X104140000Y-116840000D03*
X132080000Y-116840000D03*
X132080000Y-114300000D03*
X132080000Y-111760000D03*
X132080000Y-109220000D03*
X132080000Y-106680000D03*
X132080000Y-104140000D03*
X132080000Y-101600000D03*
X132080000Y-99060000D03*
X132080000Y-96520000D03*
X132080000Y-93980000D03*
X132080000Y-91440000D03*
X132080000Y-88900000D03*
X132080000Y-86360000D03*
X132080000Y-83820000D03*
X132080000Y-81280000D03*
D21*
X95885000Y-75565000D03*
X95885000Y-80645000D03*
X149225000Y-96520000D03*
D22*
X92710000Y-92710000D02*
X96520000Y-92710000D01*
X96520000Y-95250000D02*
X99060000Y-97790000D01*
X96520000Y-92710000D02*
X96520000Y-95250000D01*
X99060000Y-97790000D02*
X99060000Y-92075000D01*
X132080000Y-88900000D02*
X118745000Y-75565000D01*
X118745000Y-75565000D02*
X95885000Y-75565000D01*
X95885000Y-75565000D02*
X95885000Y-75565000D01*
X99060000Y-92075000D02*
X95885000Y-88900000D01*
X95885000Y-88900000D02*
X95885000Y-80645000D01*
X81280000Y-92710000D02*
X83820000Y-90170000D01*
X86360000Y-92710000D02*
X83820000Y-90170000D01*
X86360000Y-92710000D02*
X86360000Y-80645000D01*
X86360000Y-80645000D02*
X88265000Y-78740000D01*
X109220000Y-78740000D02*
X132080000Y-101600000D01*
X88265000Y-78740000D02*
X109220000Y-78740000D01*
D23*
X173840011Y-97304989D02*
X171450000Y-99695000D01*
X173840011Y-80203350D02*
X173840011Y-97304989D01*
X170471661Y-76835000D02*
X173840011Y-80203350D01*
X165735000Y-76835000D02*
X170471661Y-76835000D01*
X168910000Y-102235000D02*
X171450000Y-99695000D01*
X163830000Y-102235000D02*
X168910000Y-102235000D01*
X158115000Y-105410000D02*
X161290000Y-102235000D01*
X153035000Y-105410000D02*
X158115000Y-105410000D01*
X149225000Y-101600000D02*
X153035000Y-105410000D01*
X109855000Y-122555000D02*
X128351162Y-122555000D01*
X134620000Y-116286162D02*
X134620000Y-108380998D01*
X128351162Y-122555000D02*
X134620000Y-116286162D01*
X104140000Y-116840000D02*
X109855000Y-122555000D01*
X134620000Y-108380998D02*
X136955998Y-106045000D01*
X144780000Y-106045000D02*
X149225000Y-101600000D01*
X136955998Y-106045000D02*
X144780000Y-106045000D01*
D22*
X91440000Y-81280000D02*
X91440000Y-87630000D01*
X100330000Y-110490000D02*
X104140000Y-106680000D01*
X99060000Y-110490000D02*
X100330000Y-110490000D01*
X115570000Y-77470000D02*
X132080000Y-93980000D01*
X83820000Y-77470000D02*
X115570000Y-77470000D01*
X132080000Y-93980000D02*
X134620000Y-96520000D01*
X134620000Y-96520000D02*
X149225000Y-96520000D01*
X149225000Y-96520000D02*
X149225000Y-96520000D01*
D23*
X165735000Y-89535000D02*
X171450000Y-89535000D01*
X165735000Y-86995000D02*
X171450000Y-86995000D01*
X168910000Y-84455000D02*
X171450000Y-81915000D01*
X165735000Y-84455000D02*
X168910000Y-84455000D01*
X172880001Y-83024999D02*
X171450000Y-84455000D01*
X172880001Y-80600999D02*
X172880001Y-83024999D01*
X167165001Y-80484999D02*
X172764001Y-80484999D01*
X172764001Y-80484999D02*
X172880001Y-80600999D01*
X165735000Y-81915000D02*
X167165001Y-80484999D01*
D22*
X139065000Y-76835000D02*
X153035000Y-76835000D01*
X132080000Y-83820000D02*
X139065000Y-76835000D01*
X146685000Y-84455000D02*
X153035000Y-84455000D01*
X146685000Y-84455000D02*
X145415000Y-84455000D01*
X146685000Y-86995000D02*
X153035000Y-86995000D01*
X146685000Y-86995000D02*
X145415000Y-86995000D01*
X132080000Y-99060000D02*
X153035000Y-99060000D01*
X154210001Y-93250001D02*
X153035000Y-92075000D01*
X154210001Y-97884999D02*
X154210001Y-93250001D01*
X153035000Y-99060000D02*
X154210001Y-97884999D01*
X141985002Y-94615000D02*
X153035000Y-94615000D01*
X133730002Y-86360000D02*
X141985002Y-94615000D01*
X132080000Y-86360000D02*
X133730002Y-86360000D01*
X81280000Y-105410000D02*
X86360000Y-105410000D01*
X100330000Y-81280000D02*
X104140000Y-81280000D01*
X132080000Y-91440000D02*
X136525000Y-91440000D01*
X100330000Y-86360000D02*
X104140000Y-86360000D01*
X142875000Y-86995000D02*
X142875000Y-91440000D01*
X119380000Y-68580000D02*
X132080000Y-81280000D01*
X91440000Y-68580000D02*
X119380000Y-68580000D01*
X132080000Y-106680000D02*
X134620000Y-104140000D01*
X134620000Y-104140000D02*
X142875000Y-104140000D01*
X92710000Y-121720000D02*
X92710000Y-109220000D01*
X92710000Y-105410000D02*
X92710000Y-109220000D01*
M02*
