G04 #@! TF.GenerationSoftware,KiCad,Pcbnew,(5.1.12)-1*
G04 #@! TF.CreationDate,2022-02-06T22:11:33+01:00*
G04 #@! TF.ProjectId,curtain_wiring,63757274-6169-46e5-9f77-6972696e672e,rev?*
G04 #@! TF.SameCoordinates,Original*
G04 #@! TF.FileFunction,Copper,L1,Top*
G04 #@! TF.FilePolarity,Positive*
%FSLAX46Y46*%
G04 Gerber Fmt 4.6, Leading zero omitted, Abs format (unit mm)*
G04 Created by KiCad (PCBNEW (5.1.12)-1) date 2022-02-06 22:11:33*
%MOMM*%
%LPD*%
G01*
G04 APERTURE LIST*
G04 #@! TA.AperFunction,ComponentPad*
%ADD10R,1.700000X1.700000*%
G04 #@! TD*
G04 #@! TA.AperFunction,ComponentPad*
%ADD11O,1.700000X1.700000*%
G04 #@! TD*
G04 #@! TA.AperFunction,ComponentPad*
%ADD12C,1.600000*%
G04 #@! TD*
G04 #@! TA.AperFunction,ComponentPad*
%ADD13R,1.600000X1.600000*%
G04 #@! TD*
G04 #@! TA.AperFunction,ComponentPad*
%ADD14R,1.800000X1.800000*%
G04 #@! TD*
G04 #@! TA.AperFunction,ComponentPad*
%ADD15C,1.800000*%
G04 #@! TD*
G04 #@! TA.AperFunction,ComponentPad*
%ADD16C,4.700000*%
G04 #@! TD*
G04 #@! TA.AperFunction,ConnectorPad*
%ADD17C,7.500000*%
G04 #@! TD*
G04 #@! TA.AperFunction,SMDPad,CuDef*
%ADD18C,0.100000*%
G04 #@! TD*
G04 #@! TA.AperFunction,ComponentPad*
%ADD19O,1.600000X1.600000*%
G04 #@! TD*
G04 #@! TA.AperFunction,ComponentPad*
%ADD20O,1.850000X3.048000*%
G04 #@! TD*
G04 #@! TA.AperFunction,ComponentPad*
%ADD21C,1.524000*%
G04 #@! TD*
G04 #@! TA.AperFunction,ViaPad*
%ADD22C,0.800000*%
G04 #@! TD*
G04 #@! TA.AperFunction,Conductor*
%ADD23C,0.250000*%
G04 #@! TD*
G04 #@! TA.AperFunction,Conductor*
%ADD24C,0.254000*%
G04 #@! TD*
G04 #@! TA.AperFunction,Conductor*
%ADD25C,0.100000*%
G04 #@! TD*
G04 APERTURE END LIST*
D10*
X137160000Y-113665000D03*
D11*
X137160000Y-116205000D03*
X139700000Y-113665000D03*
X139700000Y-116205000D03*
X142240000Y-113665000D03*
X142240000Y-116205000D03*
X144780000Y-113665000D03*
X144780000Y-116205000D03*
X147320000Y-113665000D03*
X147320000Y-116205000D03*
X149860000Y-113665000D03*
X149860000Y-116205000D03*
X152400000Y-113665000D03*
X152400000Y-116205000D03*
X154940000Y-113665000D03*
X154940000Y-116205000D03*
X157480000Y-113665000D03*
X157480000Y-116205000D03*
X160020000Y-113665000D03*
X160020000Y-116205000D03*
X162560000Y-113665000D03*
X162560000Y-116205000D03*
X165100000Y-113665000D03*
X165100000Y-116205000D03*
D12*
X101520000Y-92710000D03*
X96520000Y-92710000D03*
X81280000Y-92710000D03*
X81280000Y-97710000D03*
X171450000Y-97195000D03*
D13*
X171450000Y-99695000D03*
D12*
X152725000Y-101600000D03*
D13*
X149225000Y-101600000D03*
D14*
X88900000Y-87630000D03*
D15*
X91440000Y-87630000D03*
D16*
X81280000Y-68580000D03*
D17*
X81280000Y-68580000D03*
X171450000Y-68580000D03*
D16*
X171450000Y-68580000D03*
X171450000Y-119380000D03*
D17*
X171450000Y-119380000D03*
X113030000Y-113030000D03*
D16*
X113030000Y-113030000D03*
D10*
X153035000Y-94615000D03*
D11*
X153035000Y-92075000D03*
X153035000Y-89535000D03*
X153035000Y-86995000D03*
X153035000Y-84455000D03*
X153035000Y-81915000D03*
X153035000Y-79375000D03*
X153035000Y-76835000D03*
X155575000Y-76835000D03*
X158115000Y-76835000D03*
X165735000Y-76835000D03*
X165735000Y-79375000D03*
X165735000Y-81915000D03*
X165735000Y-84455000D03*
X165735000Y-86995000D03*
X165735000Y-89535000D03*
X165735000Y-92075000D03*
D10*
X165735000Y-94615000D03*
X158750000Y-102235000D03*
D11*
X161290000Y-102235000D03*
X163830000Y-102235000D03*
D10*
X81280000Y-105410000D03*
D11*
X81280000Y-102870000D03*
D10*
X100330000Y-81280000D03*
X136525000Y-91440000D03*
X137160000Y-108585000D03*
D11*
X137160000Y-111125000D03*
X139700000Y-108585000D03*
X139700000Y-111125000D03*
X142240000Y-108585000D03*
X142240000Y-111125000D03*
X144780000Y-108585000D03*
X144780000Y-111125000D03*
X147320000Y-108585000D03*
X147320000Y-111125000D03*
X149860000Y-108585000D03*
X149860000Y-111125000D03*
X152400000Y-108585000D03*
X152400000Y-111125000D03*
X154940000Y-108585000D03*
X154940000Y-111125000D03*
X157480000Y-108585000D03*
X157480000Y-111125000D03*
X160020000Y-108585000D03*
X160020000Y-111125000D03*
X162560000Y-108585000D03*
X162560000Y-111125000D03*
X165100000Y-108585000D03*
X165100000Y-111125000D03*
X165100000Y-121285000D03*
X165100000Y-118745000D03*
X162560000Y-121285000D03*
X162560000Y-118745000D03*
X160020000Y-121285000D03*
X160020000Y-118745000D03*
X157480000Y-121285000D03*
X157480000Y-118745000D03*
X154940000Y-121285000D03*
X154940000Y-118745000D03*
X152400000Y-121285000D03*
X152400000Y-118745000D03*
X149860000Y-121285000D03*
X149860000Y-118745000D03*
X147320000Y-121285000D03*
X147320000Y-118745000D03*
X144780000Y-121285000D03*
X144780000Y-118745000D03*
X142240000Y-121285000D03*
X142240000Y-118745000D03*
X139700000Y-121285000D03*
X139700000Y-118745000D03*
X137160000Y-121285000D03*
D10*
X137160000Y-118745000D03*
X100330000Y-86360000D03*
X142875000Y-84455000D03*
D11*
X142875000Y-86995000D03*
X145415000Y-84455000D03*
D10*
X145415000Y-86995000D03*
G04 #@! TA.AperFunction,SMDPad,CuDef*
D18*
G36*
X138545000Y-97940000D02*
G01*
X138545000Y-98440000D01*
X138544398Y-98440000D01*
X138544398Y-98464534D01*
X138539588Y-98513365D01*
X138530016Y-98561490D01*
X138515772Y-98608445D01*
X138496995Y-98653778D01*
X138473864Y-98697051D01*
X138446604Y-98737850D01*
X138415476Y-98775779D01*
X138380779Y-98810476D01*
X138342850Y-98841604D01*
X138302051Y-98868864D01*
X138258778Y-98891995D01*
X138213445Y-98910772D01*
X138166490Y-98925016D01*
X138118365Y-98934588D01*
X138069534Y-98939398D01*
X138045000Y-98939398D01*
X138045000Y-98940000D01*
X137545000Y-98940000D01*
X137545000Y-98939398D01*
X137520466Y-98939398D01*
X137471635Y-98934588D01*
X137423510Y-98925016D01*
X137376555Y-98910772D01*
X137331222Y-98891995D01*
X137287949Y-98868864D01*
X137247150Y-98841604D01*
X137209221Y-98810476D01*
X137174524Y-98775779D01*
X137143396Y-98737850D01*
X137116136Y-98697051D01*
X137093005Y-98653778D01*
X137074228Y-98608445D01*
X137059984Y-98561490D01*
X137050412Y-98513365D01*
X137045602Y-98464534D01*
X137045602Y-98440000D01*
X137045000Y-98440000D01*
X137045000Y-97940000D01*
X138545000Y-97940000D01*
G37*
G04 #@! TD.AperFunction*
G04 #@! TA.AperFunction,SMDPad,CuDef*
G36*
X137045602Y-97140000D02*
G01*
X137045602Y-97115466D01*
X137050412Y-97066635D01*
X137059984Y-97018510D01*
X137074228Y-96971555D01*
X137093005Y-96926222D01*
X137116136Y-96882949D01*
X137143396Y-96842150D01*
X137174524Y-96804221D01*
X137209221Y-96769524D01*
X137247150Y-96738396D01*
X137287949Y-96711136D01*
X137331222Y-96688005D01*
X137376555Y-96669228D01*
X137423510Y-96654984D01*
X137471635Y-96645412D01*
X137520466Y-96640602D01*
X137545000Y-96640602D01*
X137545000Y-96640000D01*
X138045000Y-96640000D01*
X138045000Y-96640602D01*
X138069534Y-96640602D01*
X138118365Y-96645412D01*
X138166490Y-96654984D01*
X138213445Y-96669228D01*
X138258778Y-96688005D01*
X138302051Y-96711136D01*
X138342850Y-96738396D01*
X138380779Y-96769524D01*
X138415476Y-96804221D01*
X138446604Y-96842150D01*
X138473864Y-96882949D01*
X138496995Y-96926222D01*
X138515772Y-96971555D01*
X138530016Y-97018510D01*
X138539588Y-97066635D01*
X138544398Y-97115466D01*
X138544398Y-97140000D01*
X138545000Y-97140000D01*
X138545000Y-97640000D01*
X137045000Y-97640000D01*
X137045000Y-97140000D01*
X137045602Y-97140000D01*
G37*
G04 #@! TD.AperFunction*
D10*
X171450000Y-81915000D03*
D11*
X171450000Y-84455000D03*
X171450000Y-86995000D03*
X171450000Y-89535000D03*
D12*
X91440000Y-81280000D03*
D19*
X91440000Y-68580000D03*
X142875000Y-104140000D03*
D12*
X142875000Y-91440000D03*
D19*
X92710000Y-92710000D03*
D12*
X92710000Y-105410000D03*
D19*
X83820000Y-90170000D03*
D12*
X83820000Y-77470000D03*
X86360000Y-105410000D03*
D19*
X86360000Y-92710000D03*
D12*
X99060000Y-110490000D03*
D19*
X99060000Y-97790000D03*
D20*
X92710000Y-121720000D03*
X87710000Y-121720000D03*
X92710000Y-109220000D03*
X87710000Y-109220000D03*
D21*
X104140000Y-81280000D03*
X104140000Y-83820000D03*
X104140000Y-86360000D03*
X104140000Y-88900000D03*
X104140000Y-91440000D03*
X104140000Y-93980000D03*
X104140000Y-96520000D03*
X104140000Y-99060000D03*
X104140000Y-101600000D03*
X104140000Y-104140000D03*
X104140000Y-106680000D03*
X104140000Y-109220000D03*
X104140000Y-111760000D03*
X104140000Y-114300000D03*
X104140000Y-116840000D03*
X132080000Y-116840000D03*
X132080000Y-114300000D03*
X132080000Y-111760000D03*
X132080000Y-109220000D03*
X132080000Y-106680000D03*
X132080000Y-104140000D03*
X132080000Y-101600000D03*
X132080000Y-99060000D03*
X132080000Y-96520000D03*
X132080000Y-93980000D03*
X132080000Y-91440000D03*
X132080000Y-88900000D03*
X132080000Y-86360000D03*
X132080000Y-83820000D03*
X132080000Y-81280000D03*
D22*
X95885000Y-75565000D03*
X95885000Y-80645000D03*
X149225000Y-96520000D03*
D23*
X95885000Y-75565000D02*
X95885000Y-80645000D01*
X95885000Y-80645000D02*
X95885000Y-80645000D01*
X121920000Y-106680000D02*
X132080000Y-116840000D01*
X104140000Y-106680000D02*
X121920000Y-106680000D01*
X121920000Y-104140000D02*
X132080000Y-93980000D01*
X121920000Y-106680000D02*
X121920000Y-104140000D01*
X165735000Y-92329998D02*
X165735000Y-92075000D01*
X161544998Y-96520000D02*
X165735000Y-92329998D01*
X149225000Y-96520000D02*
X161544998Y-96520000D01*
X137780000Y-98440000D02*
X137795000Y-98440000D01*
X132080000Y-104140000D02*
X137780000Y-98440000D01*
X144050001Y-85630001D02*
X142875000Y-84455000D01*
X144050001Y-92932591D02*
X144050001Y-85630001D01*
X138542592Y-98440000D02*
X144050001Y-92932591D01*
X137795000Y-98440000D02*
X138542592Y-98440000D01*
X137795000Y-96520000D02*
X142875000Y-91440000D01*
X137795000Y-97140000D02*
X137795000Y-96520000D01*
D24*
X175133000Y-66199208D02*
X174856052Y-65784726D01*
X174245274Y-65173948D01*
X173527076Y-64694064D01*
X172729057Y-64363513D01*
X171881885Y-64195000D01*
X171018115Y-64195000D01*
X170170943Y-64363513D01*
X169372924Y-64694064D01*
X168654726Y-65173948D01*
X168043948Y-65784726D01*
X167564064Y-66502924D01*
X167233513Y-67300943D01*
X167065000Y-68148115D01*
X167065000Y-69011885D01*
X167233513Y-69859057D01*
X167564064Y-70657076D01*
X168043948Y-71375274D01*
X168654726Y-71986052D01*
X169372924Y-72465936D01*
X170170943Y-72796487D01*
X171018115Y-72965000D01*
X171881885Y-72965000D01*
X172729057Y-72796487D01*
X173527076Y-72465936D01*
X174245274Y-71986052D01*
X174856052Y-71375274D01*
X175133000Y-70960791D01*
X175133000Y-116999209D01*
X174856052Y-116584726D01*
X174245274Y-115973948D01*
X173527076Y-115494064D01*
X172729057Y-115163513D01*
X171881885Y-114995000D01*
X171018115Y-114995000D01*
X170170943Y-115163513D01*
X169372924Y-115494064D01*
X168654726Y-115973948D01*
X168043948Y-116584726D01*
X167564064Y-117302924D01*
X167233513Y-118100943D01*
X167065000Y-118948115D01*
X167065000Y-119811885D01*
X167233513Y-120659057D01*
X167564064Y-121457076D01*
X168043948Y-122175274D01*
X168654726Y-122786052D01*
X169372924Y-123265936D01*
X170170943Y-123596487D01*
X171018115Y-123765000D01*
X171881885Y-123765000D01*
X172729057Y-123596487D01*
X173527076Y-123265936D01*
X174245274Y-122786052D01*
X174856052Y-122175274D01*
X175133000Y-121760791D01*
X175133000Y-125070000D01*
X77597000Y-125070000D01*
X77597000Y-121847000D01*
X86150000Y-121847000D01*
X86150000Y-122446000D01*
X86204751Y-122747901D01*
X86317348Y-123033319D01*
X86483464Y-123291286D01*
X86696715Y-123511889D01*
X86948906Y-123686650D01*
X87230345Y-123808853D01*
X87341336Y-123834812D01*
X87583000Y-123714483D01*
X87583000Y-121847000D01*
X87837000Y-121847000D01*
X87837000Y-123714483D01*
X88078664Y-123834812D01*
X88189655Y-123808853D01*
X88471094Y-123686650D01*
X88723285Y-123511889D01*
X88936536Y-123291286D01*
X89102652Y-123033319D01*
X89215249Y-122747901D01*
X89270000Y-122446000D01*
X89270000Y-121847000D01*
X87837000Y-121847000D01*
X87583000Y-121847000D01*
X86150000Y-121847000D01*
X77597000Y-121847000D01*
X77597000Y-120994000D01*
X86150000Y-120994000D01*
X86150000Y-121593000D01*
X87583000Y-121593000D01*
X87583000Y-119725517D01*
X87837000Y-119725517D01*
X87837000Y-121593000D01*
X89270000Y-121593000D01*
X89270000Y-121044364D01*
X91150000Y-121044364D01*
X91150000Y-122395635D01*
X91172572Y-122624812D01*
X91261774Y-122918874D01*
X91406631Y-123189882D01*
X91601576Y-123427424D01*
X91839117Y-123622369D01*
X92110125Y-123767226D01*
X92404187Y-123856428D01*
X92710000Y-123886548D01*
X93015812Y-123856428D01*
X93309874Y-123767226D01*
X93580882Y-123622369D01*
X93818424Y-123427424D01*
X94013369Y-123189883D01*
X94158226Y-122918875D01*
X94247428Y-122624813D01*
X94270000Y-122395636D01*
X94270000Y-121044364D01*
X94247428Y-120815187D01*
X94158226Y-120521125D01*
X94013369Y-120250117D01*
X93818424Y-120012576D01*
X93580883Y-119817631D01*
X93309875Y-119672774D01*
X93015813Y-119583572D01*
X92710000Y-119553452D01*
X92404188Y-119583572D01*
X92110126Y-119672774D01*
X91839118Y-119817631D01*
X91601577Y-120012576D01*
X91406632Y-120250117D01*
X91261774Y-120521125D01*
X91172572Y-120815187D01*
X91150000Y-121044364D01*
X89270000Y-121044364D01*
X89270000Y-120994000D01*
X89215249Y-120692099D01*
X89102652Y-120406681D01*
X88936536Y-120148714D01*
X88723285Y-119928111D01*
X88471094Y-119753350D01*
X88189655Y-119631147D01*
X88078664Y-119605188D01*
X87837000Y-119725517D01*
X87583000Y-119725517D01*
X87341336Y-119605188D01*
X87230345Y-119631147D01*
X86948906Y-119753350D01*
X86696715Y-119928111D01*
X86483464Y-120148714D01*
X86317348Y-120406681D01*
X86204751Y-120692099D01*
X86150000Y-120994000D01*
X77597000Y-120994000D01*
X77597000Y-116702408D01*
X102743000Y-116702408D01*
X102743000Y-116977592D01*
X102796686Y-117247490D01*
X102901995Y-117501727D01*
X103054880Y-117730535D01*
X103249465Y-117925120D01*
X103478273Y-118078005D01*
X103732510Y-118183314D01*
X104002408Y-118237000D01*
X104277592Y-118237000D01*
X104547490Y-118183314D01*
X104801727Y-118078005D01*
X105030535Y-117925120D01*
X105225120Y-117730535D01*
X105378005Y-117501727D01*
X105483314Y-117247490D01*
X105537000Y-116977592D01*
X105537000Y-116702408D01*
X105483314Y-116432510D01*
X105378005Y-116178273D01*
X105225120Y-115949465D01*
X105030535Y-115754880D01*
X104801727Y-115601995D01*
X104730057Y-115572308D01*
X104743023Y-115567636D01*
X104858980Y-115505656D01*
X104925960Y-115265565D01*
X104140000Y-114479605D01*
X103354040Y-115265565D01*
X103421020Y-115505656D01*
X103556760Y-115569485D01*
X103478273Y-115601995D01*
X103249465Y-115754880D01*
X103054880Y-115949465D01*
X102901995Y-116178273D01*
X102796686Y-116432510D01*
X102743000Y-116702408D01*
X77597000Y-116702408D01*
X77597000Y-114372017D01*
X102738090Y-114372017D01*
X102779078Y-114644133D01*
X102872364Y-114903023D01*
X102934344Y-115018980D01*
X103174435Y-115085960D01*
X103960395Y-114300000D01*
X104319605Y-114300000D01*
X105105565Y-115085960D01*
X105345656Y-115018980D01*
X105462756Y-114769952D01*
X105529023Y-114502865D01*
X105541910Y-114227983D01*
X105500922Y-113955867D01*
X105407636Y-113696977D01*
X105345656Y-113581020D01*
X105105565Y-113514040D01*
X104319605Y-114300000D01*
X103960395Y-114300000D01*
X103174435Y-113514040D01*
X102934344Y-113581020D01*
X102817244Y-113830048D01*
X102750977Y-114097135D01*
X102738090Y-114372017D01*
X77597000Y-114372017D01*
X77597000Y-109347000D01*
X86150000Y-109347000D01*
X86150000Y-109946000D01*
X86204751Y-110247901D01*
X86317348Y-110533319D01*
X86483464Y-110791286D01*
X86696715Y-111011889D01*
X86948906Y-111186650D01*
X87230345Y-111308853D01*
X87341336Y-111334812D01*
X87583000Y-111214483D01*
X87583000Y-109347000D01*
X87837000Y-109347000D01*
X87837000Y-111214483D01*
X88078664Y-111334812D01*
X88189655Y-111308853D01*
X88471094Y-111186650D01*
X88723285Y-111011889D01*
X88936536Y-110791286D01*
X89102652Y-110533319D01*
X89215249Y-110247901D01*
X89270000Y-109946000D01*
X89270000Y-109347000D01*
X87837000Y-109347000D01*
X87583000Y-109347000D01*
X86150000Y-109347000D01*
X77597000Y-109347000D01*
X77597000Y-108494000D01*
X86150000Y-108494000D01*
X86150000Y-109093000D01*
X87583000Y-109093000D01*
X87583000Y-107225517D01*
X87837000Y-107225517D01*
X87837000Y-109093000D01*
X89270000Y-109093000D01*
X89270000Y-108544364D01*
X91150000Y-108544364D01*
X91150000Y-109895635D01*
X91172572Y-110124812D01*
X91261774Y-110418874D01*
X91406631Y-110689882D01*
X91601576Y-110927424D01*
X91839117Y-111122369D01*
X92110125Y-111267226D01*
X92404187Y-111356428D01*
X92710000Y-111386548D01*
X93015812Y-111356428D01*
X93309874Y-111267226D01*
X93580882Y-111122369D01*
X93818424Y-110927424D01*
X94013369Y-110689883D01*
X94158226Y-110418875D01*
X94179523Y-110348665D01*
X97625000Y-110348665D01*
X97625000Y-110631335D01*
X97680147Y-110908574D01*
X97788320Y-111169727D01*
X97945363Y-111404759D01*
X98145241Y-111604637D01*
X98380273Y-111761680D01*
X98641426Y-111869853D01*
X98918665Y-111925000D01*
X99201335Y-111925000D01*
X99478574Y-111869853D01*
X99739727Y-111761680D01*
X99974759Y-111604637D01*
X100174637Y-111404759D01*
X100331680Y-111169727D01*
X100439853Y-110908574D01*
X100495000Y-110631335D01*
X100495000Y-110348665D01*
X100439853Y-110071426D01*
X100331680Y-109810273D01*
X100174637Y-109575241D01*
X99974759Y-109375363D01*
X99739727Y-109218320D01*
X99478574Y-109110147D01*
X99201335Y-109055000D01*
X98918665Y-109055000D01*
X98641426Y-109110147D01*
X98380273Y-109218320D01*
X98145241Y-109375363D01*
X97945363Y-109575241D01*
X97788320Y-109810273D01*
X97680147Y-110071426D01*
X97625000Y-110348665D01*
X94179523Y-110348665D01*
X94247428Y-110124813D01*
X94270000Y-109895636D01*
X94270000Y-108544364D01*
X94247428Y-108315187D01*
X94158226Y-108021125D01*
X94013369Y-107750117D01*
X93818424Y-107512576D01*
X93580883Y-107317631D01*
X93309875Y-107172774D01*
X93015813Y-107083572D01*
X92710000Y-107053452D01*
X92404188Y-107083572D01*
X92110126Y-107172774D01*
X91839118Y-107317631D01*
X91601577Y-107512576D01*
X91406632Y-107750117D01*
X91261774Y-108021125D01*
X91172572Y-108315187D01*
X91150000Y-108544364D01*
X89270000Y-108544364D01*
X89270000Y-108494000D01*
X89215249Y-108192099D01*
X89102652Y-107906681D01*
X88936536Y-107648714D01*
X88723285Y-107428111D01*
X88471094Y-107253350D01*
X88189655Y-107131147D01*
X88078664Y-107105188D01*
X87837000Y-107225517D01*
X87583000Y-107225517D01*
X87341336Y-107105188D01*
X87230345Y-107131147D01*
X86948906Y-107253350D01*
X86696715Y-107428111D01*
X86483464Y-107648714D01*
X86317348Y-107906681D01*
X86204751Y-108192099D01*
X86150000Y-108494000D01*
X77597000Y-108494000D01*
X77597000Y-104560000D01*
X79791928Y-104560000D01*
X79791928Y-106260000D01*
X79804188Y-106384482D01*
X79840498Y-106504180D01*
X79899463Y-106614494D01*
X79978815Y-106711185D01*
X80075506Y-106790537D01*
X80185820Y-106849502D01*
X80305518Y-106885812D01*
X80430000Y-106898072D01*
X82130000Y-106898072D01*
X82254482Y-106885812D01*
X82374180Y-106849502D01*
X82484494Y-106790537D01*
X82581185Y-106711185D01*
X82660537Y-106614494D01*
X82719502Y-106504180D01*
X82755812Y-106384482D01*
X82768072Y-106260000D01*
X82768072Y-105268665D01*
X84925000Y-105268665D01*
X84925000Y-105551335D01*
X84980147Y-105828574D01*
X85088320Y-106089727D01*
X85245363Y-106324759D01*
X85445241Y-106524637D01*
X85680273Y-106681680D01*
X85941426Y-106789853D01*
X86218665Y-106845000D01*
X86501335Y-106845000D01*
X86778574Y-106789853D01*
X87039727Y-106681680D01*
X87274759Y-106524637D01*
X87474637Y-106324759D01*
X87631680Y-106089727D01*
X87739853Y-105828574D01*
X87795000Y-105551335D01*
X87795000Y-105268665D01*
X91275000Y-105268665D01*
X91275000Y-105551335D01*
X91330147Y-105828574D01*
X91438320Y-106089727D01*
X91595363Y-106324759D01*
X91795241Y-106524637D01*
X92030273Y-106681680D01*
X92291426Y-106789853D01*
X92568665Y-106845000D01*
X92851335Y-106845000D01*
X93128574Y-106789853D01*
X93389727Y-106681680D01*
X93598162Y-106542408D01*
X102743000Y-106542408D01*
X102743000Y-106817592D01*
X102796686Y-107087490D01*
X102901995Y-107341727D01*
X103054880Y-107570535D01*
X103249465Y-107765120D01*
X103478273Y-107918005D01*
X103555515Y-107950000D01*
X103478273Y-107981995D01*
X103249465Y-108134880D01*
X103054880Y-108329465D01*
X102901995Y-108558273D01*
X102796686Y-108812510D01*
X102743000Y-109082408D01*
X102743000Y-109357592D01*
X102796686Y-109627490D01*
X102901995Y-109881727D01*
X103054880Y-110110535D01*
X103249465Y-110305120D01*
X103478273Y-110458005D01*
X103555515Y-110490000D01*
X103478273Y-110521995D01*
X103249465Y-110674880D01*
X103054880Y-110869465D01*
X102901995Y-111098273D01*
X102796686Y-111352510D01*
X102743000Y-111622408D01*
X102743000Y-111897592D01*
X102796686Y-112167490D01*
X102901995Y-112421727D01*
X103054880Y-112650535D01*
X103249465Y-112845120D01*
X103478273Y-112998005D01*
X103549943Y-113027692D01*
X103536977Y-113032364D01*
X103421020Y-113094344D01*
X103354040Y-113334435D01*
X104140000Y-114120395D01*
X104925960Y-113334435D01*
X104858980Y-113094344D01*
X104723240Y-113030515D01*
X104801727Y-112998005D01*
X105030535Y-112845120D01*
X105225120Y-112650535D01*
X105260146Y-112598115D01*
X108645000Y-112598115D01*
X108645000Y-113461885D01*
X108813513Y-114309057D01*
X109144064Y-115107076D01*
X109623948Y-115825274D01*
X110234726Y-116436052D01*
X110952924Y-116915936D01*
X111750943Y-117246487D01*
X112598115Y-117415000D01*
X113461885Y-117415000D01*
X114309057Y-117246487D01*
X115107076Y-116915936D01*
X115825274Y-116436052D01*
X116436052Y-115825274D01*
X116915936Y-115107076D01*
X117246487Y-114309057D01*
X117415000Y-113461885D01*
X117415000Y-112598115D01*
X117246487Y-111750943D01*
X116915936Y-110952924D01*
X116436052Y-110234726D01*
X115825274Y-109623948D01*
X115107076Y-109144064D01*
X114309057Y-108813513D01*
X113461885Y-108645000D01*
X112598115Y-108645000D01*
X111750943Y-108813513D01*
X110952924Y-109144064D01*
X110234726Y-109623948D01*
X109623948Y-110234726D01*
X109144064Y-110952924D01*
X108813513Y-111750943D01*
X108645000Y-112598115D01*
X105260146Y-112598115D01*
X105378005Y-112421727D01*
X105483314Y-112167490D01*
X105537000Y-111897592D01*
X105537000Y-111622408D01*
X105483314Y-111352510D01*
X105378005Y-111098273D01*
X105225120Y-110869465D01*
X105030535Y-110674880D01*
X104801727Y-110521995D01*
X104724485Y-110490000D01*
X104801727Y-110458005D01*
X105030535Y-110305120D01*
X105225120Y-110110535D01*
X105378005Y-109881727D01*
X105483314Y-109627490D01*
X105537000Y-109357592D01*
X105537000Y-109082408D01*
X105483314Y-108812510D01*
X105378005Y-108558273D01*
X105225120Y-108329465D01*
X105030535Y-108134880D01*
X104801727Y-107981995D01*
X104724485Y-107950000D01*
X104801727Y-107918005D01*
X105030535Y-107765120D01*
X105225120Y-107570535D01*
X105312341Y-107440000D01*
X121605199Y-107440000D01*
X130713628Y-116548430D01*
X130683000Y-116702408D01*
X130683000Y-116977592D01*
X130736686Y-117247490D01*
X130841995Y-117501727D01*
X130994880Y-117730535D01*
X131189465Y-117925120D01*
X131418273Y-118078005D01*
X131672510Y-118183314D01*
X131942408Y-118237000D01*
X132217592Y-118237000D01*
X132487490Y-118183314D01*
X132741727Y-118078005D01*
X132970535Y-117925120D01*
X133165120Y-117730535D01*
X133318005Y-117501727D01*
X133423314Y-117247490D01*
X133477000Y-116977592D01*
X133477000Y-116702408D01*
X133423314Y-116432510D01*
X133318005Y-116178273D01*
X133165120Y-115949465D01*
X132970535Y-115754880D01*
X132741727Y-115601995D01*
X132670057Y-115572308D01*
X132683023Y-115567636D01*
X132798980Y-115505656D01*
X132865960Y-115265565D01*
X132080000Y-114479605D01*
X132065858Y-114493748D01*
X131886253Y-114314143D01*
X131900395Y-114300000D01*
X132259605Y-114300000D01*
X133045565Y-115085960D01*
X133285656Y-115018980D01*
X133402756Y-114769952D01*
X133469023Y-114502865D01*
X133481910Y-114227983D01*
X133440922Y-113955867D01*
X133347636Y-113696977D01*
X133285656Y-113581020D01*
X133045565Y-113514040D01*
X132259605Y-114300000D01*
X131900395Y-114300000D01*
X131114435Y-113514040D01*
X130874344Y-113581020D01*
X130757244Y-113830048D01*
X130690977Y-114097135D01*
X130678481Y-114363679D01*
X122680000Y-106365199D01*
X122680000Y-104454801D01*
X128212393Y-98922408D01*
X130683000Y-98922408D01*
X130683000Y-99197592D01*
X130736686Y-99467490D01*
X130841995Y-99721727D01*
X130994880Y-99950535D01*
X131189465Y-100145120D01*
X131418273Y-100298005D01*
X131495515Y-100330000D01*
X131418273Y-100361995D01*
X131189465Y-100514880D01*
X130994880Y-100709465D01*
X130841995Y-100938273D01*
X130736686Y-101192510D01*
X130683000Y-101462408D01*
X130683000Y-101737592D01*
X130736686Y-102007490D01*
X130841995Y-102261727D01*
X130994880Y-102490535D01*
X131189465Y-102685120D01*
X131418273Y-102838005D01*
X131495515Y-102870000D01*
X131418273Y-102901995D01*
X131189465Y-103054880D01*
X130994880Y-103249465D01*
X130841995Y-103478273D01*
X130736686Y-103732510D01*
X130683000Y-104002408D01*
X130683000Y-104277592D01*
X130736686Y-104547490D01*
X130841995Y-104801727D01*
X130994880Y-105030535D01*
X131189465Y-105225120D01*
X131418273Y-105378005D01*
X131495515Y-105410000D01*
X131418273Y-105441995D01*
X131189465Y-105594880D01*
X130994880Y-105789465D01*
X130841995Y-106018273D01*
X130736686Y-106272510D01*
X130683000Y-106542408D01*
X130683000Y-106817592D01*
X130736686Y-107087490D01*
X130841995Y-107341727D01*
X130994880Y-107570535D01*
X131189465Y-107765120D01*
X131418273Y-107918005D01*
X131495515Y-107950000D01*
X131418273Y-107981995D01*
X131189465Y-108134880D01*
X130994880Y-108329465D01*
X130841995Y-108558273D01*
X130736686Y-108812510D01*
X130683000Y-109082408D01*
X130683000Y-109357592D01*
X130736686Y-109627490D01*
X130841995Y-109881727D01*
X130994880Y-110110535D01*
X131189465Y-110305120D01*
X131418273Y-110458005D01*
X131495515Y-110490000D01*
X131418273Y-110521995D01*
X131189465Y-110674880D01*
X130994880Y-110869465D01*
X130841995Y-111098273D01*
X130736686Y-111352510D01*
X130683000Y-111622408D01*
X130683000Y-111897592D01*
X130736686Y-112167490D01*
X130841995Y-112421727D01*
X130994880Y-112650535D01*
X131189465Y-112845120D01*
X131418273Y-112998005D01*
X131489943Y-113027692D01*
X131476977Y-113032364D01*
X131361020Y-113094344D01*
X131294040Y-113334435D01*
X132080000Y-114120395D01*
X132865960Y-113334435D01*
X132798980Y-113094344D01*
X132663240Y-113030515D01*
X132741727Y-112998005D01*
X132970535Y-112845120D01*
X133165120Y-112650535D01*
X133318005Y-112421727D01*
X133423314Y-112167490D01*
X133477000Y-111897592D01*
X133477000Y-111622408D01*
X133423314Y-111352510D01*
X133318005Y-111098273D01*
X133165120Y-110869465D01*
X132970535Y-110674880D01*
X132741727Y-110521995D01*
X132664485Y-110490000D01*
X132741727Y-110458005D01*
X132970535Y-110305120D01*
X133165120Y-110110535D01*
X133318005Y-109881727D01*
X133423314Y-109627490D01*
X133477000Y-109357592D01*
X133477000Y-109082408D01*
X133423314Y-108812510D01*
X133318005Y-108558273D01*
X133165120Y-108329465D01*
X132970535Y-108134880D01*
X132741727Y-107981995D01*
X132664485Y-107950000D01*
X132741727Y-107918005D01*
X132970535Y-107765120D01*
X133000655Y-107735000D01*
X135671928Y-107735000D01*
X135671928Y-109435000D01*
X135684188Y-109559482D01*
X135720498Y-109679180D01*
X135779463Y-109789494D01*
X135858815Y-109886185D01*
X135955506Y-109965537D01*
X136065820Y-110024502D01*
X136138380Y-110046513D01*
X136006525Y-110178368D01*
X135844010Y-110421589D01*
X135732068Y-110691842D01*
X135675000Y-110978740D01*
X135675000Y-111271260D01*
X135732068Y-111558158D01*
X135844010Y-111828411D01*
X136006525Y-112071632D01*
X136138380Y-112203487D01*
X136065820Y-112225498D01*
X135955506Y-112284463D01*
X135858815Y-112363815D01*
X135779463Y-112460506D01*
X135720498Y-112570820D01*
X135684188Y-112690518D01*
X135671928Y-112815000D01*
X135671928Y-114515000D01*
X135684188Y-114639482D01*
X135720498Y-114759180D01*
X135779463Y-114869494D01*
X135858815Y-114966185D01*
X135955506Y-115045537D01*
X136065820Y-115104502D01*
X136138380Y-115126513D01*
X136006525Y-115258368D01*
X135844010Y-115501589D01*
X135732068Y-115771842D01*
X135675000Y-116058740D01*
X135675000Y-116351260D01*
X135732068Y-116638158D01*
X135844010Y-116908411D01*
X136006525Y-117151632D01*
X136138380Y-117283487D01*
X136065820Y-117305498D01*
X135955506Y-117364463D01*
X135858815Y-117443815D01*
X135779463Y-117540506D01*
X135720498Y-117650820D01*
X135684188Y-117770518D01*
X135671928Y-117895000D01*
X135671928Y-119595000D01*
X135684188Y-119719482D01*
X135720498Y-119839180D01*
X135779463Y-119949494D01*
X135858815Y-120046185D01*
X135955506Y-120125537D01*
X136065820Y-120184502D01*
X136138380Y-120206513D01*
X136006525Y-120338368D01*
X135844010Y-120581589D01*
X135732068Y-120851842D01*
X135675000Y-121138740D01*
X135675000Y-121431260D01*
X135732068Y-121718158D01*
X135844010Y-121988411D01*
X136006525Y-122231632D01*
X136213368Y-122438475D01*
X136456589Y-122600990D01*
X136726842Y-122712932D01*
X137013740Y-122770000D01*
X137306260Y-122770000D01*
X137593158Y-122712932D01*
X137863411Y-122600990D01*
X138106632Y-122438475D01*
X138313475Y-122231632D01*
X138430000Y-122057240D01*
X138546525Y-122231632D01*
X138753368Y-122438475D01*
X138996589Y-122600990D01*
X139266842Y-122712932D01*
X139553740Y-122770000D01*
X139846260Y-122770000D01*
X140133158Y-122712932D01*
X140403411Y-122600990D01*
X140646632Y-122438475D01*
X140853475Y-122231632D01*
X140970000Y-122057240D01*
X141086525Y-122231632D01*
X141293368Y-122438475D01*
X141536589Y-122600990D01*
X141806842Y-122712932D01*
X142093740Y-122770000D01*
X142386260Y-122770000D01*
X142673158Y-122712932D01*
X142943411Y-122600990D01*
X143186632Y-122438475D01*
X143393475Y-122231632D01*
X143510000Y-122057240D01*
X143626525Y-122231632D01*
X143833368Y-122438475D01*
X144076589Y-122600990D01*
X144346842Y-122712932D01*
X144633740Y-122770000D01*
X144926260Y-122770000D01*
X145213158Y-122712932D01*
X145483411Y-122600990D01*
X145726632Y-122438475D01*
X145933475Y-122231632D01*
X146050000Y-122057240D01*
X146166525Y-122231632D01*
X146373368Y-122438475D01*
X146616589Y-122600990D01*
X146886842Y-122712932D01*
X147173740Y-122770000D01*
X147466260Y-122770000D01*
X147753158Y-122712932D01*
X148023411Y-122600990D01*
X148266632Y-122438475D01*
X148473475Y-122231632D01*
X148590000Y-122057240D01*
X148706525Y-122231632D01*
X148913368Y-122438475D01*
X149156589Y-122600990D01*
X149426842Y-122712932D01*
X149713740Y-122770000D01*
X150006260Y-122770000D01*
X150293158Y-122712932D01*
X150563411Y-122600990D01*
X150806632Y-122438475D01*
X151013475Y-122231632D01*
X151130000Y-122057240D01*
X151246525Y-122231632D01*
X151453368Y-122438475D01*
X151696589Y-122600990D01*
X151966842Y-122712932D01*
X152253740Y-122770000D01*
X152546260Y-122770000D01*
X152833158Y-122712932D01*
X153103411Y-122600990D01*
X153346632Y-122438475D01*
X153553475Y-122231632D01*
X153670000Y-122057240D01*
X153786525Y-122231632D01*
X153993368Y-122438475D01*
X154236589Y-122600990D01*
X154506842Y-122712932D01*
X154793740Y-122770000D01*
X155086260Y-122770000D01*
X155373158Y-122712932D01*
X155643411Y-122600990D01*
X155886632Y-122438475D01*
X156093475Y-122231632D01*
X156210000Y-122057240D01*
X156326525Y-122231632D01*
X156533368Y-122438475D01*
X156776589Y-122600990D01*
X157046842Y-122712932D01*
X157333740Y-122770000D01*
X157626260Y-122770000D01*
X157913158Y-122712932D01*
X158183411Y-122600990D01*
X158426632Y-122438475D01*
X158633475Y-122231632D01*
X158750000Y-122057240D01*
X158866525Y-122231632D01*
X159073368Y-122438475D01*
X159316589Y-122600990D01*
X159586842Y-122712932D01*
X159873740Y-122770000D01*
X160166260Y-122770000D01*
X160453158Y-122712932D01*
X160723411Y-122600990D01*
X160966632Y-122438475D01*
X161173475Y-122231632D01*
X161290000Y-122057240D01*
X161406525Y-122231632D01*
X161613368Y-122438475D01*
X161856589Y-122600990D01*
X162126842Y-122712932D01*
X162413740Y-122770000D01*
X162706260Y-122770000D01*
X162993158Y-122712932D01*
X163263411Y-122600990D01*
X163506632Y-122438475D01*
X163713475Y-122231632D01*
X163830000Y-122057240D01*
X163946525Y-122231632D01*
X164153368Y-122438475D01*
X164396589Y-122600990D01*
X164666842Y-122712932D01*
X164953740Y-122770000D01*
X165246260Y-122770000D01*
X165533158Y-122712932D01*
X165803411Y-122600990D01*
X166046632Y-122438475D01*
X166253475Y-122231632D01*
X166415990Y-121988411D01*
X166527932Y-121718158D01*
X166585000Y-121431260D01*
X166585000Y-121138740D01*
X166527932Y-120851842D01*
X166415990Y-120581589D01*
X166253475Y-120338368D01*
X166046632Y-120131525D01*
X165872240Y-120015000D01*
X166046632Y-119898475D01*
X166253475Y-119691632D01*
X166415990Y-119448411D01*
X166527932Y-119178158D01*
X166585000Y-118891260D01*
X166585000Y-118598740D01*
X166527932Y-118311842D01*
X166415990Y-118041589D01*
X166253475Y-117798368D01*
X166046632Y-117591525D01*
X165872240Y-117475000D01*
X166046632Y-117358475D01*
X166253475Y-117151632D01*
X166415990Y-116908411D01*
X166527932Y-116638158D01*
X166585000Y-116351260D01*
X166585000Y-116058740D01*
X166527932Y-115771842D01*
X166415990Y-115501589D01*
X166253475Y-115258368D01*
X166046632Y-115051525D01*
X165872240Y-114935000D01*
X166046632Y-114818475D01*
X166253475Y-114611632D01*
X166415990Y-114368411D01*
X166527932Y-114098158D01*
X166585000Y-113811260D01*
X166585000Y-113518740D01*
X166527932Y-113231842D01*
X166415990Y-112961589D01*
X166253475Y-112718368D01*
X166046632Y-112511525D01*
X165872240Y-112395000D01*
X166046632Y-112278475D01*
X166253475Y-112071632D01*
X166415990Y-111828411D01*
X166527932Y-111558158D01*
X166585000Y-111271260D01*
X166585000Y-110978740D01*
X166527932Y-110691842D01*
X166415990Y-110421589D01*
X166253475Y-110178368D01*
X166046632Y-109971525D01*
X165872240Y-109855000D01*
X166046632Y-109738475D01*
X166253475Y-109531632D01*
X166415990Y-109288411D01*
X166527932Y-109018158D01*
X166585000Y-108731260D01*
X166585000Y-108438740D01*
X166527932Y-108151842D01*
X166415990Y-107881589D01*
X166253475Y-107638368D01*
X166046632Y-107431525D01*
X165803411Y-107269010D01*
X165533158Y-107157068D01*
X165246260Y-107100000D01*
X164953740Y-107100000D01*
X164666842Y-107157068D01*
X164396589Y-107269010D01*
X164153368Y-107431525D01*
X163946525Y-107638368D01*
X163830000Y-107812760D01*
X163713475Y-107638368D01*
X163506632Y-107431525D01*
X163263411Y-107269010D01*
X162993158Y-107157068D01*
X162706260Y-107100000D01*
X162413740Y-107100000D01*
X162126842Y-107157068D01*
X161856589Y-107269010D01*
X161613368Y-107431525D01*
X161406525Y-107638368D01*
X161290000Y-107812760D01*
X161173475Y-107638368D01*
X160966632Y-107431525D01*
X160723411Y-107269010D01*
X160453158Y-107157068D01*
X160166260Y-107100000D01*
X159873740Y-107100000D01*
X159586842Y-107157068D01*
X159316589Y-107269010D01*
X159073368Y-107431525D01*
X158866525Y-107638368D01*
X158750000Y-107812760D01*
X158633475Y-107638368D01*
X158426632Y-107431525D01*
X158183411Y-107269010D01*
X157913158Y-107157068D01*
X157626260Y-107100000D01*
X157333740Y-107100000D01*
X157046842Y-107157068D01*
X156776589Y-107269010D01*
X156533368Y-107431525D01*
X156326525Y-107638368D01*
X156210000Y-107812760D01*
X156093475Y-107638368D01*
X155886632Y-107431525D01*
X155643411Y-107269010D01*
X155373158Y-107157068D01*
X155086260Y-107100000D01*
X154793740Y-107100000D01*
X154506842Y-107157068D01*
X154236589Y-107269010D01*
X153993368Y-107431525D01*
X153786525Y-107638368D01*
X153670000Y-107812760D01*
X153553475Y-107638368D01*
X153346632Y-107431525D01*
X153103411Y-107269010D01*
X152833158Y-107157068D01*
X152546260Y-107100000D01*
X152253740Y-107100000D01*
X151966842Y-107157068D01*
X151696589Y-107269010D01*
X151453368Y-107431525D01*
X151246525Y-107638368D01*
X151130000Y-107812760D01*
X151013475Y-107638368D01*
X150806632Y-107431525D01*
X150563411Y-107269010D01*
X150293158Y-107157068D01*
X150006260Y-107100000D01*
X149713740Y-107100000D01*
X149426842Y-107157068D01*
X149156589Y-107269010D01*
X148913368Y-107431525D01*
X148706525Y-107638368D01*
X148590000Y-107812760D01*
X148473475Y-107638368D01*
X148266632Y-107431525D01*
X148023411Y-107269010D01*
X147753158Y-107157068D01*
X147466260Y-107100000D01*
X147173740Y-107100000D01*
X146886842Y-107157068D01*
X146616589Y-107269010D01*
X146373368Y-107431525D01*
X146166525Y-107638368D01*
X146050000Y-107812760D01*
X145933475Y-107638368D01*
X145726632Y-107431525D01*
X145483411Y-107269010D01*
X145213158Y-107157068D01*
X144926260Y-107100000D01*
X144633740Y-107100000D01*
X144346842Y-107157068D01*
X144076589Y-107269010D01*
X143833368Y-107431525D01*
X143626525Y-107638368D01*
X143510000Y-107812760D01*
X143393475Y-107638368D01*
X143186632Y-107431525D01*
X142943411Y-107269010D01*
X142673158Y-107157068D01*
X142386260Y-107100000D01*
X142093740Y-107100000D01*
X141806842Y-107157068D01*
X141536589Y-107269010D01*
X141293368Y-107431525D01*
X141086525Y-107638368D01*
X140970000Y-107812760D01*
X140853475Y-107638368D01*
X140646632Y-107431525D01*
X140403411Y-107269010D01*
X140133158Y-107157068D01*
X139846260Y-107100000D01*
X139553740Y-107100000D01*
X139266842Y-107157068D01*
X138996589Y-107269010D01*
X138753368Y-107431525D01*
X138621513Y-107563380D01*
X138599502Y-107490820D01*
X138540537Y-107380506D01*
X138461185Y-107283815D01*
X138364494Y-107204463D01*
X138254180Y-107145498D01*
X138134482Y-107109188D01*
X138010000Y-107096928D01*
X136310000Y-107096928D01*
X136185518Y-107109188D01*
X136065820Y-107145498D01*
X135955506Y-107204463D01*
X135858815Y-107283815D01*
X135779463Y-107380506D01*
X135720498Y-107490820D01*
X135684188Y-107610518D01*
X135671928Y-107735000D01*
X133000655Y-107735000D01*
X133165120Y-107570535D01*
X133318005Y-107341727D01*
X133423314Y-107087490D01*
X133477000Y-106817592D01*
X133477000Y-106542408D01*
X133423314Y-106272510D01*
X133318005Y-106018273D01*
X133165120Y-105789465D01*
X132970535Y-105594880D01*
X132741727Y-105441995D01*
X132664485Y-105410000D01*
X132741727Y-105378005D01*
X132970535Y-105225120D01*
X133165120Y-105030535D01*
X133318005Y-104801727D01*
X133423314Y-104547490D01*
X133477000Y-104277592D01*
X133477000Y-104002408D01*
X133476256Y-103998665D01*
X141440000Y-103998665D01*
X141440000Y-104281335D01*
X141495147Y-104558574D01*
X141603320Y-104819727D01*
X141760363Y-105054759D01*
X141960241Y-105254637D01*
X142195273Y-105411680D01*
X142456426Y-105519853D01*
X142733665Y-105575000D01*
X143016335Y-105575000D01*
X143293574Y-105519853D01*
X143554727Y-105411680D01*
X143789759Y-105254637D01*
X143989637Y-105054759D01*
X144146680Y-104819727D01*
X144254853Y-104558574D01*
X144310000Y-104281335D01*
X144310000Y-103998665D01*
X144254853Y-103721426D01*
X144146680Y-103460273D01*
X143989637Y-103225241D01*
X143849396Y-103085000D01*
X157261928Y-103085000D01*
X157274188Y-103209482D01*
X157310498Y-103329180D01*
X157369463Y-103439494D01*
X157448815Y-103536185D01*
X157545506Y-103615537D01*
X157655820Y-103674502D01*
X157775518Y-103710812D01*
X157900000Y-103723072D01*
X158464250Y-103720000D01*
X158623000Y-103561250D01*
X158623000Y-102362000D01*
X157423750Y-102362000D01*
X157265000Y-102520750D01*
X157261928Y-103085000D01*
X143849396Y-103085000D01*
X143789759Y-103025363D01*
X143554727Y-102868320D01*
X143293574Y-102760147D01*
X143016335Y-102705000D01*
X142733665Y-102705000D01*
X142456426Y-102760147D01*
X142195273Y-102868320D01*
X141960241Y-103025363D01*
X141760363Y-103225241D01*
X141603320Y-103460273D01*
X141495147Y-103721426D01*
X141440000Y-103998665D01*
X133476256Y-103998665D01*
X133446372Y-103848429D01*
X136494801Y-100800000D01*
X147786928Y-100800000D01*
X147786928Y-102400000D01*
X147799188Y-102524482D01*
X147835498Y-102644180D01*
X147894463Y-102754494D01*
X147973815Y-102851185D01*
X148070506Y-102930537D01*
X148180820Y-102989502D01*
X148300518Y-103025812D01*
X148425000Y-103038072D01*
X150025000Y-103038072D01*
X150149482Y-103025812D01*
X150269180Y-102989502D01*
X150379494Y-102930537D01*
X150476185Y-102851185D01*
X150555537Y-102754494D01*
X150614502Y-102644180D01*
X150630117Y-102592702D01*
X151911903Y-102592702D01*
X151983486Y-102836671D01*
X152238996Y-102957571D01*
X152513184Y-103026300D01*
X152795512Y-103040217D01*
X153075130Y-102998787D01*
X153341292Y-102903603D01*
X153466514Y-102836671D01*
X153538097Y-102592702D01*
X152725000Y-101779605D01*
X151911903Y-102592702D01*
X150630117Y-102592702D01*
X150650812Y-102524482D01*
X150663072Y-102400000D01*
X150663072Y-101670512D01*
X151284783Y-101670512D01*
X151326213Y-101950130D01*
X151421397Y-102216292D01*
X151488329Y-102341514D01*
X151732298Y-102413097D01*
X152545395Y-101600000D01*
X152904605Y-101600000D01*
X153717702Y-102413097D01*
X153961671Y-102341514D01*
X154082571Y-102086004D01*
X154151300Y-101811816D01*
X154165217Y-101529488D01*
X154143809Y-101385000D01*
X157261928Y-101385000D01*
X157265000Y-101949250D01*
X157423750Y-102108000D01*
X158623000Y-102108000D01*
X158623000Y-100908750D01*
X158877000Y-100908750D01*
X158877000Y-102108000D01*
X158897000Y-102108000D01*
X158897000Y-102362000D01*
X158877000Y-102362000D01*
X158877000Y-103561250D01*
X159035750Y-103720000D01*
X159600000Y-103723072D01*
X159724482Y-103710812D01*
X159844180Y-103674502D01*
X159954494Y-103615537D01*
X160051185Y-103536185D01*
X160130537Y-103439494D01*
X160189502Y-103329180D01*
X160211513Y-103256620D01*
X160343368Y-103388475D01*
X160586589Y-103550990D01*
X160856842Y-103662932D01*
X161143740Y-103720000D01*
X161436260Y-103720000D01*
X161723158Y-103662932D01*
X161993411Y-103550990D01*
X162236632Y-103388475D01*
X162443475Y-103181632D01*
X162560000Y-103007240D01*
X162676525Y-103181632D01*
X162883368Y-103388475D01*
X163126589Y-103550990D01*
X163396842Y-103662932D01*
X163683740Y-103720000D01*
X163976260Y-103720000D01*
X164263158Y-103662932D01*
X164533411Y-103550990D01*
X164776632Y-103388475D01*
X164983475Y-103181632D01*
X165145990Y-102938411D01*
X165257932Y-102668158D01*
X165315000Y-102381260D01*
X165315000Y-102088740D01*
X165257932Y-101801842D01*
X165145990Y-101531589D01*
X164983475Y-101288368D01*
X164776632Y-101081525D01*
X164533411Y-100919010D01*
X164263158Y-100807068D01*
X163976260Y-100750000D01*
X163683740Y-100750000D01*
X163396842Y-100807068D01*
X163126589Y-100919010D01*
X162883368Y-101081525D01*
X162676525Y-101288368D01*
X162560000Y-101462760D01*
X162443475Y-101288368D01*
X162236632Y-101081525D01*
X161993411Y-100919010D01*
X161723158Y-100807068D01*
X161436260Y-100750000D01*
X161143740Y-100750000D01*
X160856842Y-100807068D01*
X160586589Y-100919010D01*
X160343368Y-101081525D01*
X160211513Y-101213380D01*
X160189502Y-101140820D01*
X160130537Y-101030506D01*
X160051185Y-100933815D01*
X159954494Y-100854463D01*
X159844180Y-100795498D01*
X159724482Y-100759188D01*
X159600000Y-100746928D01*
X159035750Y-100750000D01*
X158877000Y-100908750D01*
X158623000Y-100908750D01*
X158464250Y-100750000D01*
X157900000Y-100746928D01*
X157775518Y-100759188D01*
X157655820Y-100795498D01*
X157545506Y-100854463D01*
X157448815Y-100933815D01*
X157369463Y-101030506D01*
X157310498Y-101140820D01*
X157274188Y-101260518D01*
X157261928Y-101385000D01*
X154143809Y-101385000D01*
X154123787Y-101249870D01*
X154028603Y-100983708D01*
X153961671Y-100858486D01*
X153717702Y-100786903D01*
X152904605Y-101600000D01*
X152545395Y-101600000D01*
X151732298Y-100786903D01*
X151488329Y-100858486D01*
X151367429Y-101113996D01*
X151298700Y-101388184D01*
X151284783Y-101670512D01*
X150663072Y-101670512D01*
X150663072Y-100800000D01*
X150650812Y-100675518D01*
X150630118Y-100607298D01*
X151911903Y-100607298D01*
X152725000Y-101420395D01*
X153538097Y-100607298D01*
X153466514Y-100363329D01*
X153211004Y-100242429D01*
X152936816Y-100173700D01*
X152654488Y-100159783D01*
X152374870Y-100201213D01*
X152108708Y-100296397D01*
X151983486Y-100363329D01*
X151911903Y-100607298D01*
X150630118Y-100607298D01*
X150614502Y-100555820D01*
X150555537Y-100445506D01*
X150476185Y-100348815D01*
X150379494Y-100269463D01*
X150269180Y-100210498D01*
X150149482Y-100174188D01*
X150025000Y-100161928D01*
X148425000Y-100161928D01*
X148300518Y-100174188D01*
X148180820Y-100210498D01*
X148070506Y-100269463D01*
X147973815Y-100348815D01*
X147894463Y-100445506D01*
X147835498Y-100555820D01*
X147799188Y-100675518D01*
X147786928Y-100800000D01*
X136494801Y-100800000D01*
X137716730Y-99578072D01*
X138045000Y-99578072D01*
X138069450Y-99575664D01*
X138094009Y-99575664D01*
X138218490Y-99563404D01*
X138314623Y-99544282D01*
X138434319Y-99507973D01*
X138524875Y-99470464D01*
X138635192Y-99411498D01*
X138716691Y-99357042D01*
X138813382Y-99277690D01*
X138882690Y-99208382D01*
X138962042Y-99111691D01*
X139010504Y-99039163D01*
X139082593Y-98980001D01*
X139106396Y-98950997D01*
X139162393Y-98895000D01*
X170011928Y-98895000D01*
X170011928Y-100495000D01*
X170024188Y-100619482D01*
X170060498Y-100739180D01*
X170119463Y-100849494D01*
X170198815Y-100946185D01*
X170295506Y-101025537D01*
X170405820Y-101084502D01*
X170525518Y-101120812D01*
X170650000Y-101133072D01*
X172250000Y-101133072D01*
X172374482Y-101120812D01*
X172494180Y-101084502D01*
X172604494Y-101025537D01*
X172701185Y-100946185D01*
X172780537Y-100849494D01*
X172839502Y-100739180D01*
X172875812Y-100619482D01*
X172888072Y-100495000D01*
X172888072Y-98895000D01*
X172875812Y-98770518D01*
X172839502Y-98650820D01*
X172780537Y-98540506D01*
X172701185Y-98443815D01*
X172604494Y-98364463D01*
X172494180Y-98305498D01*
X172374482Y-98269188D01*
X172250000Y-98256928D01*
X172242785Y-98256928D01*
X172263097Y-98187702D01*
X171450000Y-97374605D01*
X170636903Y-98187702D01*
X170657215Y-98256928D01*
X170650000Y-98256928D01*
X170525518Y-98269188D01*
X170405820Y-98305498D01*
X170295506Y-98364463D01*
X170198815Y-98443815D01*
X170119463Y-98540506D01*
X170060498Y-98650820D01*
X170024188Y-98770518D01*
X170011928Y-98895000D01*
X139162393Y-98895000D01*
X141639332Y-96418061D01*
X148190000Y-96418061D01*
X148190000Y-96621939D01*
X148229774Y-96821898D01*
X148307795Y-97010256D01*
X148421063Y-97179774D01*
X148565226Y-97323937D01*
X148734744Y-97437205D01*
X148923102Y-97515226D01*
X149123061Y-97555000D01*
X149326939Y-97555000D01*
X149526898Y-97515226D01*
X149715256Y-97437205D01*
X149884774Y-97323937D01*
X149928711Y-97280000D01*
X161507676Y-97280000D01*
X161544998Y-97283676D01*
X161582320Y-97280000D01*
X161582331Y-97280000D01*
X161693984Y-97269003D01*
X161705492Y-97265512D01*
X170009783Y-97265512D01*
X170051213Y-97545130D01*
X170146397Y-97811292D01*
X170213329Y-97936514D01*
X170457298Y-98008097D01*
X171270395Y-97195000D01*
X171629605Y-97195000D01*
X172442702Y-98008097D01*
X172686671Y-97936514D01*
X172807571Y-97681004D01*
X172876300Y-97406816D01*
X172890217Y-97124488D01*
X172848787Y-96844870D01*
X172753603Y-96578708D01*
X172686671Y-96453486D01*
X172442702Y-96381903D01*
X171629605Y-97195000D01*
X171270395Y-97195000D01*
X170457298Y-96381903D01*
X170213329Y-96453486D01*
X170092429Y-96708996D01*
X170023700Y-96983184D01*
X170009783Y-97265512D01*
X161705492Y-97265512D01*
X161837245Y-97225546D01*
X161969274Y-97154974D01*
X162084999Y-97060001D01*
X162108802Y-97030997D01*
X162937501Y-96202298D01*
X170636903Y-96202298D01*
X171450000Y-97015395D01*
X172263097Y-96202298D01*
X172191514Y-95958329D01*
X171936004Y-95837429D01*
X171661816Y-95768700D01*
X171379488Y-95754783D01*
X171099870Y-95796213D01*
X170833708Y-95891397D01*
X170708486Y-95958329D01*
X170636903Y-96202298D01*
X162937501Y-96202298D01*
X164397798Y-94742002D01*
X164408748Y-94742002D01*
X164250000Y-94900750D01*
X164246928Y-95465000D01*
X164259188Y-95589482D01*
X164295498Y-95709180D01*
X164354463Y-95819494D01*
X164433815Y-95916185D01*
X164530506Y-95995537D01*
X164640820Y-96054502D01*
X164760518Y-96090812D01*
X164885000Y-96103072D01*
X165449250Y-96100000D01*
X165608000Y-95941250D01*
X165608000Y-94742000D01*
X165862000Y-94742000D01*
X165862000Y-95941250D01*
X166020750Y-96100000D01*
X166585000Y-96103072D01*
X166709482Y-96090812D01*
X166829180Y-96054502D01*
X166939494Y-95995537D01*
X167036185Y-95916185D01*
X167115537Y-95819494D01*
X167174502Y-95709180D01*
X167210812Y-95589482D01*
X167223072Y-95465000D01*
X167220000Y-94900750D01*
X167061250Y-94742000D01*
X165862000Y-94742000D01*
X165608000Y-94742000D01*
X165588000Y-94742000D01*
X165588000Y-94488000D01*
X165608000Y-94488000D01*
X165608000Y-94468000D01*
X165862000Y-94468000D01*
X165862000Y-94488000D01*
X167061250Y-94488000D01*
X167220000Y-94329250D01*
X167223072Y-93765000D01*
X167210812Y-93640518D01*
X167174502Y-93520820D01*
X167115537Y-93410506D01*
X167036185Y-93313815D01*
X166939494Y-93234463D01*
X166829180Y-93175498D01*
X166756620Y-93153487D01*
X166888475Y-93021632D01*
X167050990Y-92778411D01*
X167162932Y-92508158D01*
X167220000Y-92221260D01*
X167220000Y-91928740D01*
X167162932Y-91641842D01*
X167050990Y-91371589D01*
X166888475Y-91128368D01*
X166681632Y-90921525D01*
X166507240Y-90805000D01*
X166681632Y-90688475D01*
X166888475Y-90481632D01*
X167050990Y-90238411D01*
X167162932Y-89968158D01*
X167220000Y-89681260D01*
X167220000Y-89388740D01*
X167162932Y-89101842D01*
X167050990Y-88831589D01*
X166888475Y-88588368D01*
X166681632Y-88381525D01*
X166507240Y-88265000D01*
X166681632Y-88148475D01*
X166888475Y-87941632D01*
X167050990Y-87698411D01*
X167162932Y-87428158D01*
X167220000Y-87141260D01*
X167220000Y-86848740D01*
X167162932Y-86561842D01*
X167050990Y-86291589D01*
X166888475Y-86048368D01*
X166681632Y-85841525D01*
X166507240Y-85725000D01*
X166681632Y-85608475D01*
X166888475Y-85401632D01*
X167050990Y-85158411D01*
X167162932Y-84888158D01*
X167220000Y-84601260D01*
X167220000Y-84308740D01*
X167162932Y-84021842D01*
X167050990Y-83751589D01*
X166888475Y-83508368D01*
X166681632Y-83301525D01*
X166507240Y-83185000D01*
X166681632Y-83068475D01*
X166888475Y-82861632D01*
X167050990Y-82618411D01*
X167162932Y-82348158D01*
X167220000Y-82061260D01*
X167220000Y-81768740D01*
X167162932Y-81481842D01*
X167050990Y-81211589D01*
X166953043Y-81065000D01*
X169961928Y-81065000D01*
X169961928Y-82765000D01*
X169974188Y-82889482D01*
X170010498Y-83009180D01*
X170069463Y-83119494D01*
X170148815Y-83216185D01*
X170245506Y-83295537D01*
X170355820Y-83354502D01*
X170428380Y-83376513D01*
X170296525Y-83508368D01*
X170134010Y-83751589D01*
X170022068Y-84021842D01*
X169965000Y-84308740D01*
X169965000Y-84601260D01*
X170022068Y-84888158D01*
X170134010Y-85158411D01*
X170296525Y-85401632D01*
X170503368Y-85608475D01*
X170677760Y-85725000D01*
X170503368Y-85841525D01*
X170296525Y-86048368D01*
X170134010Y-86291589D01*
X170022068Y-86561842D01*
X169965000Y-86848740D01*
X169965000Y-87141260D01*
X170022068Y-87428158D01*
X170134010Y-87698411D01*
X170296525Y-87941632D01*
X170503368Y-88148475D01*
X170677760Y-88265000D01*
X170503368Y-88381525D01*
X170296525Y-88588368D01*
X170134010Y-88831589D01*
X170022068Y-89101842D01*
X169965000Y-89388740D01*
X169965000Y-89681260D01*
X170022068Y-89968158D01*
X170134010Y-90238411D01*
X170296525Y-90481632D01*
X170503368Y-90688475D01*
X170746589Y-90850990D01*
X171016842Y-90962932D01*
X171303740Y-91020000D01*
X171596260Y-91020000D01*
X171883158Y-90962932D01*
X172153411Y-90850990D01*
X172396632Y-90688475D01*
X172603475Y-90481632D01*
X172765990Y-90238411D01*
X172877932Y-89968158D01*
X172935000Y-89681260D01*
X172935000Y-89388740D01*
X172877932Y-89101842D01*
X172765990Y-88831589D01*
X172603475Y-88588368D01*
X172396632Y-88381525D01*
X172222240Y-88265000D01*
X172396632Y-88148475D01*
X172603475Y-87941632D01*
X172765990Y-87698411D01*
X172877932Y-87428158D01*
X172935000Y-87141260D01*
X172935000Y-86848740D01*
X172877932Y-86561842D01*
X172765990Y-86291589D01*
X172603475Y-86048368D01*
X172396632Y-85841525D01*
X172222240Y-85725000D01*
X172396632Y-85608475D01*
X172603475Y-85401632D01*
X172765990Y-85158411D01*
X172877932Y-84888158D01*
X172935000Y-84601260D01*
X172935000Y-84308740D01*
X172877932Y-84021842D01*
X172765990Y-83751589D01*
X172603475Y-83508368D01*
X172471620Y-83376513D01*
X172544180Y-83354502D01*
X172654494Y-83295537D01*
X172751185Y-83216185D01*
X172830537Y-83119494D01*
X172889502Y-83009180D01*
X172925812Y-82889482D01*
X172938072Y-82765000D01*
X172938072Y-81065000D01*
X172925812Y-80940518D01*
X172889502Y-80820820D01*
X172830537Y-80710506D01*
X172751185Y-80613815D01*
X172654494Y-80534463D01*
X172544180Y-80475498D01*
X172424482Y-80439188D01*
X172300000Y-80426928D01*
X170600000Y-80426928D01*
X170475518Y-80439188D01*
X170355820Y-80475498D01*
X170245506Y-80534463D01*
X170148815Y-80613815D01*
X170069463Y-80710506D01*
X170010498Y-80820820D01*
X169974188Y-80940518D01*
X169961928Y-81065000D01*
X166953043Y-81065000D01*
X166888475Y-80968368D01*
X166681632Y-80761525D01*
X166499466Y-80639805D01*
X166616355Y-80570178D01*
X166832588Y-80375269D01*
X167006641Y-80141920D01*
X167131825Y-79879099D01*
X167176476Y-79731890D01*
X167055155Y-79502000D01*
X165862000Y-79502000D01*
X165862000Y-79522000D01*
X165608000Y-79522000D01*
X165608000Y-79502000D01*
X164414845Y-79502000D01*
X164293524Y-79731890D01*
X164338175Y-79879099D01*
X164463359Y-80141920D01*
X164637412Y-80375269D01*
X164853645Y-80570178D01*
X164970534Y-80639805D01*
X164788368Y-80761525D01*
X164581525Y-80968368D01*
X164419010Y-81211589D01*
X164307068Y-81481842D01*
X164250000Y-81768740D01*
X164250000Y-82061260D01*
X164307068Y-82348158D01*
X164419010Y-82618411D01*
X164581525Y-82861632D01*
X164788368Y-83068475D01*
X164962760Y-83185000D01*
X164788368Y-83301525D01*
X164581525Y-83508368D01*
X164419010Y-83751589D01*
X164307068Y-84021842D01*
X164250000Y-84308740D01*
X164250000Y-84601260D01*
X164307068Y-84888158D01*
X164419010Y-85158411D01*
X164581525Y-85401632D01*
X164788368Y-85608475D01*
X164962760Y-85725000D01*
X164788368Y-85841525D01*
X164581525Y-86048368D01*
X164419010Y-86291589D01*
X164307068Y-86561842D01*
X164250000Y-86848740D01*
X164250000Y-87141260D01*
X164307068Y-87428158D01*
X164419010Y-87698411D01*
X164581525Y-87941632D01*
X164788368Y-88148475D01*
X164962760Y-88265000D01*
X164788368Y-88381525D01*
X164581525Y-88588368D01*
X164419010Y-88831589D01*
X164307068Y-89101842D01*
X164250000Y-89388740D01*
X164250000Y-89681260D01*
X164307068Y-89968158D01*
X164419010Y-90238411D01*
X164581525Y-90481632D01*
X164788368Y-90688475D01*
X164962760Y-90805000D01*
X164788368Y-90921525D01*
X164581525Y-91128368D01*
X164419010Y-91371589D01*
X164307068Y-91641842D01*
X164250000Y-91928740D01*
X164250000Y-92221260D01*
X164307068Y-92508158D01*
X164358315Y-92631881D01*
X161230197Y-95760000D01*
X154447338Y-95760000D01*
X154474502Y-95709180D01*
X154510812Y-95589482D01*
X154523072Y-95465000D01*
X154523072Y-93765000D01*
X154510812Y-93640518D01*
X154474502Y-93520820D01*
X154415537Y-93410506D01*
X154336185Y-93313815D01*
X154239494Y-93234463D01*
X154129180Y-93175498D01*
X154056620Y-93153487D01*
X154188475Y-93021632D01*
X154350990Y-92778411D01*
X154462932Y-92508158D01*
X154520000Y-92221260D01*
X154520000Y-91928740D01*
X154462932Y-91641842D01*
X154350990Y-91371589D01*
X154188475Y-91128368D01*
X153981632Y-90921525D01*
X153807240Y-90805000D01*
X153981632Y-90688475D01*
X154188475Y-90481632D01*
X154350990Y-90238411D01*
X154462932Y-89968158D01*
X154520000Y-89681260D01*
X154520000Y-89388740D01*
X154462932Y-89101842D01*
X154350990Y-88831589D01*
X154188475Y-88588368D01*
X153981632Y-88381525D01*
X153807240Y-88265000D01*
X153981632Y-88148475D01*
X154188475Y-87941632D01*
X154350990Y-87698411D01*
X154462932Y-87428158D01*
X154520000Y-87141260D01*
X154520000Y-86848740D01*
X154462932Y-86561842D01*
X154350990Y-86291589D01*
X154188475Y-86048368D01*
X153981632Y-85841525D01*
X153807240Y-85725000D01*
X153981632Y-85608475D01*
X154188475Y-85401632D01*
X154350990Y-85158411D01*
X154462932Y-84888158D01*
X154520000Y-84601260D01*
X154520000Y-84308740D01*
X154462932Y-84021842D01*
X154350990Y-83751589D01*
X154188475Y-83508368D01*
X153981632Y-83301525D01*
X153807240Y-83185000D01*
X153981632Y-83068475D01*
X154188475Y-82861632D01*
X154350990Y-82618411D01*
X154462932Y-82348158D01*
X154520000Y-82061260D01*
X154520000Y-81768740D01*
X154462932Y-81481842D01*
X154350990Y-81211589D01*
X154188475Y-80968368D01*
X153981632Y-80761525D01*
X153807240Y-80645000D01*
X153981632Y-80528475D01*
X154188475Y-80321632D01*
X154350990Y-80078411D01*
X154462932Y-79808158D01*
X154520000Y-79521260D01*
X154520000Y-79228740D01*
X154462932Y-78941842D01*
X154350990Y-78671589D01*
X154188475Y-78428368D01*
X153981632Y-78221525D01*
X153807240Y-78105000D01*
X153981632Y-77988475D01*
X154188475Y-77781632D01*
X154305000Y-77607240D01*
X154421525Y-77781632D01*
X154628368Y-77988475D01*
X154871589Y-78150990D01*
X155141842Y-78262932D01*
X155428740Y-78320000D01*
X155721260Y-78320000D01*
X156008158Y-78262932D01*
X156278411Y-78150990D01*
X156521632Y-77988475D01*
X156728475Y-77781632D01*
X156845000Y-77607240D01*
X156961525Y-77781632D01*
X157168368Y-77988475D01*
X157411589Y-78150990D01*
X157681842Y-78262932D01*
X157968740Y-78320000D01*
X158261260Y-78320000D01*
X158548158Y-78262932D01*
X158818411Y-78150990D01*
X159061632Y-77988475D01*
X159268475Y-77781632D01*
X159430990Y-77538411D01*
X159542932Y-77268158D01*
X159600000Y-76981260D01*
X159600000Y-76688740D01*
X164250000Y-76688740D01*
X164250000Y-76981260D01*
X164307068Y-77268158D01*
X164419010Y-77538411D01*
X164581525Y-77781632D01*
X164788368Y-77988475D01*
X164970534Y-78110195D01*
X164853645Y-78179822D01*
X164637412Y-78374731D01*
X164463359Y-78608080D01*
X164338175Y-78870901D01*
X164293524Y-79018110D01*
X164414845Y-79248000D01*
X165608000Y-79248000D01*
X165608000Y-79228000D01*
X165862000Y-79228000D01*
X165862000Y-79248000D01*
X167055155Y-79248000D01*
X167176476Y-79018110D01*
X167131825Y-78870901D01*
X167006641Y-78608080D01*
X166832588Y-78374731D01*
X166616355Y-78179822D01*
X166499466Y-78110195D01*
X166681632Y-77988475D01*
X166888475Y-77781632D01*
X167050990Y-77538411D01*
X167162932Y-77268158D01*
X167220000Y-76981260D01*
X167220000Y-76688740D01*
X167162932Y-76401842D01*
X167050990Y-76131589D01*
X166888475Y-75888368D01*
X166681632Y-75681525D01*
X166438411Y-75519010D01*
X166168158Y-75407068D01*
X165881260Y-75350000D01*
X165588740Y-75350000D01*
X165301842Y-75407068D01*
X165031589Y-75519010D01*
X164788368Y-75681525D01*
X164581525Y-75888368D01*
X164419010Y-76131589D01*
X164307068Y-76401842D01*
X164250000Y-76688740D01*
X159600000Y-76688740D01*
X159542932Y-76401842D01*
X159430990Y-76131589D01*
X159268475Y-75888368D01*
X159061632Y-75681525D01*
X158818411Y-75519010D01*
X158548158Y-75407068D01*
X158261260Y-75350000D01*
X157968740Y-75350000D01*
X157681842Y-75407068D01*
X157411589Y-75519010D01*
X157168368Y-75681525D01*
X156961525Y-75888368D01*
X156845000Y-76062760D01*
X156728475Y-75888368D01*
X156521632Y-75681525D01*
X156278411Y-75519010D01*
X156008158Y-75407068D01*
X155721260Y-75350000D01*
X155428740Y-75350000D01*
X155141842Y-75407068D01*
X154871589Y-75519010D01*
X154628368Y-75681525D01*
X154421525Y-75888368D01*
X154305000Y-76062760D01*
X154188475Y-75888368D01*
X153981632Y-75681525D01*
X153738411Y-75519010D01*
X153468158Y-75407068D01*
X153181260Y-75350000D01*
X152888740Y-75350000D01*
X152601842Y-75407068D01*
X152331589Y-75519010D01*
X152088368Y-75681525D01*
X151881525Y-75888368D01*
X151719010Y-76131589D01*
X151607068Y-76401842D01*
X151550000Y-76688740D01*
X151550000Y-76981260D01*
X151607068Y-77268158D01*
X151719010Y-77538411D01*
X151881525Y-77781632D01*
X152088368Y-77988475D01*
X152262760Y-78105000D01*
X152088368Y-78221525D01*
X151881525Y-78428368D01*
X151719010Y-78671589D01*
X151607068Y-78941842D01*
X151550000Y-79228740D01*
X151550000Y-79521260D01*
X151607068Y-79808158D01*
X151719010Y-80078411D01*
X151881525Y-80321632D01*
X152088368Y-80528475D01*
X152262760Y-80645000D01*
X152088368Y-80761525D01*
X151881525Y-80968368D01*
X151719010Y-81211589D01*
X151607068Y-81481842D01*
X151550000Y-81768740D01*
X151550000Y-82061260D01*
X151607068Y-82348158D01*
X151719010Y-82618411D01*
X151881525Y-82861632D01*
X152088368Y-83068475D01*
X152262760Y-83185000D01*
X152088368Y-83301525D01*
X151881525Y-83508368D01*
X151719010Y-83751589D01*
X151607068Y-84021842D01*
X151550000Y-84308740D01*
X151550000Y-84601260D01*
X151607068Y-84888158D01*
X151719010Y-85158411D01*
X151881525Y-85401632D01*
X152088368Y-85608475D01*
X152262760Y-85725000D01*
X152088368Y-85841525D01*
X151881525Y-86048368D01*
X151719010Y-86291589D01*
X151607068Y-86561842D01*
X151550000Y-86848740D01*
X151550000Y-87141260D01*
X151607068Y-87428158D01*
X151719010Y-87698411D01*
X151881525Y-87941632D01*
X152088368Y-88148475D01*
X152262760Y-88265000D01*
X152088368Y-88381525D01*
X151881525Y-88588368D01*
X151719010Y-88831589D01*
X151607068Y-89101842D01*
X151550000Y-89388740D01*
X151550000Y-89681260D01*
X151607068Y-89968158D01*
X151719010Y-90238411D01*
X151881525Y-90481632D01*
X152088368Y-90688475D01*
X152262760Y-90805000D01*
X152088368Y-90921525D01*
X151881525Y-91128368D01*
X151719010Y-91371589D01*
X151607068Y-91641842D01*
X151550000Y-91928740D01*
X151550000Y-92221260D01*
X151607068Y-92508158D01*
X151719010Y-92778411D01*
X151881525Y-93021632D01*
X152013380Y-93153487D01*
X151940820Y-93175498D01*
X151830506Y-93234463D01*
X151733815Y-93313815D01*
X151654463Y-93410506D01*
X151595498Y-93520820D01*
X151559188Y-93640518D01*
X151546928Y-93765000D01*
X151546928Y-95465000D01*
X151559188Y-95589482D01*
X151595498Y-95709180D01*
X151622662Y-95760000D01*
X149928711Y-95760000D01*
X149884774Y-95716063D01*
X149715256Y-95602795D01*
X149526898Y-95524774D01*
X149326939Y-95485000D01*
X149123061Y-95485000D01*
X148923102Y-95524774D01*
X148734744Y-95602795D01*
X148565226Y-95716063D01*
X148421063Y-95860226D01*
X148307795Y-96029744D01*
X148229774Y-96218102D01*
X148190000Y-96418061D01*
X141639332Y-96418061D01*
X144561005Y-93496389D01*
X144590002Y-93472592D01*
X144684975Y-93356867D01*
X144755547Y-93224838D01*
X144799004Y-93081577D01*
X144810001Y-92969924D01*
X144810001Y-92969923D01*
X144813678Y-92932591D01*
X144810001Y-92895258D01*
X144810001Y-88483072D01*
X146265000Y-88483072D01*
X146389482Y-88470812D01*
X146509180Y-88434502D01*
X146619494Y-88375537D01*
X146716185Y-88296185D01*
X146795537Y-88199494D01*
X146854502Y-88089180D01*
X146890812Y-87969482D01*
X146903072Y-87845000D01*
X146903072Y-86145000D01*
X146890812Y-86020518D01*
X146854502Y-85900820D01*
X146795537Y-85790506D01*
X146716185Y-85693815D01*
X146619494Y-85614463D01*
X146509180Y-85555498D01*
X146436620Y-85533487D01*
X146568475Y-85401632D01*
X146730990Y-85158411D01*
X146842932Y-84888158D01*
X146900000Y-84601260D01*
X146900000Y-84308740D01*
X146842932Y-84021842D01*
X146730990Y-83751589D01*
X146568475Y-83508368D01*
X146361632Y-83301525D01*
X146118411Y-83139010D01*
X145848158Y-83027068D01*
X145561260Y-82970000D01*
X145268740Y-82970000D01*
X144981842Y-83027068D01*
X144711589Y-83139010D01*
X144468368Y-83301525D01*
X144336513Y-83433380D01*
X144314502Y-83360820D01*
X144255537Y-83250506D01*
X144176185Y-83153815D01*
X144079494Y-83074463D01*
X143969180Y-83015498D01*
X143849482Y-82979188D01*
X143725000Y-82966928D01*
X142025000Y-82966928D01*
X141900518Y-82979188D01*
X141780820Y-83015498D01*
X141670506Y-83074463D01*
X141573815Y-83153815D01*
X141494463Y-83250506D01*
X141435498Y-83360820D01*
X141399188Y-83480518D01*
X141386928Y-83605000D01*
X141386928Y-85305000D01*
X141399188Y-85429482D01*
X141435498Y-85549180D01*
X141494463Y-85659494D01*
X141573815Y-85756185D01*
X141670506Y-85835537D01*
X141780820Y-85894502D01*
X141853380Y-85916513D01*
X141721525Y-86048368D01*
X141559010Y-86291589D01*
X141447068Y-86561842D01*
X141390000Y-86848740D01*
X141390000Y-87141260D01*
X141447068Y-87428158D01*
X141559010Y-87698411D01*
X141721525Y-87941632D01*
X141928368Y-88148475D01*
X142171589Y-88310990D01*
X142441842Y-88422932D01*
X142728740Y-88480000D01*
X143021260Y-88480000D01*
X143290002Y-88426544D01*
X143290001Y-90059436D01*
X143016335Y-90005000D01*
X142733665Y-90005000D01*
X142456426Y-90060147D01*
X142195273Y-90168320D01*
X141960241Y-90325363D01*
X141760363Y-90525241D01*
X141603320Y-90760273D01*
X141495147Y-91021426D01*
X141440000Y-91298665D01*
X141440000Y-91581335D01*
X141476312Y-91763886D01*
X137283998Y-95956201D01*
X137255000Y-95979999D01*
X137231202Y-96008997D01*
X137231201Y-96008998D01*
X137187360Y-96062417D01*
X137155681Y-96072027D01*
X137065125Y-96109536D01*
X136954808Y-96168502D01*
X136873309Y-96222958D01*
X136776618Y-96302310D01*
X136707310Y-96371618D01*
X136627958Y-96468309D01*
X136573502Y-96549808D01*
X136514536Y-96660125D01*
X136477027Y-96750681D01*
X136440718Y-96870377D01*
X136421596Y-96966510D01*
X136409336Y-97090991D01*
X136409336Y-97115550D01*
X136406928Y-97140000D01*
X136406928Y-97640000D01*
X136419188Y-97764482D01*
X136426929Y-97790000D01*
X136419188Y-97815518D01*
X136406928Y-97940000D01*
X136406928Y-98440000D01*
X136409336Y-98464450D01*
X136409336Y-98489009D01*
X136421596Y-98613490D01*
X136439865Y-98705333D01*
X133477000Y-101668199D01*
X133477000Y-101462408D01*
X133423314Y-101192510D01*
X133318005Y-100938273D01*
X133165120Y-100709465D01*
X132970535Y-100514880D01*
X132741727Y-100361995D01*
X132664485Y-100330000D01*
X132741727Y-100298005D01*
X132970535Y-100145120D01*
X133165120Y-99950535D01*
X133318005Y-99721727D01*
X133423314Y-99467490D01*
X133477000Y-99197592D01*
X133477000Y-98922408D01*
X133423314Y-98652510D01*
X133318005Y-98398273D01*
X133165120Y-98169465D01*
X132970535Y-97974880D01*
X132741727Y-97821995D01*
X132670057Y-97792308D01*
X132683023Y-97787636D01*
X132798980Y-97725656D01*
X132865960Y-97485565D01*
X132080000Y-96699605D01*
X131294040Y-97485565D01*
X131361020Y-97725656D01*
X131496760Y-97789485D01*
X131418273Y-97821995D01*
X131189465Y-97974880D01*
X130994880Y-98169465D01*
X130841995Y-98398273D01*
X130736686Y-98652510D01*
X130683000Y-98922408D01*
X128212393Y-98922408D01*
X130684745Y-96450056D01*
X130678090Y-96592017D01*
X130719078Y-96864133D01*
X130812364Y-97123023D01*
X130874344Y-97238980D01*
X131114435Y-97305960D01*
X131900395Y-96520000D01*
X132259605Y-96520000D01*
X133045565Y-97305960D01*
X133285656Y-97238980D01*
X133402756Y-96989952D01*
X133469023Y-96722865D01*
X133481910Y-96447983D01*
X133440922Y-96175867D01*
X133347636Y-95916977D01*
X133285656Y-95801020D01*
X133045565Y-95734040D01*
X132259605Y-96520000D01*
X131900395Y-96520000D01*
X131886253Y-96505858D01*
X132065858Y-96326253D01*
X132080000Y-96340395D01*
X132865960Y-95554435D01*
X132798980Y-95314344D01*
X132663240Y-95250515D01*
X132741727Y-95218005D01*
X132970535Y-95065120D01*
X133165120Y-94870535D01*
X133318005Y-94641727D01*
X133423314Y-94387490D01*
X133477000Y-94117592D01*
X133477000Y-93842408D01*
X133423314Y-93572510D01*
X133318005Y-93318273D01*
X133165120Y-93089465D01*
X132970535Y-92894880D01*
X132741727Y-92741995D01*
X132664485Y-92710000D01*
X132741727Y-92678005D01*
X132970535Y-92525120D01*
X133165120Y-92330535D01*
X133318005Y-92101727D01*
X133423314Y-91847490D01*
X133477000Y-91577592D01*
X133477000Y-91302408D01*
X133423314Y-91032510D01*
X133318005Y-90778273D01*
X133192205Y-90590000D01*
X135036928Y-90590000D01*
X135036928Y-92290000D01*
X135049188Y-92414482D01*
X135085498Y-92534180D01*
X135144463Y-92644494D01*
X135223815Y-92741185D01*
X135320506Y-92820537D01*
X135430820Y-92879502D01*
X135550518Y-92915812D01*
X135675000Y-92928072D01*
X137375000Y-92928072D01*
X137499482Y-92915812D01*
X137619180Y-92879502D01*
X137729494Y-92820537D01*
X137826185Y-92741185D01*
X137905537Y-92644494D01*
X137964502Y-92534180D01*
X138000812Y-92414482D01*
X138013072Y-92290000D01*
X138013072Y-90590000D01*
X138000812Y-90465518D01*
X137964502Y-90345820D01*
X137905537Y-90235506D01*
X137826185Y-90138815D01*
X137729494Y-90059463D01*
X137619180Y-90000498D01*
X137499482Y-89964188D01*
X137375000Y-89951928D01*
X135675000Y-89951928D01*
X135550518Y-89964188D01*
X135430820Y-90000498D01*
X135320506Y-90059463D01*
X135223815Y-90138815D01*
X135144463Y-90235506D01*
X135085498Y-90345820D01*
X135049188Y-90465518D01*
X135036928Y-90590000D01*
X133192205Y-90590000D01*
X133165120Y-90549465D01*
X132970535Y-90354880D01*
X132741727Y-90201995D01*
X132664485Y-90170000D01*
X132741727Y-90138005D01*
X132970535Y-89985120D01*
X133165120Y-89790535D01*
X133318005Y-89561727D01*
X133423314Y-89307490D01*
X133477000Y-89037592D01*
X133477000Y-88762408D01*
X133423314Y-88492510D01*
X133318005Y-88238273D01*
X133165120Y-88009465D01*
X132970535Y-87814880D01*
X132741727Y-87661995D01*
X132664485Y-87630000D01*
X132741727Y-87598005D01*
X132970535Y-87445120D01*
X133165120Y-87250535D01*
X133318005Y-87021727D01*
X133423314Y-86767490D01*
X133477000Y-86497592D01*
X133477000Y-86222408D01*
X133423314Y-85952510D01*
X133318005Y-85698273D01*
X133165120Y-85469465D01*
X132970535Y-85274880D01*
X132741727Y-85121995D01*
X132664485Y-85090000D01*
X132741727Y-85058005D01*
X132970535Y-84905120D01*
X133165120Y-84710535D01*
X133318005Y-84481727D01*
X133423314Y-84227490D01*
X133477000Y-83957592D01*
X133477000Y-83682408D01*
X133423314Y-83412510D01*
X133318005Y-83158273D01*
X133165120Y-82929465D01*
X132970535Y-82734880D01*
X132741727Y-82581995D01*
X132664485Y-82550000D01*
X132741727Y-82518005D01*
X132970535Y-82365120D01*
X133165120Y-82170535D01*
X133318005Y-81941727D01*
X133423314Y-81687490D01*
X133477000Y-81417592D01*
X133477000Y-81142408D01*
X133423314Y-80872510D01*
X133318005Y-80618273D01*
X133165120Y-80389465D01*
X132970535Y-80194880D01*
X132741727Y-80041995D01*
X132487490Y-79936686D01*
X132217592Y-79883000D01*
X131942408Y-79883000D01*
X131672510Y-79936686D01*
X131418273Y-80041995D01*
X131189465Y-80194880D01*
X130994880Y-80389465D01*
X130841995Y-80618273D01*
X130736686Y-80872510D01*
X130683000Y-81142408D01*
X130683000Y-81417592D01*
X130736686Y-81687490D01*
X130841995Y-81941727D01*
X130994880Y-82170535D01*
X131189465Y-82365120D01*
X131418273Y-82518005D01*
X131495515Y-82550000D01*
X131418273Y-82581995D01*
X131189465Y-82734880D01*
X130994880Y-82929465D01*
X130841995Y-83158273D01*
X130736686Y-83412510D01*
X130683000Y-83682408D01*
X130683000Y-83957592D01*
X130736686Y-84227490D01*
X130841995Y-84481727D01*
X130994880Y-84710535D01*
X131189465Y-84905120D01*
X131418273Y-85058005D01*
X131495515Y-85090000D01*
X131418273Y-85121995D01*
X131189465Y-85274880D01*
X130994880Y-85469465D01*
X130841995Y-85698273D01*
X130736686Y-85952510D01*
X130683000Y-86222408D01*
X130683000Y-86497592D01*
X130736686Y-86767490D01*
X130841995Y-87021727D01*
X130994880Y-87250535D01*
X131189465Y-87445120D01*
X131418273Y-87598005D01*
X131495515Y-87630000D01*
X131418273Y-87661995D01*
X131189465Y-87814880D01*
X130994880Y-88009465D01*
X130841995Y-88238273D01*
X130736686Y-88492510D01*
X130683000Y-88762408D01*
X130683000Y-89037592D01*
X130736686Y-89307490D01*
X130841995Y-89561727D01*
X130994880Y-89790535D01*
X131189465Y-89985120D01*
X131418273Y-90138005D01*
X131495515Y-90170000D01*
X131418273Y-90201995D01*
X131189465Y-90354880D01*
X130994880Y-90549465D01*
X130841995Y-90778273D01*
X130736686Y-91032510D01*
X130683000Y-91302408D01*
X130683000Y-91577592D01*
X130736686Y-91847490D01*
X130841995Y-92101727D01*
X130994880Y-92330535D01*
X131189465Y-92525120D01*
X131418273Y-92678005D01*
X131495515Y-92710000D01*
X131418273Y-92741995D01*
X131189465Y-92894880D01*
X130994880Y-93089465D01*
X130841995Y-93318273D01*
X130736686Y-93572510D01*
X130683000Y-93842408D01*
X130683000Y-94117592D01*
X130713628Y-94271570D01*
X121408998Y-103576201D01*
X121380000Y-103599999D01*
X121356202Y-103628997D01*
X121356201Y-103628998D01*
X121285026Y-103715724D01*
X121214454Y-103847754D01*
X121188236Y-103934188D01*
X121170998Y-103991014D01*
X121169876Y-104002408D01*
X121156324Y-104140000D01*
X121160001Y-104177332D01*
X121160000Y-105920000D01*
X105312341Y-105920000D01*
X105225120Y-105789465D01*
X105030535Y-105594880D01*
X104801727Y-105441995D01*
X104730057Y-105412308D01*
X104743023Y-105407636D01*
X104858980Y-105345656D01*
X104925960Y-105105565D01*
X104140000Y-104319605D01*
X103354040Y-105105565D01*
X103421020Y-105345656D01*
X103556760Y-105409485D01*
X103478273Y-105441995D01*
X103249465Y-105594880D01*
X103054880Y-105789465D01*
X102901995Y-106018273D01*
X102796686Y-106272510D01*
X102743000Y-106542408D01*
X93598162Y-106542408D01*
X93624759Y-106524637D01*
X93824637Y-106324759D01*
X93981680Y-106089727D01*
X94089853Y-105828574D01*
X94145000Y-105551335D01*
X94145000Y-105268665D01*
X94089853Y-104991426D01*
X93981680Y-104730273D01*
X93824637Y-104495241D01*
X93624759Y-104295363D01*
X93500023Y-104212017D01*
X102738090Y-104212017D01*
X102779078Y-104484133D01*
X102872364Y-104743023D01*
X102934344Y-104858980D01*
X103174435Y-104925960D01*
X103960395Y-104140000D01*
X104319605Y-104140000D01*
X105105565Y-104925960D01*
X105345656Y-104858980D01*
X105462756Y-104609952D01*
X105529023Y-104342865D01*
X105541910Y-104067983D01*
X105500922Y-103795867D01*
X105407636Y-103536977D01*
X105345656Y-103421020D01*
X105105565Y-103354040D01*
X104319605Y-104140000D01*
X103960395Y-104140000D01*
X103174435Y-103354040D01*
X102934344Y-103421020D01*
X102817244Y-103670048D01*
X102750977Y-103937135D01*
X102738090Y-104212017D01*
X93500023Y-104212017D01*
X93389727Y-104138320D01*
X93128574Y-104030147D01*
X92851335Y-103975000D01*
X92568665Y-103975000D01*
X92291426Y-104030147D01*
X92030273Y-104138320D01*
X91795241Y-104295363D01*
X91595363Y-104495241D01*
X91438320Y-104730273D01*
X91330147Y-104991426D01*
X91275000Y-105268665D01*
X87795000Y-105268665D01*
X87739853Y-104991426D01*
X87631680Y-104730273D01*
X87474637Y-104495241D01*
X87274759Y-104295363D01*
X87039727Y-104138320D01*
X86778574Y-104030147D01*
X86501335Y-103975000D01*
X86218665Y-103975000D01*
X85941426Y-104030147D01*
X85680273Y-104138320D01*
X85445241Y-104295363D01*
X85245363Y-104495241D01*
X85088320Y-104730273D01*
X84980147Y-104991426D01*
X84925000Y-105268665D01*
X82768072Y-105268665D01*
X82768072Y-104560000D01*
X82755812Y-104435518D01*
X82719502Y-104315820D01*
X82660537Y-104205506D01*
X82581185Y-104108815D01*
X82484494Y-104029463D01*
X82374180Y-103970498D01*
X82293534Y-103946034D01*
X82377588Y-103870269D01*
X82551641Y-103636920D01*
X82676825Y-103374099D01*
X82721476Y-103226890D01*
X82600155Y-102997000D01*
X81407000Y-102997000D01*
X81407000Y-103017000D01*
X81153000Y-103017000D01*
X81153000Y-102997000D01*
X79959845Y-102997000D01*
X79838524Y-103226890D01*
X79883175Y-103374099D01*
X80008359Y-103636920D01*
X80182412Y-103870269D01*
X80266466Y-103946034D01*
X80185820Y-103970498D01*
X80075506Y-104029463D01*
X79978815Y-104108815D01*
X79899463Y-104205506D01*
X79840498Y-104315820D01*
X79804188Y-104435518D01*
X79791928Y-104560000D01*
X77597000Y-104560000D01*
X77597000Y-102513110D01*
X79838524Y-102513110D01*
X79959845Y-102743000D01*
X81153000Y-102743000D01*
X81153000Y-101549186D01*
X81407000Y-101549186D01*
X81407000Y-102743000D01*
X82600155Y-102743000D01*
X82721476Y-102513110D01*
X82676825Y-102365901D01*
X82551641Y-102103080D01*
X82377588Y-101869731D01*
X82161355Y-101674822D01*
X81911252Y-101525843D01*
X81636891Y-101428519D01*
X81407000Y-101549186D01*
X81153000Y-101549186D01*
X80923109Y-101428519D01*
X80648748Y-101525843D01*
X80398645Y-101674822D01*
X80182412Y-101869731D01*
X80008359Y-102103080D01*
X79883175Y-102365901D01*
X79838524Y-102513110D01*
X77597000Y-102513110D01*
X77597000Y-98702702D01*
X80466903Y-98702702D01*
X80538486Y-98946671D01*
X80793996Y-99067571D01*
X81068184Y-99136300D01*
X81350512Y-99150217D01*
X81630130Y-99108787D01*
X81896292Y-99013603D01*
X82021514Y-98946671D01*
X82093097Y-98702702D01*
X81280000Y-97889605D01*
X80466903Y-98702702D01*
X77597000Y-98702702D01*
X77597000Y-97780512D01*
X79839783Y-97780512D01*
X79881213Y-98060130D01*
X79976397Y-98326292D01*
X80043329Y-98451514D01*
X80287298Y-98523097D01*
X81100395Y-97710000D01*
X81459605Y-97710000D01*
X82272702Y-98523097D01*
X82516671Y-98451514D01*
X82637571Y-98196004D01*
X82706300Y-97921816D01*
X82719764Y-97648665D01*
X97625000Y-97648665D01*
X97625000Y-97931335D01*
X97680147Y-98208574D01*
X97788320Y-98469727D01*
X97945363Y-98704759D01*
X98145241Y-98904637D01*
X98380273Y-99061680D01*
X98641426Y-99169853D01*
X98918665Y-99225000D01*
X99201335Y-99225000D01*
X99478574Y-99169853D01*
X99739727Y-99061680D01*
X99974759Y-98904637D01*
X100174637Y-98704759D01*
X100331680Y-98469727D01*
X100439853Y-98208574D01*
X100495000Y-97931335D01*
X100495000Y-97648665D01*
X100439853Y-97371426D01*
X100331680Y-97110273D01*
X100174637Y-96875241D01*
X99974759Y-96675363D01*
X99739727Y-96518320D01*
X99478574Y-96410147D01*
X99201335Y-96355000D01*
X98918665Y-96355000D01*
X98641426Y-96410147D01*
X98380273Y-96518320D01*
X98145241Y-96675363D01*
X97945363Y-96875241D01*
X97788320Y-97110273D01*
X97680147Y-97371426D01*
X97625000Y-97648665D01*
X82719764Y-97648665D01*
X82720217Y-97639488D01*
X82678787Y-97359870D01*
X82583603Y-97093708D01*
X82516671Y-96968486D01*
X82272702Y-96896903D01*
X81459605Y-97710000D01*
X81100395Y-97710000D01*
X80287298Y-96896903D01*
X80043329Y-96968486D01*
X79922429Y-97223996D01*
X79853700Y-97498184D01*
X79839783Y-97780512D01*
X77597000Y-97780512D01*
X77597000Y-96717298D01*
X80466903Y-96717298D01*
X81280000Y-97530395D01*
X82093097Y-96717298D01*
X82021514Y-96473329D01*
X81766004Y-96352429D01*
X81491816Y-96283700D01*
X81209488Y-96269783D01*
X80929870Y-96311213D01*
X80663708Y-96406397D01*
X80538486Y-96473329D01*
X80466903Y-96717298D01*
X77597000Y-96717298D01*
X77597000Y-92568665D01*
X79845000Y-92568665D01*
X79845000Y-92851335D01*
X79900147Y-93128574D01*
X80008320Y-93389727D01*
X80165363Y-93624759D01*
X80365241Y-93824637D01*
X80600273Y-93981680D01*
X80861426Y-94089853D01*
X81138665Y-94145000D01*
X81421335Y-94145000D01*
X81698574Y-94089853D01*
X81959727Y-93981680D01*
X82194759Y-93824637D01*
X82394637Y-93624759D01*
X82551680Y-93389727D01*
X82659853Y-93128574D01*
X82715000Y-92851335D01*
X82715000Y-92568665D01*
X84925000Y-92568665D01*
X84925000Y-92851335D01*
X84980147Y-93128574D01*
X85088320Y-93389727D01*
X85245363Y-93624759D01*
X85445241Y-93824637D01*
X85680273Y-93981680D01*
X85941426Y-94089853D01*
X86218665Y-94145000D01*
X86501335Y-94145000D01*
X86778574Y-94089853D01*
X87039727Y-93981680D01*
X87274759Y-93824637D01*
X87474637Y-93624759D01*
X87631680Y-93389727D01*
X87739853Y-93128574D01*
X87795000Y-92851335D01*
X87795000Y-92568665D01*
X91275000Y-92568665D01*
X91275000Y-92851335D01*
X91330147Y-93128574D01*
X91438320Y-93389727D01*
X91595363Y-93624759D01*
X91795241Y-93824637D01*
X92030273Y-93981680D01*
X92291426Y-94089853D01*
X92568665Y-94145000D01*
X92851335Y-94145000D01*
X93128574Y-94089853D01*
X93389727Y-93981680D01*
X93624759Y-93824637D01*
X93824637Y-93624759D01*
X93981680Y-93389727D01*
X94089853Y-93128574D01*
X94145000Y-92851335D01*
X94145000Y-92568665D01*
X95085000Y-92568665D01*
X95085000Y-92851335D01*
X95140147Y-93128574D01*
X95248320Y-93389727D01*
X95405363Y-93624759D01*
X95605241Y-93824637D01*
X95840273Y-93981680D01*
X96101426Y-94089853D01*
X96378665Y-94145000D01*
X96661335Y-94145000D01*
X96938574Y-94089853D01*
X97199727Y-93981680D01*
X97434759Y-93824637D01*
X97556694Y-93702702D01*
X100706903Y-93702702D01*
X100778486Y-93946671D01*
X101033996Y-94067571D01*
X101308184Y-94136300D01*
X101590512Y-94150217D01*
X101870130Y-94108787D01*
X102136292Y-94013603D01*
X102261514Y-93946671D01*
X102333097Y-93702702D01*
X101520000Y-92889605D01*
X100706903Y-93702702D01*
X97556694Y-93702702D01*
X97634637Y-93624759D01*
X97791680Y-93389727D01*
X97899853Y-93128574D01*
X97955000Y-92851335D01*
X97955000Y-92780512D01*
X100079783Y-92780512D01*
X100121213Y-93060130D01*
X100216397Y-93326292D01*
X100283329Y-93451514D01*
X100527298Y-93523097D01*
X101340395Y-92710000D01*
X101699605Y-92710000D01*
X102512702Y-93523097D01*
X102756671Y-93451514D01*
X102877571Y-93196004D01*
X102946300Y-92921816D01*
X102960217Y-92639488D01*
X102918787Y-92359870D01*
X102823603Y-92093708D01*
X102756671Y-91968486D01*
X102512702Y-91896903D01*
X101699605Y-92710000D01*
X101340395Y-92710000D01*
X100527298Y-91896903D01*
X100283329Y-91968486D01*
X100162429Y-92223996D01*
X100093700Y-92498184D01*
X100079783Y-92780512D01*
X97955000Y-92780512D01*
X97955000Y-92568665D01*
X97899853Y-92291426D01*
X97791680Y-92030273D01*
X97634637Y-91795241D01*
X97556694Y-91717298D01*
X100706903Y-91717298D01*
X101520000Y-92530395D01*
X102333097Y-91717298D01*
X102261514Y-91473329D01*
X102006004Y-91352429D01*
X101731816Y-91283700D01*
X101449488Y-91269783D01*
X101169870Y-91311213D01*
X100903708Y-91406397D01*
X100778486Y-91473329D01*
X100706903Y-91717298D01*
X97556694Y-91717298D01*
X97434759Y-91595363D01*
X97199727Y-91438320D01*
X96938574Y-91330147D01*
X96661335Y-91275000D01*
X96378665Y-91275000D01*
X96101426Y-91330147D01*
X95840273Y-91438320D01*
X95605241Y-91595363D01*
X95405363Y-91795241D01*
X95248320Y-92030273D01*
X95140147Y-92291426D01*
X95085000Y-92568665D01*
X94145000Y-92568665D01*
X94089853Y-92291426D01*
X93981680Y-92030273D01*
X93824637Y-91795241D01*
X93624759Y-91595363D01*
X93389727Y-91438320D01*
X93128574Y-91330147D01*
X92851335Y-91275000D01*
X92568665Y-91275000D01*
X92291426Y-91330147D01*
X92030273Y-91438320D01*
X91795241Y-91595363D01*
X91595363Y-91795241D01*
X91438320Y-92030273D01*
X91330147Y-92291426D01*
X91275000Y-92568665D01*
X87795000Y-92568665D01*
X87739853Y-92291426D01*
X87631680Y-92030273D01*
X87474637Y-91795241D01*
X87274759Y-91595363D01*
X87039727Y-91438320D01*
X86778574Y-91330147D01*
X86501335Y-91275000D01*
X86218665Y-91275000D01*
X85941426Y-91330147D01*
X85680273Y-91438320D01*
X85445241Y-91595363D01*
X85245363Y-91795241D01*
X85088320Y-92030273D01*
X84980147Y-92291426D01*
X84925000Y-92568665D01*
X82715000Y-92568665D01*
X82659853Y-92291426D01*
X82551680Y-92030273D01*
X82394637Y-91795241D01*
X82194759Y-91595363D01*
X81959727Y-91438320D01*
X81698574Y-91330147D01*
X81421335Y-91275000D01*
X81138665Y-91275000D01*
X80861426Y-91330147D01*
X80600273Y-91438320D01*
X80365241Y-91595363D01*
X80165363Y-91795241D01*
X80008320Y-92030273D01*
X79900147Y-92291426D01*
X79845000Y-92568665D01*
X77597000Y-92568665D01*
X77597000Y-90028665D01*
X82385000Y-90028665D01*
X82385000Y-90311335D01*
X82440147Y-90588574D01*
X82548320Y-90849727D01*
X82705363Y-91084759D01*
X82905241Y-91284637D01*
X83140273Y-91441680D01*
X83401426Y-91549853D01*
X83678665Y-91605000D01*
X83961335Y-91605000D01*
X84238574Y-91549853D01*
X84499727Y-91441680D01*
X84734759Y-91284637D01*
X84934637Y-91084759D01*
X85091680Y-90849727D01*
X85199853Y-90588574D01*
X85255000Y-90311335D01*
X85255000Y-90028665D01*
X85199853Y-89751426D01*
X85091680Y-89490273D01*
X84934637Y-89255241D01*
X84734759Y-89055363D01*
X84499727Y-88898320D01*
X84238574Y-88790147D01*
X83961335Y-88735000D01*
X83678665Y-88735000D01*
X83401426Y-88790147D01*
X83140273Y-88898320D01*
X82905241Y-89055363D01*
X82705363Y-89255241D01*
X82548320Y-89490273D01*
X82440147Y-89751426D01*
X82385000Y-90028665D01*
X77597000Y-90028665D01*
X77597000Y-88530000D01*
X87361928Y-88530000D01*
X87374188Y-88654482D01*
X87410498Y-88774180D01*
X87469463Y-88884494D01*
X87548815Y-88981185D01*
X87645506Y-89060537D01*
X87755820Y-89119502D01*
X87875518Y-89155812D01*
X88000000Y-89168072D01*
X88614250Y-89165000D01*
X88773000Y-89006250D01*
X88773000Y-87757000D01*
X87523750Y-87757000D01*
X87365000Y-87915750D01*
X87361928Y-88530000D01*
X77597000Y-88530000D01*
X77597000Y-86730000D01*
X87361928Y-86730000D01*
X87365000Y-87344250D01*
X87523750Y-87503000D01*
X88773000Y-87503000D01*
X88773000Y-86253750D01*
X89027000Y-86253750D01*
X89027000Y-87503000D01*
X89047000Y-87503000D01*
X89047000Y-87757000D01*
X89027000Y-87757000D01*
X89027000Y-89006250D01*
X89185750Y-89165000D01*
X89800000Y-89168072D01*
X89924482Y-89155812D01*
X90044180Y-89119502D01*
X90154494Y-89060537D01*
X90251185Y-88981185D01*
X90330537Y-88884494D01*
X90389502Y-88774180D01*
X90395056Y-88755873D01*
X90461495Y-88822312D01*
X90712905Y-88990299D01*
X90992257Y-89106011D01*
X91288816Y-89165000D01*
X91591184Y-89165000D01*
X91887743Y-89106011D01*
X92167095Y-88990299D01*
X92418505Y-88822312D01*
X92632312Y-88608505D01*
X92800299Y-88357095D01*
X92916011Y-88077743D01*
X92975000Y-87781184D01*
X92975000Y-87478816D01*
X92916011Y-87182257D01*
X92800299Y-86902905D01*
X92632312Y-86651495D01*
X92418505Y-86437688D01*
X92167095Y-86269701D01*
X91887743Y-86153989D01*
X91591184Y-86095000D01*
X91288816Y-86095000D01*
X90992257Y-86153989D01*
X90712905Y-86269701D01*
X90461495Y-86437688D01*
X90395056Y-86504127D01*
X90389502Y-86485820D01*
X90330537Y-86375506D01*
X90251185Y-86278815D01*
X90154494Y-86199463D01*
X90044180Y-86140498D01*
X89924482Y-86104188D01*
X89800000Y-86091928D01*
X89185750Y-86095000D01*
X89027000Y-86253750D01*
X88773000Y-86253750D01*
X88614250Y-86095000D01*
X88000000Y-86091928D01*
X87875518Y-86104188D01*
X87755820Y-86140498D01*
X87645506Y-86199463D01*
X87548815Y-86278815D01*
X87469463Y-86375506D01*
X87410498Y-86485820D01*
X87374188Y-86605518D01*
X87361928Y-86730000D01*
X77597000Y-86730000D01*
X77597000Y-85510000D01*
X98841928Y-85510000D01*
X98841928Y-87210000D01*
X98854188Y-87334482D01*
X98890498Y-87454180D01*
X98949463Y-87564494D01*
X99028815Y-87661185D01*
X99125506Y-87740537D01*
X99235820Y-87799502D01*
X99355518Y-87835812D01*
X99480000Y-87848072D01*
X101180000Y-87848072D01*
X101304482Y-87835812D01*
X101424180Y-87799502D01*
X101534494Y-87740537D01*
X101631185Y-87661185D01*
X101710537Y-87564494D01*
X101769502Y-87454180D01*
X101805812Y-87334482D01*
X101818072Y-87210000D01*
X101818072Y-85510000D01*
X101805812Y-85385518D01*
X101769502Y-85265820D01*
X101710537Y-85155506D01*
X101631185Y-85058815D01*
X101534494Y-84979463D01*
X101424180Y-84920498D01*
X101304482Y-84884188D01*
X101180000Y-84871928D01*
X99480000Y-84871928D01*
X99355518Y-84884188D01*
X99235820Y-84920498D01*
X99125506Y-84979463D01*
X99028815Y-85058815D01*
X98949463Y-85155506D01*
X98890498Y-85265820D01*
X98854188Y-85385518D01*
X98841928Y-85510000D01*
X77597000Y-85510000D01*
X77597000Y-81138665D01*
X90005000Y-81138665D01*
X90005000Y-81421335D01*
X90060147Y-81698574D01*
X90168320Y-81959727D01*
X90325363Y-82194759D01*
X90525241Y-82394637D01*
X90760273Y-82551680D01*
X91021426Y-82659853D01*
X91298665Y-82715000D01*
X91581335Y-82715000D01*
X91858574Y-82659853D01*
X92119727Y-82551680D01*
X92354759Y-82394637D01*
X92554637Y-82194759D01*
X92711680Y-81959727D01*
X92819853Y-81698574D01*
X92875000Y-81421335D01*
X92875000Y-81138665D01*
X92819853Y-80861426D01*
X92711680Y-80600273D01*
X92554637Y-80365241D01*
X92354759Y-80165363D01*
X92119727Y-80008320D01*
X91858574Y-79900147D01*
X91581335Y-79845000D01*
X91298665Y-79845000D01*
X91021426Y-79900147D01*
X90760273Y-80008320D01*
X90525241Y-80165363D01*
X90325363Y-80365241D01*
X90168320Y-80600273D01*
X90060147Y-80861426D01*
X90005000Y-81138665D01*
X77597000Y-81138665D01*
X77597000Y-77328665D01*
X82385000Y-77328665D01*
X82385000Y-77611335D01*
X82440147Y-77888574D01*
X82548320Y-78149727D01*
X82705363Y-78384759D01*
X82905241Y-78584637D01*
X83140273Y-78741680D01*
X83401426Y-78849853D01*
X83678665Y-78905000D01*
X83961335Y-78905000D01*
X84238574Y-78849853D01*
X84499727Y-78741680D01*
X84734759Y-78584637D01*
X84934637Y-78384759D01*
X85091680Y-78149727D01*
X85199853Y-77888574D01*
X85255000Y-77611335D01*
X85255000Y-77328665D01*
X85199853Y-77051426D01*
X85091680Y-76790273D01*
X84934637Y-76555241D01*
X84734759Y-76355363D01*
X84499727Y-76198320D01*
X84238574Y-76090147D01*
X83961335Y-76035000D01*
X83678665Y-76035000D01*
X83401426Y-76090147D01*
X83140273Y-76198320D01*
X82905241Y-76355363D01*
X82705363Y-76555241D01*
X82548320Y-76790273D01*
X82440147Y-77051426D01*
X82385000Y-77328665D01*
X77597000Y-77328665D01*
X77597000Y-75463061D01*
X94850000Y-75463061D01*
X94850000Y-75666939D01*
X94889774Y-75866898D01*
X94967795Y-76055256D01*
X95081063Y-76224774D01*
X95125000Y-76268711D01*
X95125001Y-79941288D01*
X95081063Y-79985226D01*
X94967795Y-80154744D01*
X94889774Y-80343102D01*
X94850000Y-80543061D01*
X94850000Y-80746939D01*
X94889774Y-80946898D01*
X94967795Y-81135256D01*
X95081063Y-81304774D01*
X95225226Y-81448937D01*
X95394744Y-81562205D01*
X95583102Y-81640226D01*
X95783061Y-81680000D01*
X95986939Y-81680000D01*
X96186898Y-81640226D01*
X96375256Y-81562205D01*
X96544774Y-81448937D01*
X96688937Y-81304774D01*
X96802205Y-81135256D01*
X96880226Y-80946898D01*
X96920000Y-80746939D01*
X96920000Y-80543061D01*
X96897511Y-80430000D01*
X98841928Y-80430000D01*
X98841928Y-82130000D01*
X98854188Y-82254482D01*
X98890498Y-82374180D01*
X98949463Y-82484494D01*
X99028815Y-82581185D01*
X99125506Y-82660537D01*
X99235820Y-82719502D01*
X99355518Y-82755812D01*
X99480000Y-82768072D01*
X101180000Y-82768072D01*
X101304482Y-82755812D01*
X101424180Y-82719502D01*
X101534494Y-82660537D01*
X101631185Y-82581185D01*
X101710537Y-82484494D01*
X101769502Y-82374180D01*
X101805812Y-82254482D01*
X101818072Y-82130000D01*
X101818072Y-81142408D01*
X102743000Y-81142408D01*
X102743000Y-81417592D01*
X102796686Y-81687490D01*
X102901995Y-81941727D01*
X103054880Y-82170535D01*
X103249465Y-82365120D01*
X103478273Y-82518005D01*
X103555515Y-82550000D01*
X103478273Y-82581995D01*
X103249465Y-82734880D01*
X103054880Y-82929465D01*
X102901995Y-83158273D01*
X102796686Y-83412510D01*
X102743000Y-83682408D01*
X102743000Y-83957592D01*
X102796686Y-84227490D01*
X102901995Y-84481727D01*
X103054880Y-84710535D01*
X103249465Y-84905120D01*
X103478273Y-85058005D01*
X103555515Y-85090000D01*
X103478273Y-85121995D01*
X103249465Y-85274880D01*
X103054880Y-85469465D01*
X102901995Y-85698273D01*
X102796686Y-85952510D01*
X102743000Y-86222408D01*
X102743000Y-86497592D01*
X102796686Y-86767490D01*
X102901995Y-87021727D01*
X103054880Y-87250535D01*
X103249465Y-87445120D01*
X103478273Y-87598005D01*
X103555515Y-87630000D01*
X103478273Y-87661995D01*
X103249465Y-87814880D01*
X103054880Y-88009465D01*
X102901995Y-88238273D01*
X102796686Y-88492510D01*
X102743000Y-88762408D01*
X102743000Y-89037592D01*
X102796686Y-89307490D01*
X102901995Y-89561727D01*
X103054880Y-89790535D01*
X103249465Y-89985120D01*
X103478273Y-90138005D01*
X103555515Y-90170000D01*
X103478273Y-90201995D01*
X103249465Y-90354880D01*
X103054880Y-90549465D01*
X102901995Y-90778273D01*
X102796686Y-91032510D01*
X102743000Y-91302408D01*
X102743000Y-91577592D01*
X102796686Y-91847490D01*
X102901995Y-92101727D01*
X103054880Y-92330535D01*
X103249465Y-92525120D01*
X103478273Y-92678005D01*
X103555515Y-92710000D01*
X103478273Y-92741995D01*
X103249465Y-92894880D01*
X103054880Y-93089465D01*
X102901995Y-93318273D01*
X102796686Y-93572510D01*
X102743000Y-93842408D01*
X102743000Y-94117592D01*
X102796686Y-94387490D01*
X102901995Y-94641727D01*
X103054880Y-94870535D01*
X103249465Y-95065120D01*
X103478273Y-95218005D01*
X103555515Y-95250000D01*
X103478273Y-95281995D01*
X103249465Y-95434880D01*
X103054880Y-95629465D01*
X102901995Y-95858273D01*
X102796686Y-96112510D01*
X102743000Y-96382408D01*
X102743000Y-96657592D01*
X102796686Y-96927490D01*
X102901995Y-97181727D01*
X103054880Y-97410535D01*
X103249465Y-97605120D01*
X103478273Y-97758005D01*
X103555515Y-97790000D01*
X103478273Y-97821995D01*
X103249465Y-97974880D01*
X103054880Y-98169465D01*
X102901995Y-98398273D01*
X102796686Y-98652510D01*
X102743000Y-98922408D01*
X102743000Y-99197592D01*
X102796686Y-99467490D01*
X102901995Y-99721727D01*
X103054880Y-99950535D01*
X103249465Y-100145120D01*
X103478273Y-100298005D01*
X103555515Y-100330000D01*
X103478273Y-100361995D01*
X103249465Y-100514880D01*
X103054880Y-100709465D01*
X102901995Y-100938273D01*
X102796686Y-101192510D01*
X102743000Y-101462408D01*
X102743000Y-101737592D01*
X102796686Y-102007490D01*
X102901995Y-102261727D01*
X103054880Y-102490535D01*
X103249465Y-102685120D01*
X103478273Y-102838005D01*
X103549943Y-102867692D01*
X103536977Y-102872364D01*
X103421020Y-102934344D01*
X103354040Y-103174435D01*
X104140000Y-103960395D01*
X104925960Y-103174435D01*
X104858980Y-102934344D01*
X104723240Y-102870515D01*
X104801727Y-102838005D01*
X105030535Y-102685120D01*
X105225120Y-102490535D01*
X105378005Y-102261727D01*
X105483314Y-102007490D01*
X105537000Y-101737592D01*
X105537000Y-101462408D01*
X105483314Y-101192510D01*
X105378005Y-100938273D01*
X105225120Y-100709465D01*
X105030535Y-100514880D01*
X104801727Y-100361995D01*
X104724485Y-100330000D01*
X104801727Y-100298005D01*
X105030535Y-100145120D01*
X105225120Y-99950535D01*
X105378005Y-99721727D01*
X105483314Y-99467490D01*
X105537000Y-99197592D01*
X105537000Y-98922408D01*
X105483314Y-98652510D01*
X105378005Y-98398273D01*
X105225120Y-98169465D01*
X105030535Y-97974880D01*
X104801727Y-97821995D01*
X104724485Y-97790000D01*
X104801727Y-97758005D01*
X105030535Y-97605120D01*
X105225120Y-97410535D01*
X105378005Y-97181727D01*
X105483314Y-96927490D01*
X105537000Y-96657592D01*
X105537000Y-96382408D01*
X105483314Y-96112510D01*
X105378005Y-95858273D01*
X105225120Y-95629465D01*
X105030535Y-95434880D01*
X104801727Y-95281995D01*
X104724485Y-95250000D01*
X104801727Y-95218005D01*
X105030535Y-95065120D01*
X105225120Y-94870535D01*
X105378005Y-94641727D01*
X105483314Y-94387490D01*
X105537000Y-94117592D01*
X105537000Y-93842408D01*
X105483314Y-93572510D01*
X105378005Y-93318273D01*
X105225120Y-93089465D01*
X105030535Y-92894880D01*
X104801727Y-92741995D01*
X104724485Y-92710000D01*
X104801727Y-92678005D01*
X105030535Y-92525120D01*
X105225120Y-92330535D01*
X105378005Y-92101727D01*
X105483314Y-91847490D01*
X105537000Y-91577592D01*
X105537000Y-91302408D01*
X105483314Y-91032510D01*
X105378005Y-90778273D01*
X105225120Y-90549465D01*
X105030535Y-90354880D01*
X104801727Y-90201995D01*
X104724485Y-90170000D01*
X104801727Y-90138005D01*
X105030535Y-89985120D01*
X105225120Y-89790535D01*
X105378005Y-89561727D01*
X105483314Y-89307490D01*
X105537000Y-89037592D01*
X105537000Y-88762408D01*
X105483314Y-88492510D01*
X105378005Y-88238273D01*
X105225120Y-88009465D01*
X105030535Y-87814880D01*
X104801727Y-87661995D01*
X104724485Y-87630000D01*
X104801727Y-87598005D01*
X105030535Y-87445120D01*
X105225120Y-87250535D01*
X105378005Y-87021727D01*
X105483314Y-86767490D01*
X105537000Y-86497592D01*
X105537000Y-86222408D01*
X105483314Y-85952510D01*
X105378005Y-85698273D01*
X105225120Y-85469465D01*
X105030535Y-85274880D01*
X104801727Y-85121995D01*
X104724485Y-85090000D01*
X104801727Y-85058005D01*
X105030535Y-84905120D01*
X105225120Y-84710535D01*
X105378005Y-84481727D01*
X105483314Y-84227490D01*
X105537000Y-83957592D01*
X105537000Y-83682408D01*
X105483314Y-83412510D01*
X105378005Y-83158273D01*
X105225120Y-82929465D01*
X105030535Y-82734880D01*
X104801727Y-82581995D01*
X104724485Y-82550000D01*
X104801727Y-82518005D01*
X105030535Y-82365120D01*
X105225120Y-82170535D01*
X105378005Y-81941727D01*
X105483314Y-81687490D01*
X105537000Y-81417592D01*
X105537000Y-81142408D01*
X105483314Y-80872510D01*
X105378005Y-80618273D01*
X105225120Y-80389465D01*
X105030535Y-80194880D01*
X104801727Y-80041995D01*
X104547490Y-79936686D01*
X104277592Y-79883000D01*
X104002408Y-79883000D01*
X103732510Y-79936686D01*
X103478273Y-80041995D01*
X103249465Y-80194880D01*
X103054880Y-80389465D01*
X102901995Y-80618273D01*
X102796686Y-80872510D01*
X102743000Y-81142408D01*
X101818072Y-81142408D01*
X101818072Y-80430000D01*
X101805812Y-80305518D01*
X101769502Y-80185820D01*
X101710537Y-80075506D01*
X101631185Y-79978815D01*
X101534494Y-79899463D01*
X101424180Y-79840498D01*
X101304482Y-79804188D01*
X101180000Y-79791928D01*
X99480000Y-79791928D01*
X99355518Y-79804188D01*
X99235820Y-79840498D01*
X99125506Y-79899463D01*
X99028815Y-79978815D01*
X98949463Y-80075506D01*
X98890498Y-80185820D01*
X98854188Y-80305518D01*
X98841928Y-80430000D01*
X96897511Y-80430000D01*
X96880226Y-80343102D01*
X96802205Y-80154744D01*
X96688937Y-79985226D01*
X96645000Y-79941289D01*
X96645000Y-76268711D01*
X96688937Y-76224774D01*
X96802205Y-76055256D01*
X96880226Y-75866898D01*
X96920000Y-75666939D01*
X96920000Y-75463061D01*
X96880226Y-75263102D01*
X96802205Y-75074744D01*
X96688937Y-74905226D01*
X96544774Y-74761063D01*
X96375256Y-74647795D01*
X96186898Y-74569774D01*
X95986939Y-74530000D01*
X95783061Y-74530000D01*
X95583102Y-74569774D01*
X95394744Y-74647795D01*
X95225226Y-74761063D01*
X95081063Y-74905226D01*
X94967795Y-75074744D01*
X94889774Y-75263102D01*
X94850000Y-75463061D01*
X77597000Y-75463061D01*
X77597000Y-70960792D01*
X77873948Y-71375274D01*
X78484726Y-71986052D01*
X79202924Y-72465936D01*
X80000943Y-72796487D01*
X80848115Y-72965000D01*
X81711885Y-72965000D01*
X82559057Y-72796487D01*
X83357076Y-72465936D01*
X84075274Y-71986052D01*
X84686052Y-71375274D01*
X85165936Y-70657076D01*
X85496487Y-69859057D01*
X85665000Y-69011885D01*
X85665000Y-68438665D01*
X90005000Y-68438665D01*
X90005000Y-68721335D01*
X90060147Y-68998574D01*
X90168320Y-69259727D01*
X90325363Y-69494759D01*
X90525241Y-69694637D01*
X90760273Y-69851680D01*
X91021426Y-69959853D01*
X91298665Y-70015000D01*
X91581335Y-70015000D01*
X91858574Y-69959853D01*
X92119727Y-69851680D01*
X92354759Y-69694637D01*
X92554637Y-69494759D01*
X92711680Y-69259727D01*
X92819853Y-68998574D01*
X92875000Y-68721335D01*
X92875000Y-68438665D01*
X92819853Y-68161426D01*
X92711680Y-67900273D01*
X92554637Y-67665241D01*
X92354759Y-67465363D01*
X92119727Y-67308320D01*
X91858574Y-67200147D01*
X91581335Y-67145000D01*
X91298665Y-67145000D01*
X91021426Y-67200147D01*
X90760273Y-67308320D01*
X90525241Y-67465363D01*
X90325363Y-67665241D01*
X90168320Y-67900273D01*
X90060147Y-68161426D01*
X90005000Y-68438665D01*
X85665000Y-68438665D01*
X85665000Y-68148115D01*
X85496487Y-67300943D01*
X85165936Y-66502924D01*
X84686052Y-65784726D01*
X84075274Y-65173948D01*
X83357076Y-64694064D01*
X82559057Y-64363513D01*
X81711885Y-64195000D01*
X80848115Y-64195000D01*
X80000943Y-64363513D01*
X79202924Y-64694064D01*
X78484726Y-65173948D01*
X77873948Y-65784726D01*
X77597000Y-66199208D01*
X77597000Y-64160000D01*
X175133000Y-64160000D01*
X175133000Y-66199208D01*
G04 #@! TA.AperFunction,Conductor*
D25*
G36*
X175133000Y-66199208D02*
G01*
X174856052Y-65784726D01*
X174245274Y-65173948D01*
X173527076Y-64694064D01*
X172729057Y-64363513D01*
X171881885Y-64195000D01*
X171018115Y-64195000D01*
X170170943Y-64363513D01*
X169372924Y-64694064D01*
X168654726Y-65173948D01*
X168043948Y-65784726D01*
X167564064Y-66502924D01*
X167233513Y-67300943D01*
X167065000Y-68148115D01*
X167065000Y-69011885D01*
X167233513Y-69859057D01*
X167564064Y-70657076D01*
X168043948Y-71375274D01*
X168654726Y-71986052D01*
X169372924Y-72465936D01*
X170170943Y-72796487D01*
X171018115Y-72965000D01*
X171881885Y-72965000D01*
X172729057Y-72796487D01*
X173527076Y-72465936D01*
X174245274Y-71986052D01*
X174856052Y-71375274D01*
X175133000Y-70960791D01*
X175133000Y-116999209D01*
X174856052Y-116584726D01*
X174245274Y-115973948D01*
X173527076Y-115494064D01*
X172729057Y-115163513D01*
X171881885Y-114995000D01*
X171018115Y-114995000D01*
X170170943Y-115163513D01*
X169372924Y-115494064D01*
X168654726Y-115973948D01*
X168043948Y-116584726D01*
X167564064Y-117302924D01*
X167233513Y-118100943D01*
X167065000Y-118948115D01*
X167065000Y-119811885D01*
X167233513Y-120659057D01*
X167564064Y-121457076D01*
X168043948Y-122175274D01*
X168654726Y-122786052D01*
X169372924Y-123265936D01*
X170170943Y-123596487D01*
X171018115Y-123765000D01*
X171881885Y-123765000D01*
X172729057Y-123596487D01*
X173527076Y-123265936D01*
X174245274Y-122786052D01*
X174856052Y-122175274D01*
X175133000Y-121760791D01*
X175133000Y-125070000D01*
X77597000Y-125070000D01*
X77597000Y-121847000D01*
X86150000Y-121847000D01*
X86150000Y-122446000D01*
X86204751Y-122747901D01*
X86317348Y-123033319D01*
X86483464Y-123291286D01*
X86696715Y-123511889D01*
X86948906Y-123686650D01*
X87230345Y-123808853D01*
X87341336Y-123834812D01*
X87583000Y-123714483D01*
X87583000Y-121847000D01*
X87837000Y-121847000D01*
X87837000Y-123714483D01*
X88078664Y-123834812D01*
X88189655Y-123808853D01*
X88471094Y-123686650D01*
X88723285Y-123511889D01*
X88936536Y-123291286D01*
X89102652Y-123033319D01*
X89215249Y-122747901D01*
X89270000Y-122446000D01*
X89270000Y-121847000D01*
X87837000Y-121847000D01*
X87583000Y-121847000D01*
X86150000Y-121847000D01*
X77597000Y-121847000D01*
X77597000Y-120994000D01*
X86150000Y-120994000D01*
X86150000Y-121593000D01*
X87583000Y-121593000D01*
X87583000Y-119725517D01*
X87837000Y-119725517D01*
X87837000Y-121593000D01*
X89270000Y-121593000D01*
X89270000Y-121044364D01*
X91150000Y-121044364D01*
X91150000Y-122395635D01*
X91172572Y-122624812D01*
X91261774Y-122918874D01*
X91406631Y-123189882D01*
X91601576Y-123427424D01*
X91839117Y-123622369D01*
X92110125Y-123767226D01*
X92404187Y-123856428D01*
X92710000Y-123886548D01*
X93015812Y-123856428D01*
X93309874Y-123767226D01*
X93580882Y-123622369D01*
X93818424Y-123427424D01*
X94013369Y-123189883D01*
X94158226Y-122918875D01*
X94247428Y-122624813D01*
X94270000Y-122395636D01*
X94270000Y-121044364D01*
X94247428Y-120815187D01*
X94158226Y-120521125D01*
X94013369Y-120250117D01*
X93818424Y-120012576D01*
X93580883Y-119817631D01*
X93309875Y-119672774D01*
X93015813Y-119583572D01*
X92710000Y-119553452D01*
X92404188Y-119583572D01*
X92110126Y-119672774D01*
X91839118Y-119817631D01*
X91601577Y-120012576D01*
X91406632Y-120250117D01*
X91261774Y-120521125D01*
X91172572Y-120815187D01*
X91150000Y-121044364D01*
X89270000Y-121044364D01*
X89270000Y-120994000D01*
X89215249Y-120692099D01*
X89102652Y-120406681D01*
X88936536Y-120148714D01*
X88723285Y-119928111D01*
X88471094Y-119753350D01*
X88189655Y-119631147D01*
X88078664Y-119605188D01*
X87837000Y-119725517D01*
X87583000Y-119725517D01*
X87341336Y-119605188D01*
X87230345Y-119631147D01*
X86948906Y-119753350D01*
X86696715Y-119928111D01*
X86483464Y-120148714D01*
X86317348Y-120406681D01*
X86204751Y-120692099D01*
X86150000Y-120994000D01*
X77597000Y-120994000D01*
X77597000Y-116702408D01*
X102743000Y-116702408D01*
X102743000Y-116977592D01*
X102796686Y-117247490D01*
X102901995Y-117501727D01*
X103054880Y-117730535D01*
X103249465Y-117925120D01*
X103478273Y-118078005D01*
X103732510Y-118183314D01*
X104002408Y-118237000D01*
X104277592Y-118237000D01*
X104547490Y-118183314D01*
X104801727Y-118078005D01*
X105030535Y-117925120D01*
X105225120Y-117730535D01*
X105378005Y-117501727D01*
X105483314Y-117247490D01*
X105537000Y-116977592D01*
X105537000Y-116702408D01*
X105483314Y-116432510D01*
X105378005Y-116178273D01*
X105225120Y-115949465D01*
X105030535Y-115754880D01*
X104801727Y-115601995D01*
X104730057Y-115572308D01*
X104743023Y-115567636D01*
X104858980Y-115505656D01*
X104925960Y-115265565D01*
X104140000Y-114479605D01*
X103354040Y-115265565D01*
X103421020Y-115505656D01*
X103556760Y-115569485D01*
X103478273Y-115601995D01*
X103249465Y-115754880D01*
X103054880Y-115949465D01*
X102901995Y-116178273D01*
X102796686Y-116432510D01*
X102743000Y-116702408D01*
X77597000Y-116702408D01*
X77597000Y-114372017D01*
X102738090Y-114372017D01*
X102779078Y-114644133D01*
X102872364Y-114903023D01*
X102934344Y-115018980D01*
X103174435Y-115085960D01*
X103960395Y-114300000D01*
X104319605Y-114300000D01*
X105105565Y-115085960D01*
X105345656Y-115018980D01*
X105462756Y-114769952D01*
X105529023Y-114502865D01*
X105541910Y-114227983D01*
X105500922Y-113955867D01*
X105407636Y-113696977D01*
X105345656Y-113581020D01*
X105105565Y-113514040D01*
X104319605Y-114300000D01*
X103960395Y-114300000D01*
X103174435Y-113514040D01*
X102934344Y-113581020D01*
X102817244Y-113830048D01*
X102750977Y-114097135D01*
X102738090Y-114372017D01*
X77597000Y-114372017D01*
X77597000Y-109347000D01*
X86150000Y-109347000D01*
X86150000Y-109946000D01*
X86204751Y-110247901D01*
X86317348Y-110533319D01*
X86483464Y-110791286D01*
X86696715Y-111011889D01*
X86948906Y-111186650D01*
X87230345Y-111308853D01*
X87341336Y-111334812D01*
X87583000Y-111214483D01*
X87583000Y-109347000D01*
X87837000Y-109347000D01*
X87837000Y-111214483D01*
X88078664Y-111334812D01*
X88189655Y-111308853D01*
X88471094Y-111186650D01*
X88723285Y-111011889D01*
X88936536Y-110791286D01*
X89102652Y-110533319D01*
X89215249Y-110247901D01*
X89270000Y-109946000D01*
X89270000Y-109347000D01*
X87837000Y-109347000D01*
X87583000Y-109347000D01*
X86150000Y-109347000D01*
X77597000Y-109347000D01*
X77597000Y-108494000D01*
X86150000Y-108494000D01*
X86150000Y-109093000D01*
X87583000Y-109093000D01*
X87583000Y-107225517D01*
X87837000Y-107225517D01*
X87837000Y-109093000D01*
X89270000Y-109093000D01*
X89270000Y-108544364D01*
X91150000Y-108544364D01*
X91150000Y-109895635D01*
X91172572Y-110124812D01*
X91261774Y-110418874D01*
X91406631Y-110689882D01*
X91601576Y-110927424D01*
X91839117Y-111122369D01*
X92110125Y-111267226D01*
X92404187Y-111356428D01*
X92710000Y-111386548D01*
X93015812Y-111356428D01*
X93309874Y-111267226D01*
X93580882Y-111122369D01*
X93818424Y-110927424D01*
X94013369Y-110689883D01*
X94158226Y-110418875D01*
X94179523Y-110348665D01*
X97625000Y-110348665D01*
X97625000Y-110631335D01*
X97680147Y-110908574D01*
X97788320Y-111169727D01*
X97945363Y-111404759D01*
X98145241Y-111604637D01*
X98380273Y-111761680D01*
X98641426Y-111869853D01*
X98918665Y-111925000D01*
X99201335Y-111925000D01*
X99478574Y-111869853D01*
X99739727Y-111761680D01*
X99974759Y-111604637D01*
X100174637Y-111404759D01*
X100331680Y-111169727D01*
X100439853Y-110908574D01*
X100495000Y-110631335D01*
X100495000Y-110348665D01*
X100439853Y-110071426D01*
X100331680Y-109810273D01*
X100174637Y-109575241D01*
X99974759Y-109375363D01*
X99739727Y-109218320D01*
X99478574Y-109110147D01*
X99201335Y-109055000D01*
X98918665Y-109055000D01*
X98641426Y-109110147D01*
X98380273Y-109218320D01*
X98145241Y-109375363D01*
X97945363Y-109575241D01*
X97788320Y-109810273D01*
X97680147Y-110071426D01*
X97625000Y-110348665D01*
X94179523Y-110348665D01*
X94247428Y-110124813D01*
X94270000Y-109895636D01*
X94270000Y-108544364D01*
X94247428Y-108315187D01*
X94158226Y-108021125D01*
X94013369Y-107750117D01*
X93818424Y-107512576D01*
X93580883Y-107317631D01*
X93309875Y-107172774D01*
X93015813Y-107083572D01*
X92710000Y-107053452D01*
X92404188Y-107083572D01*
X92110126Y-107172774D01*
X91839118Y-107317631D01*
X91601577Y-107512576D01*
X91406632Y-107750117D01*
X91261774Y-108021125D01*
X91172572Y-108315187D01*
X91150000Y-108544364D01*
X89270000Y-108544364D01*
X89270000Y-108494000D01*
X89215249Y-108192099D01*
X89102652Y-107906681D01*
X88936536Y-107648714D01*
X88723285Y-107428111D01*
X88471094Y-107253350D01*
X88189655Y-107131147D01*
X88078664Y-107105188D01*
X87837000Y-107225517D01*
X87583000Y-107225517D01*
X87341336Y-107105188D01*
X87230345Y-107131147D01*
X86948906Y-107253350D01*
X86696715Y-107428111D01*
X86483464Y-107648714D01*
X86317348Y-107906681D01*
X86204751Y-108192099D01*
X86150000Y-108494000D01*
X77597000Y-108494000D01*
X77597000Y-104560000D01*
X79791928Y-104560000D01*
X79791928Y-106260000D01*
X79804188Y-106384482D01*
X79840498Y-106504180D01*
X79899463Y-106614494D01*
X79978815Y-106711185D01*
X80075506Y-106790537D01*
X80185820Y-106849502D01*
X80305518Y-106885812D01*
X80430000Y-106898072D01*
X82130000Y-106898072D01*
X82254482Y-106885812D01*
X82374180Y-106849502D01*
X82484494Y-106790537D01*
X82581185Y-106711185D01*
X82660537Y-106614494D01*
X82719502Y-106504180D01*
X82755812Y-106384482D01*
X82768072Y-106260000D01*
X82768072Y-105268665D01*
X84925000Y-105268665D01*
X84925000Y-105551335D01*
X84980147Y-105828574D01*
X85088320Y-106089727D01*
X85245363Y-106324759D01*
X85445241Y-106524637D01*
X85680273Y-106681680D01*
X85941426Y-106789853D01*
X86218665Y-106845000D01*
X86501335Y-106845000D01*
X86778574Y-106789853D01*
X87039727Y-106681680D01*
X87274759Y-106524637D01*
X87474637Y-106324759D01*
X87631680Y-106089727D01*
X87739853Y-105828574D01*
X87795000Y-105551335D01*
X87795000Y-105268665D01*
X91275000Y-105268665D01*
X91275000Y-105551335D01*
X91330147Y-105828574D01*
X91438320Y-106089727D01*
X91595363Y-106324759D01*
X91795241Y-106524637D01*
X92030273Y-106681680D01*
X92291426Y-106789853D01*
X92568665Y-106845000D01*
X92851335Y-106845000D01*
X93128574Y-106789853D01*
X93389727Y-106681680D01*
X93598162Y-106542408D01*
X102743000Y-106542408D01*
X102743000Y-106817592D01*
X102796686Y-107087490D01*
X102901995Y-107341727D01*
X103054880Y-107570535D01*
X103249465Y-107765120D01*
X103478273Y-107918005D01*
X103555515Y-107950000D01*
X103478273Y-107981995D01*
X103249465Y-108134880D01*
X103054880Y-108329465D01*
X102901995Y-108558273D01*
X102796686Y-108812510D01*
X102743000Y-109082408D01*
X102743000Y-109357592D01*
X102796686Y-109627490D01*
X102901995Y-109881727D01*
X103054880Y-110110535D01*
X103249465Y-110305120D01*
X103478273Y-110458005D01*
X103555515Y-110490000D01*
X103478273Y-110521995D01*
X103249465Y-110674880D01*
X103054880Y-110869465D01*
X102901995Y-111098273D01*
X102796686Y-111352510D01*
X102743000Y-111622408D01*
X102743000Y-111897592D01*
X102796686Y-112167490D01*
X102901995Y-112421727D01*
X103054880Y-112650535D01*
X103249465Y-112845120D01*
X103478273Y-112998005D01*
X103549943Y-113027692D01*
X103536977Y-113032364D01*
X103421020Y-113094344D01*
X103354040Y-113334435D01*
X104140000Y-114120395D01*
X104925960Y-113334435D01*
X104858980Y-113094344D01*
X104723240Y-113030515D01*
X104801727Y-112998005D01*
X105030535Y-112845120D01*
X105225120Y-112650535D01*
X105260146Y-112598115D01*
X108645000Y-112598115D01*
X108645000Y-113461885D01*
X108813513Y-114309057D01*
X109144064Y-115107076D01*
X109623948Y-115825274D01*
X110234726Y-116436052D01*
X110952924Y-116915936D01*
X111750943Y-117246487D01*
X112598115Y-117415000D01*
X113461885Y-117415000D01*
X114309057Y-117246487D01*
X115107076Y-116915936D01*
X115825274Y-116436052D01*
X116436052Y-115825274D01*
X116915936Y-115107076D01*
X117246487Y-114309057D01*
X117415000Y-113461885D01*
X117415000Y-112598115D01*
X117246487Y-111750943D01*
X116915936Y-110952924D01*
X116436052Y-110234726D01*
X115825274Y-109623948D01*
X115107076Y-109144064D01*
X114309057Y-108813513D01*
X113461885Y-108645000D01*
X112598115Y-108645000D01*
X111750943Y-108813513D01*
X110952924Y-109144064D01*
X110234726Y-109623948D01*
X109623948Y-110234726D01*
X109144064Y-110952924D01*
X108813513Y-111750943D01*
X108645000Y-112598115D01*
X105260146Y-112598115D01*
X105378005Y-112421727D01*
X105483314Y-112167490D01*
X105537000Y-111897592D01*
X105537000Y-111622408D01*
X105483314Y-111352510D01*
X105378005Y-111098273D01*
X105225120Y-110869465D01*
X105030535Y-110674880D01*
X104801727Y-110521995D01*
X104724485Y-110490000D01*
X104801727Y-110458005D01*
X105030535Y-110305120D01*
X105225120Y-110110535D01*
X105378005Y-109881727D01*
X105483314Y-109627490D01*
X105537000Y-109357592D01*
X105537000Y-109082408D01*
X105483314Y-108812510D01*
X105378005Y-108558273D01*
X105225120Y-108329465D01*
X105030535Y-108134880D01*
X104801727Y-107981995D01*
X104724485Y-107950000D01*
X104801727Y-107918005D01*
X105030535Y-107765120D01*
X105225120Y-107570535D01*
X105312341Y-107440000D01*
X121605199Y-107440000D01*
X130713628Y-116548430D01*
X130683000Y-116702408D01*
X130683000Y-116977592D01*
X130736686Y-117247490D01*
X130841995Y-117501727D01*
X130994880Y-117730535D01*
X131189465Y-117925120D01*
X131418273Y-118078005D01*
X131672510Y-118183314D01*
X131942408Y-118237000D01*
X132217592Y-118237000D01*
X132487490Y-118183314D01*
X132741727Y-118078005D01*
X132970535Y-117925120D01*
X133165120Y-117730535D01*
X133318005Y-117501727D01*
X133423314Y-117247490D01*
X133477000Y-116977592D01*
X133477000Y-116702408D01*
X133423314Y-116432510D01*
X133318005Y-116178273D01*
X133165120Y-115949465D01*
X132970535Y-115754880D01*
X132741727Y-115601995D01*
X132670057Y-115572308D01*
X132683023Y-115567636D01*
X132798980Y-115505656D01*
X132865960Y-115265565D01*
X132080000Y-114479605D01*
X132065858Y-114493748D01*
X131886253Y-114314143D01*
X131900395Y-114300000D01*
X132259605Y-114300000D01*
X133045565Y-115085960D01*
X133285656Y-115018980D01*
X133402756Y-114769952D01*
X133469023Y-114502865D01*
X133481910Y-114227983D01*
X133440922Y-113955867D01*
X133347636Y-113696977D01*
X133285656Y-113581020D01*
X133045565Y-113514040D01*
X132259605Y-114300000D01*
X131900395Y-114300000D01*
X131114435Y-113514040D01*
X130874344Y-113581020D01*
X130757244Y-113830048D01*
X130690977Y-114097135D01*
X130678481Y-114363679D01*
X122680000Y-106365199D01*
X122680000Y-104454801D01*
X128212393Y-98922408D01*
X130683000Y-98922408D01*
X130683000Y-99197592D01*
X130736686Y-99467490D01*
X130841995Y-99721727D01*
X130994880Y-99950535D01*
X131189465Y-100145120D01*
X131418273Y-100298005D01*
X131495515Y-100330000D01*
X131418273Y-100361995D01*
X131189465Y-100514880D01*
X130994880Y-100709465D01*
X130841995Y-100938273D01*
X130736686Y-101192510D01*
X130683000Y-101462408D01*
X130683000Y-101737592D01*
X130736686Y-102007490D01*
X130841995Y-102261727D01*
X130994880Y-102490535D01*
X131189465Y-102685120D01*
X131418273Y-102838005D01*
X131495515Y-102870000D01*
X131418273Y-102901995D01*
X131189465Y-103054880D01*
X130994880Y-103249465D01*
X130841995Y-103478273D01*
X130736686Y-103732510D01*
X130683000Y-104002408D01*
X130683000Y-104277592D01*
X130736686Y-104547490D01*
X130841995Y-104801727D01*
X130994880Y-105030535D01*
X131189465Y-105225120D01*
X131418273Y-105378005D01*
X131495515Y-105410000D01*
X131418273Y-105441995D01*
X131189465Y-105594880D01*
X130994880Y-105789465D01*
X130841995Y-106018273D01*
X130736686Y-106272510D01*
X130683000Y-106542408D01*
X130683000Y-106817592D01*
X130736686Y-107087490D01*
X130841995Y-107341727D01*
X130994880Y-107570535D01*
X131189465Y-107765120D01*
X131418273Y-107918005D01*
X131495515Y-107950000D01*
X131418273Y-107981995D01*
X131189465Y-108134880D01*
X130994880Y-108329465D01*
X130841995Y-108558273D01*
X130736686Y-108812510D01*
X130683000Y-109082408D01*
X130683000Y-109357592D01*
X130736686Y-109627490D01*
X130841995Y-109881727D01*
X130994880Y-110110535D01*
X131189465Y-110305120D01*
X131418273Y-110458005D01*
X131495515Y-110490000D01*
X131418273Y-110521995D01*
X131189465Y-110674880D01*
X130994880Y-110869465D01*
X130841995Y-111098273D01*
X130736686Y-111352510D01*
X130683000Y-111622408D01*
X130683000Y-111897592D01*
X130736686Y-112167490D01*
X130841995Y-112421727D01*
X130994880Y-112650535D01*
X131189465Y-112845120D01*
X131418273Y-112998005D01*
X131489943Y-113027692D01*
X131476977Y-113032364D01*
X131361020Y-113094344D01*
X131294040Y-113334435D01*
X132080000Y-114120395D01*
X132865960Y-113334435D01*
X132798980Y-113094344D01*
X132663240Y-113030515D01*
X132741727Y-112998005D01*
X132970535Y-112845120D01*
X133165120Y-112650535D01*
X133318005Y-112421727D01*
X133423314Y-112167490D01*
X133477000Y-111897592D01*
X133477000Y-111622408D01*
X133423314Y-111352510D01*
X133318005Y-111098273D01*
X133165120Y-110869465D01*
X132970535Y-110674880D01*
X132741727Y-110521995D01*
X132664485Y-110490000D01*
X132741727Y-110458005D01*
X132970535Y-110305120D01*
X133165120Y-110110535D01*
X133318005Y-109881727D01*
X133423314Y-109627490D01*
X133477000Y-109357592D01*
X133477000Y-109082408D01*
X133423314Y-108812510D01*
X133318005Y-108558273D01*
X133165120Y-108329465D01*
X132970535Y-108134880D01*
X132741727Y-107981995D01*
X132664485Y-107950000D01*
X132741727Y-107918005D01*
X132970535Y-107765120D01*
X133000655Y-107735000D01*
X135671928Y-107735000D01*
X135671928Y-109435000D01*
X135684188Y-109559482D01*
X135720498Y-109679180D01*
X135779463Y-109789494D01*
X135858815Y-109886185D01*
X135955506Y-109965537D01*
X136065820Y-110024502D01*
X136138380Y-110046513D01*
X136006525Y-110178368D01*
X135844010Y-110421589D01*
X135732068Y-110691842D01*
X135675000Y-110978740D01*
X135675000Y-111271260D01*
X135732068Y-111558158D01*
X135844010Y-111828411D01*
X136006525Y-112071632D01*
X136138380Y-112203487D01*
X136065820Y-112225498D01*
X135955506Y-112284463D01*
X135858815Y-112363815D01*
X135779463Y-112460506D01*
X135720498Y-112570820D01*
X135684188Y-112690518D01*
X135671928Y-112815000D01*
X135671928Y-114515000D01*
X135684188Y-114639482D01*
X135720498Y-114759180D01*
X135779463Y-114869494D01*
X135858815Y-114966185D01*
X135955506Y-115045537D01*
X136065820Y-115104502D01*
X136138380Y-115126513D01*
X136006525Y-115258368D01*
X135844010Y-115501589D01*
X135732068Y-115771842D01*
X135675000Y-116058740D01*
X135675000Y-116351260D01*
X135732068Y-116638158D01*
X135844010Y-116908411D01*
X136006525Y-117151632D01*
X136138380Y-117283487D01*
X136065820Y-117305498D01*
X135955506Y-117364463D01*
X135858815Y-117443815D01*
X135779463Y-117540506D01*
X135720498Y-117650820D01*
X135684188Y-117770518D01*
X135671928Y-117895000D01*
X135671928Y-119595000D01*
X135684188Y-119719482D01*
X135720498Y-119839180D01*
X135779463Y-119949494D01*
X135858815Y-120046185D01*
X135955506Y-120125537D01*
X136065820Y-120184502D01*
X136138380Y-120206513D01*
X136006525Y-120338368D01*
X135844010Y-120581589D01*
X135732068Y-120851842D01*
X135675000Y-121138740D01*
X135675000Y-121431260D01*
X135732068Y-121718158D01*
X135844010Y-121988411D01*
X136006525Y-122231632D01*
X136213368Y-122438475D01*
X136456589Y-122600990D01*
X136726842Y-122712932D01*
X137013740Y-122770000D01*
X137306260Y-122770000D01*
X137593158Y-122712932D01*
X137863411Y-122600990D01*
X138106632Y-122438475D01*
X138313475Y-122231632D01*
X138430000Y-122057240D01*
X138546525Y-122231632D01*
X138753368Y-122438475D01*
X138996589Y-122600990D01*
X139266842Y-122712932D01*
X139553740Y-122770000D01*
X139846260Y-122770000D01*
X140133158Y-122712932D01*
X140403411Y-122600990D01*
X140646632Y-122438475D01*
X140853475Y-122231632D01*
X140970000Y-122057240D01*
X141086525Y-122231632D01*
X141293368Y-122438475D01*
X141536589Y-122600990D01*
X141806842Y-122712932D01*
X142093740Y-122770000D01*
X142386260Y-122770000D01*
X142673158Y-122712932D01*
X142943411Y-122600990D01*
X143186632Y-122438475D01*
X143393475Y-122231632D01*
X143510000Y-122057240D01*
X143626525Y-122231632D01*
X143833368Y-122438475D01*
X144076589Y-122600990D01*
X144346842Y-122712932D01*
X144633740Y-122770000D01*
X144926260Y-122770000D01*
X145213158Y-122712932D01*
X145483411Y-122600990D01*
X145726632Y-122438475D01*
X145933475Y-122231632D01*
X146050000Y-122057240D01*
X146166525Y-122231632D01*
X146373368Y-122438475D01*
X146616589Y-122600990D01*
X146886842Y-122712932D01*
X147173740Y-122770000D01*
X147466260Y-122770000D01*
X147753158Y-122712932D01*
X148023411Y-122600990D01*
X148266632Y-122438475D01*
X148473475Y-122231632D01*
X148590000Y-122057240D01*
X148706525Y-122231632D01*
X148913368Y-122438475D01*
X149156589Y-122600990D01*
X149426842Y-122712932D01*
X149713740Y-122770000D01*
X150006260Y-122770000D01*
X150293158Y-122712932D01*
X150563411Y-122600990D01*
X150806632Y-122438475D01*
X151013475Y-122231632D01*
X151130000Y-122057240D01*
X151246525Y-122231632D01*
X151453368Y-122438475D01*
X151696589Y-122600990D01*
X151966842Y-122712932D01*
X152253740Y-122770000D01*
X152546260Y-122770000D01*
X152833158Y-122712932D01*
X153103411Y-122600990D01*
X153346632Y-122438475D01*
X153553475Y-122231632D01*
X153670000Y-122057240D01*
X153786525Y-122231632D01*
X153993368Y-122438475D01*
X154236589Y-122600990D01*
X154506842Y-122712932D01*
X154793740Y-122770000D01*
X155086260Y-122770000D01*
X155373158Y-122712932D01*
X155643411Y-122600990D01*
X155886632Y-122438475D01*
X156093475Y-122231632D01*
X156210000Y-122057240D01*
X156326525Y-122231632D01*
X156533368Y-122438475D01*
X156776589Y-122600990D01*
X157046842Y-122712932D01*
X157333740Y-122770000D01*
X157626260Y-122770000D01*
X157913158Y-122712932D01*
X158183411Y-122600990D01*
X158426632Y-122438475D01*
X158633475Y-122231632D01*
X158750000Y-122057240D01*
X158866525Y-122231632D01*
X159073368Y-122438475D01*
X159316589Y-122600990D01*
X159586842Y-122712932D01*
X159873740Y-122770000D01*
X160166260Y-122770000D01*
X160453158Y-122712932D01*
X160723411Y-122600990D01*
X160966632Y-122438475D01*
X161173475Y-122231632D01*
X161290000Y-122057240D01*
X161406525Y-122231632D01*
X161613368Y-122438475D01*
X161856589Y-122600990D01*
X162126842Y-122712932D01*
X162413740Y-122770000D01*
X162706260Y-122770000D01*
X162993158Y-122712932D01*
X163263411Y-122600990D01*
X163506632Y-122438475D01*
X163713475Y-122231632D01*
X163830000Y-122057240D01*
X163946525Y-122231632D01*
X164153368Y-122438475D01*
X164396589Y-122600990D01*
X164666842Y-122712932D01*
X164953740Y-122770000D01*
X165246260Y-122770000D01*
X165533158Y-122712932D01*
X165803411Y-122600990D01*
X166046632Y-122438475D01*
X166253475Y-122231632D01*
X166415990Y-121988411D01*
X166527932Y-121718158D01*
X166585000Y-121431260D01*
X166585000Y-121138740D01*
X166527932Y-120851842D01*
X166415990Y-120581589D01*
X166253475Y-120338368D01*
X166046632Y-120131525D01*
X165872240Y-120015000D01*
X166046632Y-119898475D01*
X166253475Y-119691632D01*
X166415990Y-119448411D01*
X166527932Y-119178158D01*
X166585000Y-118891260D01*
X166585000Y-118598740D01*
X166527932Y-118311842D01*
X166415990Y-118041589D01*
X166253475Y-117798368D01*
X166046632Y-117591525D01*
X165872240Y-117475000D01*
X166046632Y-117358475D01*
X166253475Y-117151632D01*
X166415990Y-116908411D01*
X166527932Y-116638158D01*
X166585000Y-116351260D01*
X166585000Y-116058740D01*
X166527932Y-115771842D01*
X166415990Y-115501589D01*
X166253475Y-115258368D01*
X166046632Y-115051525D01*
X165872240Y-114935000D01*
X166046632Y-114818475D01*
X166253475Y-114611632D01*
X166415990Y-114368411D01*
X166527932Y-114098158D01*
X166585000Y-113811260D01*
X166585000Y-113518740D01*
X166527932Y-113231842D01*
X166415990Y-112961589D01*
X166253475Y-112718368D01*
X166046632Y-112511525D01*
X165872240Y-112395000D01*
X166046632Y-112278475D01*
X166253475Y-112071632D01*
X166415990Y-111828411D01*
X166527932Y-111558158D01*
X166585000Y-111271260D01*
X166585000Y-110978740D01*
X166527932Y-110691842D01*
X166415990Y-110421589D01*
X166253475Y-110178368D01*
X166046632Y-109971525D01*
X165872240Y-109855000D01*
X166046632Y-109738475D01*
X166253475Y-109531632D01*
X166415990Y-109288411D01*
X166527932Y-109018158D01*
X166585000Y-108731260D01*
X166585000Y-108438740D01*
X166527932Y-108151842D01*
X166415990Y-107881589D01*
X166253475Y-107638368D01*
X166046632Y-107431525D01*
X165803411Y-107269010D01*
X165533158Y-107157068D01*
X165246260Y-107100000D01*
X164953740Y-107100000D01*
X164666842Y-107157068D01*
X164396589Y-107269010D01*
X164153368Y-107431525D01*
X163946525Y-107638368D01*
X163830000Y-107812760D01*
X163713475Y-107638368D01*
X163506632Y-107431525D01*
X163263411Y-107269010D01*
X162993158Y-107157068D01*
X162706260Y-107100000D01*
X162413740Y-107100000D01*
X162126842Y-107157068D01*
X161856589Y-107269010D01*
X161613368Y-107431525D01*
X161406525Y-107638368D01*
X161290000Y-107812760D01*
X161173475Y-107638368D01*
X160966632Y-107431525D01*
X160723411Y-107269010D01*
X160453158Y-107157068D01*
X160166260Y-107100000D01*
X159873740Y-107100000D01*
X159586842Y-107157068D01*
X159316589Y-107269010D01*
X159073368Y-107431525D01*
X158866525Y-107638368D01*
X158750000Y-107812760D01*
X158633475Y-107638368D01*
X158426632Y-107431525D01*
X158183411Y-107269010D01*
X157913158Y-107157068D01*
X157626260Y-107100000D01*
X157333740Y-107100000D01*
X157046842Y-107157068D01*
X156776589Y-107269010D01*
X156533368Y-107431525D01*
X156326525Y-107638368D01*
X156210000Y-107812760D01*
X156093475Y-107638368D01*
X155886632Y-107431525D01*
X155643411Y-107269010D01*
X155373158Y-107157068D01*
X155086260Y-107100000D01*
X154793740Y-107100000D01*
X154506842Y-107157068D01*
X154236589Y-107269010D01*
X153993368Y-107431525D01*
X153786525Y-107638368D01*
X153670000Y-107812760D01*
X153553475Y-107638368D01*
X153346632Y-107431525D01*
X153103411Y-107269010D01*
X152833158Y-107157068D01*
X152546260Y-107100000D01*
X152253740Y-107100000D01*
X151966842Y-107157068D01*
X151696589Y-107269010D01*
X151453368Y-107431525D01*
X151246525Y-107638368D01*
X151130000Y-107812760D01*
X151013475Y-107638368D01*
X150806632Y-107431525D01*
X150563411Y-107269010D01*
X150293158Y-107157068D01*
X150006260Y-107100000D01*
X149713740Y-107100000D01*
X149426842Y-107157068D01*
X149156589Y-107269010D01*
X148913368Y-107431525D01*
X148706525Y-107638368D01*
X148590000Y-107812760D01*
X148473475Y-107638368D01*
X148266632Y-107431525D01*
X148023411Y-107269010D01*
X147753158Y-107157068D01*
X147466260Y-107100000D01*
X147173740Y-107100000D01*
X146886842Y-107157068D01*
X146616589Y-107269010D01*
X146373368Y-107431525D01*
X146166525Y-107638368D01*
X146050000Y-107812760D01*
X145933475Y-107638368D01*
X145726632Y-107431525D01*
X145483411Y-107269010D01*
X145213158Y-107157068D01*
X144926260Y-107100000D01*
X144633740Y-107100000D01*
X144346842Y-107157068D01*
X144076589Y-107269010D01*
X143833368Y-107431525D01*
X143626525Y-107638368D01*
X143510000Y-107812760D01*
X143393475Y-107638368D01*
X143186632Y-107431525D01*
X142943411Y-107269010D01*
X142673158Y-107157068D01*
X142386260Y-107100000D01*
X142093740Y-107100000D01*
X141806842Y-107157068D01*
X141536589Y-107269010D01*
X141293368Y-107431525D01*
X141086525Y-107638368D01*
X140970000Y-107812760D01*
X140853475Y-107638368D01*
X140646632Y-107431525D01*
X140403411Y-107269010D01*
X140133158Y-107157068D01*
X139846260Y-107100000D01*
X139553740Y-107100000D01*
X139266842Y-107157068D01*
X138996589Y-107269010D01*
X138753368Y-107431525D01*
X138621513Y-107563380D01*
X138599502Y-107490820D01*
X138540537Y-107380506D01*
X138461185Y-107283815D01*
X138364494Y-107204463D01*
X138254180Y-107145498D01*
X138134482Y-107109188D01*
X138010000Y-107096928D01*
X136310000Y-107096928D01*
X136185518Y-107109188D01*
X136065820Y-107145498D01*
X135955506Y-107204463D01*
X135858815Y-107283815D01*
X135779463Y-107380506D01*
X135720498Y-107490820D01*
X135684188Y-107610518D01*
X135671928Y-107735000D01*
X133000655Y-107735000D01*
X133165120Y-107570535D01*
X133318005Y-107341727D01*
X133423314Y-107087490D01*
X133477000Y-106817592D01*
X133477000Y-106542408D01*
X133423314Y-106272510D01*
X133318005Y-106018273D01*
X133165120Y-105789465D01*
X132970535Y-105594880D01*
X132741727Y-105441995D01*
X132664485Y-105410000D01*
X132741727Y-105378005D01*
X132970535Y-105225120D01*
X133165120Y-105030535D01*
X133318005Y-104801727D01*
X133423314Y-104547490D01*
X133477000Y-104277592D01*
X133477000Y-104002408D01*
X133476256Y-103998665D01*
X141440000Y-103998665D01*
X141440000Y-104281335D01*
X141495147Y-104558574D01*
X141603320Y-104819727D01*
X141760363Y-105054759D01*
X141960241Y-105254637D01*
X142195273Y-105411680D01*
X142456426Y-105519853D01*
X142733665Y-105575000D01*
X143016335Y-105575000D01*
X143293574Y-105519853D01*
X143554727Y-105411680D01*
X143789759Y-105254637D01*
X143989637Y-105054759D01*
X144146680Y-104819727D01*
X144254853Y-104558574D01*
X144310000Y-104281335D01*
X144310000Y-103998665D01*
X144254853Y-103721426D01*
X144146680Y-103460273D01*
X143989637Y-103225241D01*
X143849396Y-103085000D01*
X157261928Y-103085000D01*
X157274188Y-103209482D01*
X157310498Y-103329180D01*
X157369463Y-103439494D01*
X157448815Y-103536185D01*
X157545506Y-103615537D01*
X157655820Y-103674502D01*
X157775518Y-103710812D01*
X157900000Y-103723072D01*
X158464250Y-103720000D01*
X158623000Y-103561250D01*
X158623000Y-102362000D01*
X157423750Y-102362000D01*
X157265000Y-102520750D01*
X157261928Y-103085000D01*
X143849396Y-103085000D01*
X143789759Y-103025363D01*
X143554727Y-102868320D01*
X143293574Y-102760147D01*
X143016335Y-102705000D01*
X142733665Y-102705000D01*
X142456426Y-102760147D01*
X142195273Y-102868320D01*
X141960241Y-103025363D01*
X141760363Y-103225241D01*
X141603320Y-103460273D01*
X141495147Y-103721426D01*
X141440000Y-103998665D01*
X133476256Y-103998665D01*
X133446372Y-103848429D01*
X136494801Y-100800000D01*
X147786928Y-100800000D01*
X147786928Y-102400000D01*
X147799188Y-102524482D01*
X147835498Y-102644180D01*
X147894463Y-102754494D01*
X147973815Y-102851185D01*
X148070506Y-102930537D01*
X148180820Y-102989502D01*
X148300518Y-103025812D01*
X148425000Y-103038072D01*
X150025000Y-103038072D01*
X150149482Y-103025812D01*
X150269180Y-102989502D01*
X150379494Y-102930537D01*
X150476185Y-102851185D01*
X150555537Y-102754494D01*
X150614502Y-102644180D01*
X150630117Y-102592702D01*
X151911903Y-102592702D01*
X151983486Y-102836671D01*
X152238996Y-102957571D01*
X152513184Y-103026300D01*
X152795512Y-103040217D01*
X153075130Y-102998787D01*
X153341292Y-102903603D01*
X153466514Y-102836671D01*
X153538097Y-102592702D01*
X152725000Y-101779605D01*
X151911903Y-102592702D01*
X150630117Y-102592702D01*
X150650812Y-102524482D01*
X150663072Y-102400000D01*
X150663072Y-101670512D01*
X151284783Y-101670512D01*
X151326213Y-101950130D01*
X151421397Y-102216292D01*
X151488329Y-102341514D01*
X151732298Y-102413097D01*
X152545395Y-101600000D01*
X152904605Y-101600000D01*
X153717702Y-102413097D01*
X153961671Y-102341514D01*
X154082571Y-102086004D01*
X154151300Y-101811816D01*
X154165217Y-101529488D01*
X154143809Y-101385000D01*
X157261928Y-101385000D01*
X157265000Y-101949250D01*
X157423750Y-102108000D01*
X158623000Y-102108000D01*
X158623000Y-100908750D01*
X158877000Y-100908750D01*
X158877000Y-102108000D01*
X158897000Y-102108000D01*
X158897000Y-102362000D01*
X158877000Y-102362000D01*
X158877000Y-103561250D01*
X159035750Y-103720000D01*
X159600000Y-103723072D01*
X159724482Y-103710812D01*
X159844180Y-103674502D01*
X159954494Y-103615537D01*
X160051185Y-103536185D01*
X160130537Y-103439494D01*
X160189502Y-103329180D01*
X160211513Y-103256620D01*
X160343368Y-103388475D01*
X160586589Y-103550990D01*
X160856842Y-103662932D01*
X161143740Y-103720000D01*
X161436260Y-103720000D01*
X161723158Y-103662932D01*
X161993411Y-103550990D01*
X162236632Y-103388475D01*
X162443475Y-103181632D01*
X162560000Y-103007240D01*
X162676525Y-103181632D01*
X162883368Y-103388475D01*
X163126589Y-103550990D01*
X163396842Y-103662932D01*
X163683740Y-103720000D01*
X163976260Y-103720000D01*
X164263158Y-103662932D01*
X164533411Y-103550990D01*
X164776632Y-103388475D01*
X164983475Y-103181632D01*
X165145990Y-102938411D01*
X165257932Y-102668158D01*
X165315000Y-102381260D01*
X165315000Y-102088740D01*
X165257932Y-101801842D01*
X165145990Y-101531589D01*
X164983475Y-101288368D01*
X164776632Y-101081525D01*
X164533411Y-100919010D01*
X164263158Y-100807068D01*
X163976260Y-100750000D01*
X163683740Y-100750000D01*
X163396842Y-100807068D01*
X163126589Y-100919010D01*
X162883368Y-101081525D01*
X162676525Y-101288368D01*
X162560000Y-101462760D01*
X162443475Y-101288368D01*
X162236632Y-101081525D01*
X161993411Y-100919010D01*
X161723158Y-100807068D01*
X161436260Y-100750000D01*
X161143740Y-100750000D01*
X160856842Y-100807068D01*
X160586589Y-100919010D01*
X160343368Y-101081525D01*
X160211513Y-101213380D01*
X160189502Y-101140820D01*
X160130537Y-101030506D01*
X160051185Y-100933815D01*
X159954494Y-100854463D01*
X159844180Y-100795498D01*
X159724482Y-100759188D01*
X159600000Y-100746928D01*
X159035750Y-100750000D01*
X158877000Y-100908750D01*
X158623000Y-100908750D01*
X158464250Y-100750000D01*
X157900000Y-100746928D01*
X157775518Y-100759188D01*
X157655820Y-100795498D01*
X157545506Y-100854463D01*
X157448815Y-100933815D01*
X157369463Y-101030506D01*
X157310498Y-101140820D01*
X157274188Y-101260518D01*
X157261928Y-101385000D01*
X154143809Y-101385000D01*
X154123787Y-101249870D01*
X154028603Y-100983708D01*
X153961671Y-100858486D01*
X153717702Y-100786903D01*
X152904605Y-101600000D01*
X152545395Y-101600000D01*
X151732298Y-100786903D01*
X151488329Y-100858486D01*
X151367429Y-101113996D01*
X151298700Y-101388184D01*
X151284783Y-101670512D01*
X150663072Y-101670512D01*
X150663072Y-100800000D01*
X150650812Y-100675518D01*
X150630118Y-100607298D01*
X151911903Y-100607298D01*
X152725000Y-101420395D01*
X153538097Y-100607298D01*
X153466514Y-100363329D01*
X153211004Y-100242429D01*
X152936816Y-100173700D01*
X152654488Y-100159783D01*
X152374870Y-100201213D01*
X152108708Y-100296397D01*
X151983486Y-100363329D01*
X151911903Y-100607298D01*
X150630118Y-100607298D01*
X150614502Y-100555820D01*
X150555537Y-100445506D01*
X150476185Y-100348815D01*
X150379494Y-100269463D01*
X150269180Y-100210498D01*
X150149482Y-100174188D01*
X150025000Y-100161928D01*
X148425000Y-100161928D01*
X148300518Y-100174188D01*
X148180820Y-100210498D01*
X148070506Y-100269463D01*
X147973815Y-100348815D01*
X147894463Y-100445506D01*
X147835498Y-100555820D01*
X147799188Y-100675518D01*
X147786928Y-100800000D01*
X136494801Y-100800000D01*
X137716730Y-99578072D01*
X138045000Y-99578072D01*
X138069450Y-99575664D01*
X138094009Y-99575664D01*
X138218490Y-99563404D01*
X138314623Y-99544282D01*
X138434319Y-99507973D01*
X138524875Y-99470464D01*
X138635192Y-99411498D01*
X138716691Y-99357042D01*
X138813382Y-99277690D01*
X138882690Y-99208382D01*
X138962042Y-99111691D01*
X139010504Y-99039163D01*
X139082593Y-98980001D01*
X139106396Y-98950997D01*
X139162393Y-98895000D01*
X170011928Y-98895000D01*
X170011928Y-100495000D01*
X170024188Y-100619482D01*
X170060498Y-100739180D01*
X170119463Y-100849494D01*
X170198815Y-100946185D01*
X170295506Y-101025537D01*
X170405820Y-101084502D01*
X170525518Y-101120812D01*
X170650000Y-101133072D01*
X172250000Y-101133072D01*
X172374482Y-101120812D01*
X172494180Y-101084502D01*
X172604494Y-101025537D01*
X172701185Y-100946185D01*
X172780537Y-100849494D01*
X172839502Y-100739180D01*
X172875812Y-100619482D01*
X172888072Y-100495000D01*
X172888072Y-98895000D01*
X172875812Y-98770518D01*
X172839502Y-98650820D01*
X172780537Y-98540506D01*
X172701185Y-98443815D01*
X172604494Y-98364463D01*
X172494180Y-98305498D01*
X172374482Y-98269188D01*
X172250000Y-98256928D01*
X172242785Y-98256928D01*
X172263097Y-98187702D01*
X171450000Y-97374605D01*
X170636903Y-98187702D01*
X170657215Y-98256928D01*
X170650000Y-98256928D01*
X170525518Y-98269188D01*
X170405820Y-98305498D01*
X170295506Y-98364463D01*
X170198815Y-98443815D01*
X170119463Y-98540506D01*
X170060498Y-98650820D01*
X170024188Y-98770518D01*
X170011928Y-98895000D01*
X139162393Y-98895000D01*
X141639332Y-96418061D01*
X148190000Y-96418061D01*
X148190000Y-96621939D01*
X148229774Y-96821898D01*
X148307795Y-97010256D01*
X148421063Y-97179774D01*
X148565226Y-97323937D01*
X148734744Y-97437205D01*
X148923102Y-97515226D01*
X149123061Y-97555000D01*
X149326939Y-97555000D01*
X149526898Y-97515226D01*
X149715256Y-97437205D01*
X149884774Y-97323937D01*
X149928711Y-97280000D01*
X161507676Y-97280000D01*
X161544998Y-97283676D01*
X161582320Y-97280000D01*
X161582331Y-97280000D01*
X161693984Y-97269003D01*
X161705492Y-97265512D01*
X170009783Y-97265512D01*
X170051213Y-97545130D01*
X170146397Y-97811292D01*
X170213329Y-97936514D01*
X170457298Y-98008097D01*
X171270395Y-97195000D01*
X171629605Y-97195000D01*
X172442702Y-98008097D01*
X172686671Y-97936514D01*
X172807571Y-97681004D01*
X172876300Y-97406816D01*
X172890217Y-97124488D01*
X172848787Y-96844870D01*
X172753603Y-96578708D01*
X172686671Y-96453486D01*
X172442702Y-96381903D01*
X171629605Y-97195000D01*
X171270395Y-97195000D01*
X170457298Y-96381903D01*
X170213329Y-96453486D01*
X170092429Y-96708996D01*
X170023700Y-96983184D01*
X170009783Y-97265512D01*
X161705492Y-97265512D01*
X161837245Y-97225546D01*
X161969274Y-97154974D01*
X162084999Y-97060001D01*
X162108802Y-97030997D01*
X162937501Y-96202298D01*
X170636903Y-96202298D01*
X171450000Y-97015395D01*
X172263097Y-96202298D01*
X172191514Y-95958329D01*
X171936004Y-95837429D01*
X171661816Y-95768700D01*
X171379488Y-95754783D01*
X171099870Y-95796213D01*
X170833708Y-95891397D01*
X170708486Y-95958329D01*
X170636903Y-96202298D01*
X162937501Y-96202298D01*
X164397798Y-94742002D01*
X164408748Y-94742002D01*
X164250000Y-94900750D01*
X164246928Y-95465000D01*
X164259188Y-95589482D01*
X164295498Y-95709180D01*
X164354463Y-95819494D01*
X164433815Y-95916185D01*
X164530506Y-95995537D01*
X164640820Y-96054502D01*
X164760518Y-96090812D01*
X164885000Y-96103072D01*
X165449250Y-96100000D01*
X165608000Y-95941250D01*
X165608000Y-94742000D01*
X165862000Y-94742000D01*
X165862000Y-95941250D01*
X166020750Y-96100000D01*
X166585000Y-96103072D01*
X166709482Y-96090812D01*
X166829180Y-96054502D01*
X166939494Y-95995537D01*
X167036185Y-95916185D01*
X167115537Y-95819494D01*
X167174502Y-95709180D01*
X167210812Y-95589482D01*
X167223072Y-95465000D01*
X167220000Y-94900750D01*
X167061250Y-94742000D01*
X165862000Y-94742000D01*
X165608000Y-94742000D01*
X165588000Y-94742000D01*
X165588000Y-94488000D01*
X165608000Y-94488000D01*
X165608000Y-94468000D01*
X165862000Y-94468000D01*
X165862000Y-94488000D01*
X167061250Y-94488000D01*
X167220000Y-94329250D01*
X167223072Y-93765000D01*
X167210812Y-93640518D01*
X167174502Y-93520820D01*
X167115537Y-93410506D01*
X167036185Y-93313815D01*
X166939494Y-93234463D01*
X166829180Y-93175498D01*
X166756620Y-93153487D01*
X166888475Y-93021632D01*
X167050990Y-92778411D01*
X167162932Y-92508158D01*
X167220000Y-92221260D01*
X167220000Y-91928740D01*
X167162932Y-91641842D01*
X167050990Y-91371589D01*
X166888475Y-91128368D01*
X166681632Y-90921525D01*
X166507240Y-90805000D01*
X166681632Y-90688475D01*
X166888475Y-90481632D01*
X167050990Y-90238411D01*
X167162932Y-89968158D01*
X167220000Y-89681260D01*
X167220000Y-89388740D01*
X167162932Y-89101842D01*
X167050990Y-88831589D01*
X166888475Y-88588368D01*
X166681632Y-88381525D01*
X166507240Y-88265000D01*
X166681632Y-88148475D01*
X166888475Y-87941632D01*
X167050990Y-87698411D01*
X167162932Y-87428158D01*
X167220000Y-87141260D01*
X167220000Y-86848740D01*
X167162932Y-86561842D01*
X167050990Y-86291589D01*
X166888475Y-86048368D01*
X166681632Y-85841525D01*
X166507240Y-85725000D01*
X166681632Y-85608475D01*
X166888475Y-85401632D01*
X167050990Y-85158411D01*
X167162932Y-84888158D01*
X167220000Y-84601260D01*
X167220000Y-84308740D01*
X167162932Y-84021842D01*
X167050990Y-83751589D01*
X166888475Y-83508368D01*
X166681632Y-83301525D01*
X166507240Y-83185000D01*
X166681632Y-83068475D01*
X166888475Y-82861632D01*
X167050990Y-82618411D01*
X167162932Y-82348158D01*
X167220000Y-82061260D01*
X167220000Y-81768740D01*
X167162932Y-81481842D01*
X167050990Y-81211589D01*
X166953043Y-81065000D01*
X169961928Y-81065000D01*
X169961928Y-82765000D01*
X169974188Y-82889482D01*
X170010498Y-83009180D01*
X170069463Y-83119494D01*
X170148815Y-83216185D01*
X170245506Y-83295537D01*
X170355820Y-83354502D01*
X170428380Y-83376513D01*
X170296525Y-83508368D01*
X170134010Y-83751589D01*
X170022068Y-84021842D01*
X169965000Y-84308740D01*
X169965000Y-84601260D01*
X170022068Y-84888158D01*
X170134010Y-85158411D01*
X170296525Y-85401632D01*
X170503368Y-85608475D01*
X170677760Y-85725000D01*
X170503368Y-85841525D01*
X170296525Y-86048368D01*
X170134010Y-86291589D01*
X170022068Y-86561842D01*
X169965000Y-86848740D01*
X169965000Y-87141260D01*
X170022068Y-87428158D01*
X170134010Y-87698411D01*
X170296525Y-87941632D01*
X170503368Y-88148475D01*
X170677760Y-88265000D01*
X170503368Y-88381525D01*
X170296525Y-88588368D01*
X170134010Y-88831589D01*
X170022068Y-89101842D01*
X169965000Y-89388740D01*
X169965000Y-89681260D01*
X170022068Y-89968158D01*
X170134010Y-90238411D01*
X170296525Y-90481632D01*
X170503368Y-90688475D01*
X170746589Y-90850990D01*
X171016842Y-90962932D01*
X171303740Y-91020000D01*
X171596260Y-91020000D01*
X171883158Y-90962932D01*
X172153411Y-90850990D01*
X172396632Y-90688475D01*
X172603475Y-90481632D01*
X172765990Y-90238411D01*
X172877932Y-89968158D01*
X172935000Y-89681260D01*
X172935000Y-89388740D01*
X172877932Y-89101842D01*
X172765990Y-88831589D01*
X172603475Y-88588368D01*
X172396632Y-88381525D01*
X172222240Y-88265000D01*
X172396632Y-88148475D01*
X172603475Y-87941632D01*
X172765990Y-87698411D01*
X172877932Y-87428158D01*
X172935000Y-87141260D01*
X172935000Y-86848740D01*
X172877932Y-86561842D01*
X172765990Y-86291589D01*
X172603475Y-86048368D01*
X172396632Y-85841525D01*
X172222240Y-85725000D01*
X172396632Y-85608475D01*
X172603475Y-85401632D01*
X172765990Y-85158411D01*
X172877932Y-84888158D01*
X172935000Y-84601260D01*
X172935000Y-84308740D01*
X172877932Y-84021842D01*
X172765990Y-83751589D01*
X172603475Y-83508368D01*
X172471620Y-83376513D01*
X172544180Y-83354502D01*
X172654494Y-83295537D01*
X172751185Y-83216185D01*
X172830537Y-83119494D01*
X172889502Y-83009180D01*
X172925812Y-82889482D01*
X172938072Y-82765000D01*
X172938072Y-81065000D01*
X172925812Y-80940518D01*
X172889502Y-80820820D01*
X172830537Y-80710506D01*
X172751185Y-80613815D01*
X172654494Y-80534463D01*
X172544180Y-80475498D01*
X172424482Y-80439188D01*
X172300000Y-80426928D01*
X170600000Y-80426928D01*
X170475518Y-80439188D01*
X170355820Y-80475498D01*
X170245506Y-80534463D01*
X170148815Y-80613815D01*
X170069463Y-80710506D01*
X170010498Y-80820820D01*
X169974188Y-80940518D01*
X169961928Y-81065000D01*
X166953043Y-81065000D01*
X166888475Y-80968368D01*
X166681632Y-80761525D01*
X166499466Y-80639805D01*
X166616355Y-80570178D01*
X166832588Y-80375269D01*
X167006641Y-80141920D01*
X167131825Y-79879099D01*
X167176476Y-79731890D01*
X167055155Y-79502000D01*
X165862000Y-79502000D01*
X165862000Y-79522000D01*
X165608000Y-79522000D01*
X165608000Y-79502000D01*
X164414845Y-79502000D01*
X164293524Y-79731890D01*
X164338175Y-79879099D01*
X164463359Y-80141920D01*
X164637412Y-80375269D01*
X164853645Y-80570178D01*
X164970534Y-80639805D01*
X164788368Y-80761525D01*
X164581525Y-80968368D01*
X164419010Y-81211589D01*
X164307068Y-81481842D01*
X164250000Y-81768740D01*
X164250000Y-82061260D01*
X164307068Y-82348158D01*
X164419010Y-82618411D01*
X164581525Y-82861632D01*
X164788368Y-83068475D01*
X164962760Y-83185000D01*
X164788368Y-83301525D01*
X164581525Y-83508368D01*
X164419010Y-83751589D01*
X164307068Y-84021842D01*
X164250000Y-84308740D01*
X164250000Y-84601260D01*
X164307068Y-84888158D01*
X164419010Y-85158411D01*
X164581525Y-85401632D01*
X164788368Y-85608475D01*
X164962760Y-85725000D01*
X164788368Y-85841525D01*
X164581525Y-86048368D01*
X164419010Y-86291589D01*
X164307068Y-86561842D01*
X164250000Y-86848740D01*
X164250000Y-87141260D01*
X164307068Y-87428158D01*
X164419010Y-87698411D01*
X164581525Y-87941632D01*
X164788368Y-88148475D01*
X164962760Y-88265000D01*
X164788368Y-88381525D01*
X164581525Y-88588368D01*
X164419010Y-88831589D01*
X164307068Y-89101842D01*
X164250000Y-89388740D01*
X164250000Y-89681260D01*
X164307068Y-89968158D01*
X164419010Y-90238411D01*
X164581525Y-90481632D01*
X164788368Y-90688475D01*
X164962760Y-90805000D01*
X164788368Y-90921525D01*
X164581525Y-91128368D01*
X164419010Y-91371589D01*
X164307068Y-91641842D01*
X164250000Y-91928740D01*
X164250000Y-92221260D01*
X164307068Y-92508158D01*
X164358315Y-92631881D01*
X161230197Y-95760000D01*
X154447338Y-95760000D01*
X154474502Y-95709180D01*
X154510812Y-95589482D01*
X154523072Y-95465000D01*
X154523072Y-93765000D01*
X154510812Y-93640518D01*
X154474502Y-93520820D01*
X154415537Y-93410506D01*
X154336185Y-93313815D01*
X154239494Y-93234463D01*
X154129180Y-93175498D01*
X154056620Y-93153487D01*
X154188475Y-93021632D01*
X154350990Y-92778411D01*
X154462932Y-92508158D01*
X154520000Y-92221260D01*
X154520000Y-91928740D01*
X154462932Y-91641842D01*
X154350990Y-91371589D01*
X154188475Y-91128368D01*
X153981632Y-90921525D01*
X153807240Y-90805000D01*
X153981632Y-90688475D01*
X154188475Y-90481632D01*
X154350990Y-90238411D01*
X154462932Y-89968158D01*
X154520000Y-89681260D01*
X154520000Y-89388740D01*
X154462932Y-89101842D01*
X154350990Y-88831589D01*
X154188475Y-88588368D01*
X153981632Y-88381525D01*
X153807240Y-88265000D01*
X153981632Y-88148475D01*
X154188475Y-87941632D01*
X154350990Y-87698411D01*
X154462932Y-87428158D01*
X154520000Y-87141260D01*
X154520000Y-86848740D01*
X154462932Y-86561842D01*
X154350990Y-86291589D01*
X154188475Y-86048368D01*
X153981632Y-85841525D01*
X153807240Y-85725000D01*
X153981632Y-85608475D01*
X154188475Y-85401632D01*
X154350990Y-85158411D01*
X154462932Y-84888158D01*
X154520000Y-84601260D01*
X154520000Y-84308740D01*
X154462932Y-84021842D01*
X154350990Y-83751589D01*
X154188475Y-83508368D01*
X153981632Y-83301525D01*
X153807240Y-83185000D01*
X153981632Y-83068475D01*
X154188475Y-82861632D01*
X154350990Y-82618411D01*
X154462932Y-82348158D01*
X154520000Y-82061260D01*
X154520000Y-81768740D01*
X154462932Y-81481842D01*
X154350990Y-81211589D01*
X154188475Y-80968368D01*
X153981632Y-80761525D01*
X153807240Y-80645000D01*
X153981632Y-80528475D01*
X154188475Y-80321632D01*
X154350990Y-80078411D01*
X154462932Y-79808158D01*
X154520000Y-79521260D01*
X154520000Y-79228740D01*
X154462932Y-78941842D01*
X154350990Y-78671589D01*
X154188475Y-78428368D01*
X153981632Y-78221525D01*
X153807240Y-78105000D01*
X153981632Y-77988475D01*
X154188475Y-77781632D01*
X154305000Y-77607240D01*
X154421525Y-77781632D01*
X154628368Y-77988475D01*
X154871589Y-78150990D01*
X155141842Y-78262932D01*
X155428740Y-78320000D01*
X155721260Y-78320000D01*
X156008158Y-78262932D01*
X156278411Y-78150990D01*
X156521632Y-77988475D01*
X156728475Y-77781632D01*
X156845000Y-77607240D01*
X156961525Y-77781632D01*
X157168368Y-77988475D01*
X157411589Y-78150990D01*
X157681842Y-78262932D01*
X157968740Y-78320000D01*
X158261260Y-78320000D01*
X158548158Y-78262932D01*
X158818411Y-78150990D01*
X159061632Y-77988475D01*
X159268475Y-77781632D01*
X159430990Y-77538411D01*
X159542932Y-77268158D01*
X159600000Y-76981260D01*
X159600000Y-76688740D01*
X164250000Y-76688740D01*
X164250000Y-76981260D01*
X164307068Y-77268158D01*
X164419010Y-77538411D01*
X164581525Y-77781632D01*
X164788368Y-77988475D01*
X164970534Y-78110195D01*
X164853645Y-78179822D01*
X164637412Y-78374731D01*
X164463359Y-78608080D01*
X164338175Y-78870901D01*
X164293524Y-79018110D01*
X164414845Y-79248000D01*
X165608000Y-79248000D01*
X165608000Y-79228000D01*
X165862000Y-79228000D01*
X165862000Y-79248000D01*
X167055155Y-79248000D01*
X167176476Y-79018110D01*
X167131825Y-78870901D01*
X167006641Y-78608080D01*
X166832588Y-78374731D01*
X166616355Y-78179822D01*
X166499466Y-78110195D01*
X166681632Y-77988475D01*
X166888475Y-77781632D01*
X167050990Y-77538411D01*
X167162932Y-77268158D01*
X167220000Y-76981260D01*
X167220000Y-76688740D01*
X167162932Y-76401842D01*
X167050990Y-76131589D01*
X166888475Y-75888368D01*
X166681632Y-75681525D01*
X166438411Y-75519010D01*
X166168158Y-75407068D01*
X165881260Y-75350000D01*
X165588740Y-75350000D01*
X165301842Y-75407068D01*
X165031589Y-75519010D01*
X164788368Y-75681525D01*
X164581525Y-75888368D01*
X164419010Y-76131589D01*
X164307068Y-76401842D01*
X164250000Y-76688740D01*
X159600000Y-76688740D01*
X159542932Y-76401842D01*
X159430990Y-76131589D01*
X159268475Y-75888368D01*
X159061632Y-75681525D01*
X158818411Y-75519010D01*
X158548158Y-75407068D01*
X158261260Y-75350000D01*
X157968740Y-75350000D01*
X157681842Y-75407068D01*
X157411589Y-75519010D01*
X157168368Y-75681525D01*
X156961525Y-75888368D01*
X156845000Y-76062760D01*
X156728475Y-75888368D01*
X156521632Y-75681525D01*
X156278411Y-75519010D01*
X156008158Y-75407068D01*
X155721260Y-75350000D01*
X155428740Y-75350000D01*
X155141842Y-75407068D01*
X154871589Y-75519010D01*
X154628368Y-75681525D01*
X154421525Y-75888368D01*
X154305000Y-76062760D01*
X154188475Y-75888368D01*
X153981632Y-75681525D01*
X153738411Y-75519010D01*
X153468158Y-75407068D01*
X153181260Y-75350000D01*
X152888740Y-75350000D01*
X152601842Y-75407068D01*
X152331589Y-75519010D01*
X152088368Y-75681525D01*
X151881525Y-75888368D01*
X151719010Y-76131589D01*
X151607068Y-76401842D01*
X151550000Y-76688740D01*
X151550000Y-76981260D01*
X151607068Y-77268158D01*
X151719010Y-77538411D01*
X151881525Y-77781632D01*
X152088368Y-77988475D01*
X152262760Y-78105000D01*
X152088368Y-78221525D01*
X151881525Y-78428368D01*
X151719010Y-78671589D01*
X151607068Y-78941842D01*
X151550000Y-79228740D01*
X151550000Y-79521260D01*
X151607068Y-79808158D01*
X151719010Y-80078411D01*
X151881525Y-80321632D01*
X152088368Y-80528475D01*
X152262760Y-80645000D01*
X152088368Y-80761525D01*
X151881525Y-80968368D01*
X151719010Y-81211589D01*
X151607068Y-81481842D01*
X151550000Y-81768740D01*
X151550000Y-82061260D01*
X151607068Y-82348158D01*
X151719010Y-82618411D01*
X151881525Y-82861632D01*
X152088368Y-83068475D01*
X152262760Y-83185000D01*
X152088368Y-83301525D01*
X151881525Y-83508368D01*
X151719010Y-83751589D01*
X151607068Y-84021842D01*
X151550000Y-84308740D01*
X151550000Y-84601260D01*
X151607068Y-84888158D01*
X151719010Y-85158411D01*
X151881525Y-85401632D01*
X152088368Y-85608475D01*
X152262760Y-85725000D01*
X152088368Y-85841525D01*
X151881525Y-86048368D01*
X151719010Y-86291589D01*
X151607068Y-86561842D01*
X151550000Y-86848740D01*
X151550000Y-87141260D01*
X151607068Y-87428158D01*
X151719010Y-87698411D01*
X151881525Y-87941632D01*
X152088368Y-88148475D01*
X152262760Y-88265000D01*
X152088368Y-88381525D01*
X151881525Y-88588368D01*
X151719010Y-88831589D01*
X151607068Y-89101842D01*
X151550000Y-89388740D01*
X151550000Y-89681260D01*
X151607068Y-89968158D01*
X151719010Y-90238411D01*
X151881525Y-90481632D01*
X152088368Y-90688475D01*
X152262760Y-90805000D01*
X152088368Y-90921525D01*
X151881525Y-91128368D01*
X151719010Y-91371589D01*
X151607068Y-91641842D01*
X151550000Y-91928740D01*
X151550000Y-92221260D01*
X151607068Y-92508158D01*
X151719010Y-92778411D01*
X151881525Y-93021632D01*
X152013380Y-93153487D01*
X151940820Y-93175498D01*
X151830506Y-93234463D01*
X151733815Y-93313815D01*
X151654463Y-93410506D01*
X151595498Y-93520820D01*
X151559188Y-93640518D01*
X151546928Y-93765000D01*
X151546928Y-95465000D01*
X151559188Y-95589482D01*
X151595498Y-95709180D01*
X151622662Y-95760000D01*
X149928711Y-95760000D01*
X149884774Y-95716063D01*
X149715256Y-95602795D01*
X149526898Y-95524774D01*
X149326939Y-95485000D01*
X149123061Y-95485000D01*
X148923102Y-95524774D01*
X148734744Y-95602795D01*
X148565226Y-95716063D01*
X148421063Y-95860226D01*
X148307795Y-96029744D01*
X148229774Y-96218102D01*
X148190000Y-96418061D01*
X141639332Y-96418061D01*
X144561005Y-93496389D01*
X144590002Y-93472592D01*
X144684975Y-93356867D01*
X144755547Y-93224838D01*
X144799004Y-93081577D01*
X144810001Y-92969924D01*
X144810001Y-92969923D01*
X144813678Y-92932591D01*
X144810001Y-92895258D01*
X144810001Y-88483072D01*
X146265000Y-88483072D01*
X146389482Y-88470812D01*
X146509180Y-88434502D01*
X146619494Y-88375537D01*
X146716185Y-88296185D01*
X146795537Y-88199494D01*
X146854502Y-88089180D01*
X146890812Y-87969482D01*
X146903072Y-87845000D01*
X146903072Y-86145000D01*
X146890812Y-86020518D01*
X146854502Y-85900820D01*
X146795537Y-85790506D01*
X146716185Y-85693815D01*
X146619494Y-85614463D01*
X146509180Y-85555498D01*
X146436620Y-85533487D01*
X146568475Y-85401632D01*
X146730990Y-85158411D01*
X146842932Y-84888158D01*
X146900000Y-84601260D01*
X146900000Y-84308740D01*
X146842932Y-84021842D01*
X146730990Y-83751589D01*
X146568475Y-83508368D01*
X146361632Y-83301525D01*
X146118411Y-83139010D01*
X145848158Y-83027068D01*
X145561260Y-82970000D01*
X145268740Y-82970000D01*
X144981842Y-83027068D01*
X144711589Y-83139010D01*
X144468368Y-83301525D01*
X144336513Y-83433380D01*
X144314502Y-83360820D01*
X144255537Y-83250506D01*
X144176185Y-83153815D01*
X144079494Y-83074463D01*
X143969180Y-83015498D01*
X143849482Y-82979188D01*
X143725000Y-82966928D01*
X142025000Y-82966928D01*
X141900518Y-82979188D01*
X141780820Y-83015498D01*
X141670506Y-83074463D01*
X141573815Y-83153815D01*
X141494463Y-83250506D01*
X141435498Y-83360820D01*
X141399188Y-83480518D01*
X141386928Y-83605000D01*
X141386928Y-85305000D01*
X141399188Y-85429482D01*
X141435498Y-85549180D01*
X141494463Y-85659494D01*
X141573815Y-85756185D01*
X141670506Y-85835537D01*
X141780820Y-85894502D01*
X141853380Y-85916513D01*
X141721525Y-86048368D01*
X141559010Y-86291589D01*
X141447068Y-86561842D01*
X141390000Y-86848740D01*
X141390000Y-87141260D01*
X141447068Y-87428158D01*
X141559010Y-87698411D01*
X141721525Y-87941632D01*
X141928368Y-88148475D01*
X142171589Y-88310990D01*
X142441842Y-88422932D01*
X142728740Y-88480000D01*
X143021260Y-88480000D01*
X143290002Y-88426544D01*
X143290001Y-90059436D01*
X143016335Y-90005000D01*
X142733665Y-90005000D01*
X142456426Y-90060147D01*
X142195273Y-90168320D01*
X141960241Y-90325363D01*
X141760363Y-90525241D01*
X141603320Y-90760273D01*
X141495147Y-91021426D01*
X141440000Y-91298665D01*
X141440000Y-91581335D01*
X141476312Y-91763886D01*
X137283998Y-95956201D01*
X137255000Y-95979999D01*
X137231202Y-96008997D01*
X137231201Y-96008998D01*
X137187360Y-96062417D01*
X137155681Y-96072027D01*
X137065125Y-96109536D01*
X136954808Y-96168502D01*
X136873309Y-96222958D01*
X136776618Y-96302310D01*
X136707310Y-96371618D01*
X136627958Y-96468309D01*
X136573502Y-96549808D01*
X136514536Y-96660125D01*
X136477027Y-96750681D01*
X136440718Y-96870377D01*
X136421596Y-96966510D01*
X136409336Y-97090991D01*
X136409336Y-97115550D01*
X136406928Y-97140000D01*
X136406928Y-97640000D01*
X136419188Y-97764482D01*
X136426929Y-97790000D01*
X136419188Y-97815518D01*
X136406928Y-97940000D01*
X136406928Y-98440000D01*
X136409336Y-98464450D01*
X136409336Y-98489009D01*
X136421596Y-98613490D01*
X136439865Y-98705333D01*
X133477000Y-101668199D01*
X133477000Y-101462408D01*
X133423314Y-101192510D01*
X133318005Y-100938273D01*
X133165120Y-100709465D01*
X132970535Y-100514880D01*
X132741727Y-100361995D01*
X132664485Y-100330000D01*
X132741727Y-100298005D01*
X132970535Y-100145120D01*
X133165120Y-99950535D01*
X133318005Y-99721727D01*
X133423314Y-99467490D01*
X133477000Y-99197592D01*
X133477000Y-98922408D01*
X133423314Y-98652510D01*
X133318005Y-98398273D01*
X133165120Y-98169465D01*
X132970535Y-97974880D01*
X132741727Y-97821995D01*
X132670057Y-97792308D01*
X132683023Y-97787636D01*
X132798980Y-97725656D01*
X132865960Y-97485565D01*
X132080000Y-96699605D01*
X131294040Y-97485565D01*
X131361020Y-97725656D01*
X131496760Y-97789485D01*
X131418273Y-97821995D01*
X131189465Y-97974880D01*
X130994880Y-98169465D01*
X130841995Y-98398273D01*
X130736686Y-98652510D01*
X130683000Y-98922408D01*
X128212393Y-98922408D01*
X130684745Y-96450056D01*
X130678090Y-96592017D01*
X130719078Y-96864133D01*
X130812364Y-97123023D01*
X130874344Y-97238980D01*
X131114435Y-97305960D01*
X131900395Y-96520000D01*
X132259605Y-96520000D01*
X133045565Y-97305960D01*
X133285656Y-97238980D01*
X133402756Y-96989952D01*
X133469023Y-96722865D01*
X133481910Y-96447983D01*
X133440922Y-96175867D01*
X133347636Y-95916977D01*
X133285656Y-95801020D01*
X133045565Y-95734040D01*
X132259605Y-96520000D01*
X131900395Y-96520000D01*
X131886253Y-96505858D01*
X132065858Y-96326253D01*
X132080000Y-96340395D01*
X132865960Y-95554435D01*
X132798980Y-95314344D01*
X132663240Y-95250515D01*
X132741727Y-95218005D01*
X132970535Y-95065120D01*
X133165120Y-94870535D01*
X133318005Y-94641727D01*
X133423314Y-94387490D01*
X133477000Y-94117592D01*
X133477000Y-93842408D01*
X133423314Y-93572510D01*
X133318005Y-93318273D01*
X133165120Y-93089465D01*
X132970535Y-92894880D01*
X132741727Y-92741995D01*
X132664485Y-92710000D01*
X132741727Y-92678005D01*
X132970535Y-92525120D01*
X133165120Y-92330535D01*
X133318005Y-92101727D01*
X133423314Y-91847490D01*
X133477000Y-91577592D01*
X133477000Y-91302408D01*
X133423314Y-91032510D01*
X133318005Y-90778273D01*
X133192205Y-90590000D01*
X135036928Y-90590000D01*
X135036928Y-92290000D01*
X135049188Y-92414482D01*
X135085498Y-92534180D01*
X135144463Y-92644494D01*
X135223815Y-92741185D01*
X135320506Y-92820537D01*
X135430820Y-92879502D01*
X135550518Y-92915812D01*
X135675000Y-92928072D01*
X137375000Y-92928072D01*
X137499482Y-92915812D01*
X137619180Y-92879502D01*
X137729494Y-92820537D01*
X137826185Y-92741185D01*
X137905537Y-92644494D01*
X137964502Y-92534180D01*
X138000812Y-92414482D01*
X138013072Y-92290000D01*
X138013072Y-90590000D01*
X138000812Y-90465518D01*
X137964502Y-90345820D01*
X137905537Y-90235506D01*
X137826185Y-90138815D01*
X137729494Y-90059463D01*
X137619180Y-90000498D01*
X137499482Y-89964188D01*
X137375000Y-89951928D01*
X135675000Y-89951928D01*
X135550518Y-89964188D01*
X135430820Y-90000498D01*
X135320506Y-90059463D01*
X135223815Y-90138815D01*
X135144463Y-90235506D01*
X135085498Y-90345820D01*
X135049188Y-90465518D01*
X135036928Y-90590000D01*
X133192205Y-90590000D01*
X133165120Y-90549465D01*
X132970535Y-90354880D01*
X132741727Y-90201995D01*
X132664485Y-90170000D01*
X132741727Y-90138005D01*
X132970535Y-89985120D01*
X133165120Y-89790535D01*
X133318005Y-89561727D01*
X133423314Y-89307490D01*
X133477000Y-89037592D01*
X133477000Y-88762408D01*
X133423314Y-88492510D01*
X133318005Y-88238273D01*
X133165120Y-88009465D01*
X132970535Y-87814880D01*
X132741727Y-87661995D01*
X132664485Y-87630000D01*
X132741727Y-87598005D01*
X132970535Y-87445120D01*
X133165120Y-87250535D01*
X133318005Y-87021727D01*
X133423314Y-86767490D01*
X133477000Y-86497592D01*
X133477000Y-86222408D01*
X133423314Y-85952510D01*
X133318005Y-85698273D01*
X133165120Y-85469465D01*
X132970535Y-85274880D01*
X132741727Y-85121995D01*
X132664485Y-85090000D01*
X132741727Y-85058005D01*
X132970535Y-84905120D01*
X133165120Y-84710535D01*
X133318005Y-84481727D01*
X133423314Y-84227490D01*
X133477000Y-83957592D01*
X133477000Y-83682408D01*
X133423314Y-83412510D01*
X133318005Y-83158273D01*
X133165120Y-82929465D01*
X132970535Y-82734880D01*
X132741727Y-82581995D01*
X132664485Y-82550000D01*
X132741727Y-82518005D01*
X132970535Y-82365120D01*
X133165120Y-82170535D01*
X133318005Y-81941727D01*
X133423314Y-81687490D01*
X133477000Y-81417592D01*
X133477000Y-81142408D01*
X133423314Y-80872510D01*
X133318005Y-80618273D01*
X133165120Y-80389465D01*
X132970535Y-80194880D01*
X132741727Y-80041995D01*
X132487490Y-79936686D01*
X132217592Y-79883000D01*
X131942408Y-79883000D01*
X131672510Y-79936686D01*
X131418273Y-80041995D01*
X131189465Y-80194880D01*
X130994880Y-80389465D01*
X130841995Y-80618273D01*
X130736686Y-80872510D01*
X130683000Y-81142408D01*
X130683000Y-81417592D01*
X130736686Y-81687490D01*
X130841995Y-81941727D01*
X130994880Y-82170535D01*
X131189465Y-82365120D01*
X131418273Y-82518005D01*
X131495515Y-82550000D01*
X131418273Y-82581995D01*
X131189465Y-82734880D01*
X130994880Y-82929465D01*
X130841995Y-83158273D01*
X130736686Y-83412510D01*
X130683000Y-83682408D01*
X130683000Y-83957592D01*
X130736686Y-84227490D01*
X130841995Y-84481727D01*
X130994880Y-84710535D01*
X131189465Y-84905120D01*
X131418273Y-85058005D01*
X131495515Y-85090000D01*
X131418273Y-85121995D01*
X131189465Y-85274880D01*
X130994880Y-85469465D01*
X130841995Y-85698273D01*
X130736686Y-85952510D01*
X130683000Y-86222408D01*
X130683000Y-86497592D01*
X130736686Y-86767490D01*
X130841995Y-87021727D01*
X130994880Y-87250535D01*
X131189465Y-87445120D01*
X131418273Y-87598005D01*
X131495515Y-87630000D01*
X131418273Y-87661995D01*
X131189465Y-87814880D01*
X130994880Y-88009465D01*
X130841995Y-88238273D01*
X130736686Y-88492510D01*
X130683000Y-88762408D01*
X130683000Y-89037592D01*
X130736686Y-89307490D01*
X130841995Y-89561727D01*
X130994880Y-89790535D01*
X131189465Y-89985120D01*
X131418273Y-90138005D01*
X131495515Y-90170000D01*
X131418273Y-90201995D01*
X131189465Y-90354880D01*
X130994880Y-90549465D01*
X130841995Y-90778273D01*
X130736686Y-91032510D01*
X130683000Y-91302408D01*
X130683000Y-91577592D01*
X130736686Y-91847490D01*
X130841995Y-92101727D01*
X130994880Y-92330535D01*
X131189465Y-92525120D01*
X131418273Y-92678005D01*
X131495515Y-92710000D01*
X131418273Y-92741995D01*
X131189465Y-92894880D01*
X130994880Y-93089465D01*
X130841995Y-93318273D01*
X130736686Y-93572510D01*
X130683000Y-93842408D01*
X130683000Y-94117592D01*
X130713628Y-94271570D01*
X121408998Y-103576201D01*
X121380000Y-103599999D01*
X121356202Y-103628997D01*
X121356201Y-103628998D01*
X121285026Y-103715724D01*
X121214454Y-103847754D01*
X121188236Y-103934188D01*
X121170998Y-103991014D01*
X121169876Y-104002408D01*
X121156324Y-104140000D01*
X121160001Y-104177332D01*
X121160000Y-105920000D01*
X105312341Y-105920000D01*
X105225120Y-105789465D01*
X105030535Y-105594880D01*
X104801727Y-105441995D01*
X104730057Y-105412308D01*
X104743023Y-105407636D01*
X104858980Y-105345656D01*
X104925960Y-105105565D01*
X104140000Y-104319605D01*
X103354040Y-105105565D01*
X103421020Y-105345656D01*
X103556760Y-105409485D01*
X103478273Y-105441995D01*
X103249465Y-105594880D01*
X103054880Y-105789465D01*
X102901995Y-106018273D01*
X102796686Y-106272510D01*
X102743000Y-106542408D01*
X93598162Y-106542408D01*
X93624759Y-106524637D01*
X93824637Y-106324759D01*
X93981680Y-106089727D01*
X94089853Y-105828574D01*
X94145000Y-105551335D01*
X94145000Y-105268665D01*
X94089853Y-104991426D01*
X93981680Y-104730273D01*
X93824637Y-104495241D01*
X93624759Y-104295363D01*
X93500023Y-104212017D01*
X102738090Y-104212017D01*
X102779078Y-104484133D01*
X102872364Y-104743023D01*
X102934344Y-104858980D01*
X103174435Y-104925960D01*
X103960395Y-104140000D01*
X104319605Y-104140000D01*
X105105565Y-104925960D01*
X105345656Y-104858980D01*
X105462756Y-104609952D01*
X105529023Y-104342865D01*
X105541910Y-104067983D01*
X105500922Y-103795867D01*
X105407636Y-103536977D01*
X105345656Y-103421020D01*
X105105565Y-103354040D01*
X104319605Y-104140000D01*
X103960395Y-104140000D01*
X103174435Y-103354040D01*
X102934344Y-103421020D01*
X102817244Y-103670048D01*
X102750977Y-103937135D01*
X102738090Y-104212017D01*
X93500023Y-104212017D01*
X93389727Y-104138320D01*
X93128574Y-104030147D01*
X92851335Y-103975000D01*
X92568665Y-103975000D01*
X92291426Y-104030147D01*
X92030273Y-104138320D01*
X91795241Y-104295363D01*
X91595363Y-104495241D01*
X91438320Y-104730273D01*
X91330147Y-104991426D01*
X91275000Y-105268665D01*
X87795000Y-105268665D01*
X87739853Y-104991426D01*
X87631680Y-104730273D01*
X87474637Y-104495241D01*
X87274759Y-104295363D01*
X87039727Y-104138320D01*
X86778574Y-104030147D01*
X86501335Y-103975000D01*
X86218665Y-103975000D01*
X85941426Y-104030147D01*
X85680273Y-104138320D01*
X85445241Y-104295363D01*
X85245363Y-104495241D01*
X85088320Y-104730273D01*
X84980147Y-104991426D01*
X84925000Y-105268665D01*
X82768072Y-105268665D01*
X82768072Y-104560000D01*
X82755812Y-104435518D01*
X82719502Y-104315820D01*
X82660537Y-104205506D01*
X82581185Y-104108815D01*
X82484494Y-104029463D01*
X82374180Y-103970498D01*
X82293534Y-103946034D01*
X82377588Y-103870269D01*
X82551641Y-103636920D01*
X82676825Y-103374099D01*
X82721476Y-103226890D01*
X82600155Y-102997000D01*
X81407000Y-102997000D01*
X81407000Y-103017000D01*
X81153000Y-103017000D01*
X81153000Y-102997000D01*
X79959845Y-102997000D01*
X79838524Y-103226890D01*
X79883175Y-103374099D01*
X80008359Y-103636920D01*
X80182412Y-103870269D01*
X80266466Y-103946034D01*
X80185820Y-103970498D01*
X80075506Y-104029463D01*
X79978815Y-104108815D01*
X79899463Y-104205506D01*
X79840498Y-104315820D01*
X79804188Y-104435518D01*
X79791928Y-104560000D01*
X77597000Y-104560000D01*
X77597000Y-102513110D01*
X79838524Y-102513110D01*
X79959845Y-102743000D01*
X81153000Y-102743000D01*
X81153000Y-101549186D01*
X81407000Y-101549186D01*
X81407000Y-102743000D01*
X82600155Y-102743000D01*
X82721476Y-102513110D01*
X82676825Y-102365901D01*
X82551641Y-102103080D01*
X82377588Y-101869731D01*
X82161355Y-101674822D01*
X81911252Y-101525843D01*
X81636891Y-101428519D01*
X81407000Y-101549186D01*
X81153000Y-101549186D01*
X80923109Y-101428519D01*
X80648748Y-101525843D01*
X80398645Y-101674822D01*
X80182412Y-101869731D01*
X80008359Y-102103080D01*
X79883175Y-102365901D01*
X79838524Y-102513110D01*
X77597000Y-102513110D01*
X77597000Y-98702702D01*
X80466903Y-98702702D01*
X80538486Y-98946671D01*
X80793996Y-99067571D01*
X81068184Y-99136300D01*
X81350512Y-99150217D01*
X81630130Y-99108787D01*
X81896292Y-99013603D01*
X82021514Y-98946671D01*
X82093097Y-98702702D01*
X81280000Y-97889605D01*
X80466903Y-98702702D01*
X77597000Y-98702702D01*
X77597000Y-97780512D01*
X79839783Y-97780512D01*
X79881213Y-98060130D01*
X79976397Y-98326292D01*
X80043329Y-98451514D01*
X80287298Y-98523097D01*
X81100395Y-97710000D01*
X81459605Y-97710000D01*
X82272702Y-98523097D01*
X82516671Y-98451514D01*
X82637571Y-98196004D01*
X82706300Y-97921816D01*
X82719764Y-97648665D01*
X97625000Y-97648665D01*
X97625000Y-97931335D01*
X97680147Y-98208574D01*
X97788320Y-98469727D01*
X97945363Y-98704759D01*
X98145241Y-98904637D01*
X98380273Y-99061680D01*
X98641426Y-99169853D01*
X98918665Y-99225000D01*
X99201335Y-99225000D01*
X99478574Y-99169853D01*
X99739727Y-99061680D01*
X99974759Y-98904637D01*
X100174637Y-98704759D01*
X100331680Y-98469727D01*
X100439853Y-98208574D01*
X100495000Y-97931335D01*
X100495000Y-97648665D01*
X100439853Y-97371426D01*
X100331680Y-97110273D01*
X100174637Y-96875241D01*
X99974759Y-96675363D01*
X99739727Y-96518320D01*
X99478574Y-96410147D01*
X99201335Y-96355000D01*
X98918665Y-96355000D01*
X98641426Y-96410147D01*
X98380273Y-96518320D01*
X98145241Y-96675363D01*
X97945363Y-96875241D01*
X97788320Y-97110273D01*
X97680147Y-97371426D01*
X97625000Y-97648665D01*
X82719764Y-97648665D01*
X82720217Y-97639488D01*
X82678787Y-97359870D01*
X82583603Y-97093708D01*
X82516671Y-96968486D01*
X82272702Y-96896903D01*
X81459605Y-97710000D01*
X81100395Y-97710000D01*
X80287298Y-96896903D01*
X80043329Y-96968486D01*
X79922429Y-97223996D01*
X79853700Y-97498184D01*
X79839783Y-97780512D01*
X77597000Y-97780512D01*
X77597000Y-96717298D01*
X80466903Y-96717298D01*
X81280000Y-97530395D01*
X82093097Y-96717298D01*
X82021514Y-96473329D01*
X81766004Y-96352429D01*
X81491816Y-96283700D01*
X81209488Y-96269783D01*
X80929870Y-96311213D01*
X80663708Y-96406397D01*
X80538486Y-96473329D01*
X80466903Y-96717298D01*
X77597000Y-96717298D01*
X77597000Y-92568665D01*
X79845000Y-92568665D01*
X79845000Y-92851335D01*
X79900147Y-93128574D01*
X80008320Y-93389727D01*
X80165363Y-93624759D01*
X80365241Y-93824637D01*
X80600273Y-93981680D01*
X80861426Y-94089853D01*
X81138665Y-94145000D01*
X81421335Y-94145000D01*
X81698574Y-94089853D01*
X81959727Y-93981680D01*
X82194759Y-93824637D01*
X82394637Y-93624759D01*
X82551680Y-93389727D01*
X82659853Y-93128574D01*
X82715000Y-92851335D01*
X82715000Y-92568665D01*
X84925000Y-92568665D01*
X84925000Y-92851335D01*
X84980147Y-93128574D01*
X85088320Y-93389727D01*
X85245363Y-93624759D01*
X85445241Y-93824637D01*
X85680273Y-93981680D01*
X85941426Y-94089853D01*
X86218665Y-94145000D01*
X86501335Y-94145000D01*
X86778574Y-94089853D01*
X87039727Y-93981680D01*
X87274759Y-93824637D01*
X87474637Y-93624759D01*
X87631680Y-93389727D01*
X87739853Y-93128574D01*
X87795000Y-92851335D01*
X87795000Y-92568665D01*
X91275000Y-92568665D01*
X91275000Y-92851335D01*
X91330147Y-93128574D01*
X91438320Y-93389727D01*
X91595363Y-93624759D01*
X91795241Y-93824637D01*
X92030273Y-93981680D01*
X92291426Y-94089853D01*
X92568665Y-94145000D01*
X92851335Y-94145000D01*
X93128574Y-94089853D01*
X93389727Y-93981680D01*
X93624759Y-93824637D01*
X93824637Y-93624759D01*
X93981680Y-93389727D01*
X94089853Y-93128574D01*
X94145000Y-92851335D01*
X94145000Y-92568665D01*
X95085000Y-92568665D01*
X95085000Y-92851335D01*
X95140147Y-93128574D01*
X95248320Y-93389727D01*
X95405363Y-93624759D01*
X95605241Y-93824637D01*
X95840273Y-93981680D01*
X96101426Y-94089853D01*
X96378665Y-94145000D01*
X96661335Y-94145000D01*
X96938574Y-94089853D01*
X97199727Y-93981680D01*
X97434759Y-93824637D01*
X97556694Y-93702702D01*
X100706903Y-93702702D01*
X100778486Y-93946671D01*
X101033996Y-94067571D01*
X101308184Y-94136300D01*
X101590512Y-94150217D01*
X101870130Y-94108787D01*
X102136292Y-94013603D01*
X102261514Y-93946671D01*
X102333097Y-93702702D01*
X101520000Y-92889605D01*
X100706903Y-93702702D01*
X97556694Y-93702702D01*
X97634637Y-93624759D01*
X97791680Y-93389727D01*
X97899853Y-93128574D01*
X97955000Y-92851335D01*
X97955000Y-92780512D01*
X100079783Y-92780512D01*
X100121213Y-93060130D01*
X100216397Y-93326292D01*
X100283329Y-93451514D01*
X100527298Y-93523097D01*
X101340395Y-92710000D01*
X101699605Y-92710000D01*
X102512702Y-93523097D01*
X102756671Y-93451514D01*
X102877571Y-93196004D01*
X102946300Y-92921816D01*
X102960217Y-92639488D01*
X102918787Y-92359870D01*
X102823603Y-92093708D01*
X102756671Y-91968486D01*
X102512702Y-91896903D01*
X101699605Y-92710000D01*
X101340395Y-92710000D01*
X100527298Y-91896903D01*
X100283329Y-91968486D01*
X100162429Y-92223996D01*
X100093700Y-92498184D01*
X100079783Y-92780512D01*
X97955000Y-92780512D01*
X97955000Y-92568665D01*
X97899853Y-92291426D01*
X97791680Y-92030273D01*
X97634637Y-91795241D01*
X97556694Y-91717298D01*
X100706903Y-91717298D01*
X101520000Y-92530395D01*
X102333097Y-91717298D01*
X102261514Y-91473329D01*
X102006004Y-91352429D01*
X101731816Y-91283700D01*
X101449488Y-91269783D01*
X101169870Y-91311213D01*
X100903708Y-91406397D01*
X100778486Y-91473329D01*
X100706903Y-91717298D01*
X97556694Y-91717298D01*
X97434759Y-91595363D01*
X97199727Y-91438320D01*
X96938574Y-91330147D01*
X96661335Y-91275000D01*
X96378665Y-91275000D01*
X96101426Y-91330147D01*
X95840273Y-91438320D01*
X95605241Y-91595363D01*
X95405363Y-91795241D01*
X95248320Y-92030273D01*
X95140147Y-92291426D01*
X95085000Y-92568665D01*
X94145000Y-92568665D01*
X94089853Y-92291426D01*
X93981680Y-92030273D01*
X93824637Y-91795241D01*
X93624759Y-91595363D01*
X93389727Y-91438320D01*
X93128574Y-91330147D01*
X92851335Y-91275000D01*
X92568665Y-91275000D01*
X92291426Y-91330147D01*
X92030273Y-91438320D01*
X91795241Y-91595363D01*
X91595363Y-91795241D01*
X91438320Y-92030273D01*
X91330147Y-92291426D01*
X91275000Y-92568665D01*
X87795000Y-92568665D01*
X87739853Y-92291426D01*
X87631680Y-92030273D01*
X87474637Y-91795241D01*
X87274759Y-91595363D01*
X87039727Y-91438320D01*
X86778574Y-91330147D01*
X86501335Y-91275000D01*
X86218665Y-91275000D01*
X85941426Y-91330147D01*
X85680273Y-91438320D01*
X85445241Y-91595363D01*
X85245363Y-91795241D01*
X85088320Y-92030273D01*
X84980147Y-92291426D01*
X84925000Y-92568665D01*
X82715000Y-92568665D01*
X82659853Y-92291426D01*
X82551680Y-92030273D01*
X82394637Y-91795241D01*
X82194759Y-91595363D01*
X81959727Y-91438320D01*
X81698574Y-91330147D01*
X81421335Y-91275000D01*
X81138665Y-91275000D01*
X80861426Y-91330147D01*
X80600273Y-91438320D01*
X80365241Y-91595363D01*
X80165363Y-91795241D01*
X80008320Y-92030273D01*
X79900147Y-92291426D01*
X79845000Y-92568665D01*
X77597000Y-92568665D01*
X77597000Y-90028665D01*
X82385000Y-90028665D01*
X82385000Y-90311335D01*
X82440147Y-90588574D01*
X82548320Y-90849727D01*
X82705363Y-91084759D01*
X82905241Y-91284637D01*
X83140273Y-91441680D01*
X83401426Y-91549853D01*
X83678665Y-91605000D01*
X83961335Y-91605000D01*
X84238574Y-91549853D01*
X84499727Y-91441680D01*
X84734759Y-91284637D01*
X84934637Y-91084759D01*
X85091680Y-90849727D01*
X85199853Y-90588574D01*
X85255000Y-90311335D01*
X85255000Y-90028665D01*
X85199853Y-89751426D01*
X85091680Y-89490273D01*
X84934637Y-89255241D01*
X84734759Y-89055363D01*
X84499727Y-88898320D01*
X84238574Y-88790147D01*
X83961335Y-88735000D01*
X83678665Y-88735000D01*
X83401426Y-88790147D01*
X83140273Y-88898320D01*
X82905241Y-89055363D01*
X82705363Y-89255241D01*
X82548320Y-89490273D01*
X82440147Y-89751426D01*
X82385000Y-90028665D01*
X77597000Y-90028665D01*
X77597000Y-88530000D01*
X87361928Y-88530000D01*
X87374188Y-88654482D01*
X87410498Y-88774180D01*
X87469463Y-88884494D01*
X87548815Y-88981185D01*
X87645506Y-89060537D01*
X87755820Y-89119502D01*
X87875518Y-89155812D01*
X88000000Y-89168072D01*
X88614250Y-89165000D01*
X88773000Y-89006250D01*
X88773000Y-87757000D01*
X87523750Y-87757000D01*
X87365000Y-87915750D01*
X87361928Y-88530000D01*
X77597000Y-88530000D01*
X77597000Y-86730000D01*
X87361928Y-86730000D01*
X87365000Y-87344250D01*
X87523750Y-87503000D01*
X88773000Y-87503000D01*
X88773000Y-86253750D01*
X89027000Y-86253750D01*
X89027000Y-87503000D01*
X89047000Y-87503000D01*
X89047000Y-87757000D01*
X89027000Y-87757000D01*
X89027000Y-89006250D01*
X89185750Y-89165000D01*
X89800000Y-89168072D01*
X89924482Y-89155812D01*
X90044180Y-89119502D01*
X90154494Y-89060537D01*
X90251185Y-88981185D01*
X90330537Y-88884494D01*
X90389502Y-88774180D01*
X90395056Y-88755873D01*
X90461495Y-88822312D01*
X90712905Y-88990299D01*
X90992257Y-89106011D01*
X91288816Y-89165000D01*
X91591184Y-89165000D01*
X91887743Y-89106011D01*
X92167095Y-88990299D01*
X92418505Y-88822312D01*
X92632312Y-88608505D01*
X92800299Y-88357095D01*
X92916011Y-88077743D01*
X92975000Y-87781184D01*
X92975000Y-87478816D01*
X92916011Y-87182257D01*
X92800299Y-86902905D01*
X92632312Y-86651495D01*
X92418505Y-86437688D01*
X92167095Y-86269701D01*
X91887743Y-86153989D01*
X91591184Y-86095000D01*
X91288816Y-86095000D01*
X90992257Y-86153989D01*
X90712905Y-86269701D01*
X90461495Y-86437688D01*
X90395056Y-86504127D01*
X90389502Y-86485820D01*
X90330537Y-86375506D01*
X90251185Y-86278815D01*
X90154494Y-86199463D01*
X90044180Y-86140498D01*
X89924482Y-86104188D01*
X89800000Y-86091928D01*
X89185750Y-86095000D01*
X89027000Y-86253750D01*
X88773000Y-86253750D01*
X88614250Y-86095000D01*
X88000000Y-86091928D01*
X87875518Y-86104188D01*
X87755820Y-86140498D01*
X87645506Y-86199463D01*
X87548815Y-86278815D01*
X87469463Y-86375506D01*
X87410498Y-86485820D01*
X87374188Y-86605518D01*
X87361928Y-86730000D01*
X77597000Y-86730000D01*
X77597000Y-85510000D01*
X98841928Y-85510000D01*
X98841928Y-87210000D01*
X98854188Y-87334482D01*
X98890498Y-87454180D01*
X98949463Y-87564494D01*
X99028815Y-87661185D01*
X99125506Y-87740537D01*
X99235820Y-87799502D01*
X99355518Y-87835812D01*
X99480000Y-87848072D01*
X101180000Y-87848072D01*
X101304482Y-87835812D01*
X101424180Y-87799502D01*
X101534494Y-87740537D01*
X101631185Y-87661185D01*
X101710537Y-87564494D01*
X101769502Y-87454180D01*
X101805812Y-87334482D01*
X101818072Y-87210000D01*
X101818072Y-85510000D01*
X101805812Y-85385518D01*
X101769502Y-85265820D01*
X101710537Y-85155506D01*
X101631185Y-85058815D01*
X101534494Y-84979463D01*
X101424180Y-84920498D01*
X101304482Y-84884188D01*
X101180000Y-84871928D01*
X99480000Y-84871928D01*
X99355518Y-84884188D01*
X99235820Y-84920498D01*
X99125506Y-84979463D01*
X99028815Y-85058815D01*
X98949463Y-85155506D01*
X98890498Y-85265820D01*
X98854188Y-85385518D01*
X98841928Y-85510000D01*
X77597000Y-85510000D01*
X77597000Y-81138665D01*
X90005000Y-81138665D01*
X90005000Y-81421335D01*
X90060147Y-81698574D01*
X90168320Y-81959727D01*
X90325363Y-82194759D01*
X90525241Y-82394637D01*
X90760273Y-82551680D01*
X91021426Y-82659853D01*
X91298665Y-82715000D01*
X91581335Y-82715000D01*
X91858574Y-82659853D01*
X92119727Y-82551680D01*
X92354759Y-82394637D01*
X92554637Y-82194759D01*
X92711680Y-81959727D01*
X92819853Y-81698574D01*
X92875000Y-81421335D01*
X92875000Y-81138665D01*
X92819853Y-80861426D01*
X92711680Y-80600273D01*
X92554637Y-80365241D01*
X92354759Y-80165363D01*
X92119727Y-80008320D01*
X91858574Y-79900147D01*
X91581335Y-79845000D01*
X91298665Y-79845000D01*
X91021426Y-79900147D01*
X90760273Y-80008320D01*
X90525241Y-80165363D01*
X90325363Y-80365241D01*
X90168320Y-80600273D01*
X90060147Y-80861426D01*
X90005000Y-81138665D01*
X77597000Y-81138665D01*
X77597000Y-77328665D01*
X82385000Y-77328665D01*
X82385000Y-77611335D01*
X82440147Y-77888574D01*
X82548320Y-78149727D01*
X82705363Y-78384759D01*
X82905241Y-78584637D01*
X83140273Y-78741680D01*
X83401426Y-78849853D01*
X83678665Y-78905000D01*
X83961335Y-78905000D01*
X84238574Y-78849853D01*
X84499727Y-78741680D01*
X84734759Y-78584637D01*
X84934637Y-78384759D01*
X85091680Y-78149727D01*
X85199853Y-77888574D01*
X85255000Y-77611335D01*
X85255000Y-77328665D01*
X85199853Y-77051426D01*
X85091680Y-76790273D01*
X84934637Y-76555241D01*
X84734759Y-76355363D01*
X84499727Y-76198320D01*
X84238574Y-76090147D01*
X83961335Y-76035000D01*
X83678665Y-76035000D01*
X83401426Y-76090147D01*
X83140273Y-76198320D01*
X82905241Y-76355363D01*
X82705363Y-76555241D01*
X82548320Y-76790273D01*
X82440147Y-77051426D01*
X82385000Y-77328665D01*
X77597000Y-77328665D01*
X77597000Y-75463061D01*
X94850000Y-75463061D01*
X94850000Y-75666939D01*
X94889774Y-75866898D01*
X94967795Y-76055256D01*
X95081063Y-76224774D01*
X95125000Y-76268711D01*
X95125001Y-79941288D01*
X95081063Y-79985226D01*
X94967795Y-80154744D01*
X94889774Y-80343102D01*
X94850000Y-80543061D01*
X94850000Y-80746939D01*
X94889774Y-80946898D01*
X94967795Y-81135256D01*
X95081063Y-81304774D01*
X95225226Y-81448937D01*
X95394744Y-81562205D01*
X95583102Y-81640226D01*
X95783061Y-81680000D01*
X95986939Y-81680000D01*
X96186898Y-81640226D01*
X96375256Y-81562205D01*
X96544774Y-81448937D01*
X96688937Y-81304774D01*
X96802205Y-81135256D01*
X96880226Y-80946898D01*
X96920000Y-80746939D01*
X96920000Y-80543061D01*
X96897511Y-80430000D01*
X98841928Y-80430000D01*
X98841928Y-82130000D01*
X98854188Y-82254482D01*
X98890498Y-82374180D01*
X98949463Y-82484494D01*
X99028815Y-82581185D01*
X99125506Y-82660537D01*
X99235820Y-82719502D01*
X99355518Y-82755812D01*
X99480000Y-82768072D01*
X101180000Y-82768072D01*
X101304482Y-82755812D01*
X101424180Y-82719502D01*
X101534494Y-82660537D01*
X101631185Y-82581185D01*
X101710537Y-82484494D01*
X101769502Y-82374180D01*
X101805812Y-82254482D01*
X101818072Y-82130000D01*
X101818072Y-81142408D01*
X102743000Y-81142408D01*
X102743000Y-81417592D01*
X102796686Y-81687490D01*
X102901995Y-81941727D01*
X103054880Y-82170535D01*
X103249465Y-82365120D01*
X103478273Y-82518005D01*
X103555515Y-82550000D01*
X103478273Y-82581995D01*
X103249465Y-82734880D01*
X103054880Y-82929465D01*
X102901995Y-83158273D01*
X102796686Y-83412510D01*
X102743000Y-83682408D01*
X102743000Y-83957592D01*
X102796686Y-84227490D01*
X102901995Y-84481727D01*
X103054880Y-84710535D01*
X103249465Y-84905120D01*
X103478273Y-85058005D01*
X103555515Y-85090000D01*
X103478273Y-85121995D01*
X103249465Y-85274880D01*
X103054880Y-85469465D01*
X102901995Y-85698273D01*
X102796686Y-85952510D01*
X102743000Y-86222408D01*
X102743000Y-86497592D01*
X102796686Y-86767490D01*
X102901995Y-87021727D01*
X103054880Y-87250535D01*
X103249465Y-87445120D01*
X103478273Y-87598005D01*
X103555515Y-87630000D01*
X103478273Y-87661995D01*
X103249465Y-87814880D01*
X103054880Y-88009465D01*
X102901995Y-88238273D01*
X102796686Y-88492510D01*
X102743000Y-88762408D01*
X102743000Y-89037592D01*
X102796686Y-89307490D01*
X102901995Y-89561727D01*
X103054880Y-89790535D01*
X103249465Y-89985120D01*
X103478273Y-90138005D01*
X103555515Y-90170000D01*
X103478273Y-90201995D01*
X103249465Y-90354880D01*
X103054880Y-90549465D01*
X102901995Y-90778273D01*
X102796686Y-91032510D01*
X102743000Y-91302408D01*
X102743000Y-91577592D01*
X102796686Y-91847490D01*
X102901995Y-92101727D01*
X103054880Y-92330535D01*
X103249465Y-92525120D01*
X103478273Y-92678005D01*
X103555515Y-92710000D01*
X103478273Y-92741995D01*
X103249465Y-92894880D01*
X103054880Y-93089465D01*
X102901995Y-93318273D01*
X102796686Y-93572510D01*
X102743000Y-93842408D01*
X102743000Y-94117592D01*
X102796686Y-94387490D01*
X102901995Y-94641727D01*
X103054880Y-94870535D01*
X103249465Y-95065120D01*
X103478273Y-95218005D01*
X103555515Y-95250000D01*
X103478273Y-95281995D01*
X103249465Y-95434880D01*
X103054880Y-95629465D01*
X102901995Y-95858273D01*
X102796686Y-96112510D01*
X102743000Y-96382408D01*
X102743000Y-96657592D01*
X102796686Y-96927490D01*
X102901995Y-97181727D01*
X103054880Y-97410535D01*
X103249465Y-97605120D01*
X103478273Y-97758005D01*
X103555515Y-97790000D01*
X103478273Y-97821995D01*
X103249465Y-97974880D01*
X103054880Y-98169465D01*
X102901995Y-98398273D01*
X102796686Y-98652510D01*
X102743000Y-98922408D01*
X102743000Y-99197592D01*
X102796686Y-99467490D01*
X102901995Y-99721727D01*
X103054880Y-99950535D01*
X103249465Y-100145120D01*
X103478273Y-100298005D01*
X103555515Y-100330000D01*
X103478273Y-100361995D01*
X103249465Y-100514880D01*
X103054880Y-100709465D01*
X102901995Y-100938273D01*
X102796686Y-101192510D01*
X102743000Y-101462408D01*
X102743000Y-101737592D01*
X102796686Y-102007490D01*
X102901995Y-102261727D01*
X103054880Y-102490535D01*
X103249465Y-102685120D01*
X103478273Y-102838005D01*
X103549943Y-102867692D01*
X103536977Y-102872364D01*
X103421020Y-102934344D01*
X103354040Y-103174435D01*
X104140000Y-103960395D01*
X104925960Y-103174435D01*
X104858980Y-102934344D01*
X104723240Y-102870515D01*
X104801727Y-102838005D01*
X105030535Y-102685120D01*
X105225120Y-102490535D01*
X105378005Y-102261727D01*
X105483314Y-102007490D01*
X105537000Y-101737592D01*
X105537000Y-101462408D01*
X105483314Y-101192510D01*
X105378005Y-100938273D01*
X105225120Y-100709465D01*
X105030535Y-100514880D01*
X104801727Y-100361995D01*
X104724485Y-100330000D01*
X104801727Y-100298005D01*
X105030535Y-100145120D01*
X105225120Y-99950535D01*
X105378005Y-99721727D01*
X105483314Y-99467490D01*
X105537000Y-99197592D01*
X105537000Y-98922408D01*
X105483314Y-98652510D01*
X105378005Y-98398273D01*
X105225120Y-98169465D01*
X105030535Y-97974880D01*
X104801727Y-97821995D01*
X104724485Y-97790000D01*
X104801727Y-97758005D01*
X105030535Y-97605120D01*
X105225120Y-97410535D01*
X105378005Y-97181727D01*
X105483314Y-96927490D01*
X105537000Y-96657592D01*
X105537000Y-96382408D01*
X105483314Y-96112510D01*
X105378005Y-95858273D01*
X105225120Y-95629465D01*
X105030535Y-95434880D01*
X104801727Y-95281995D01*
X104724485Y-95250000D01*
X104801727Y-95218005D01*
X105030535Y-95065120D01*
X105225120Y-94870535D01*
X105378005Y-94641727D01*
X105483314Y-94387490D01*
X105537000Y-94117592D01*
X105537000Y-93842408D01*
X105483314Y-93572510D01*
X105378005Y-93318273D01*
X105225120Y-93089465D01*
X105030535Y-92894880D01*
X104801727Y-92741995D01*
X104724485Y-92710000D01*
X104801727Y-92678005D01*
X105030535Y-92525120D01*
X105225120Y-92330535D01*
X105378005Y-92101727D01*
X105483314Y-91847490D01*
X105537000Y-91577592D01*
X105537000Y-91302408D01*
X105483314Y-91032510D01*
X105378005Y-90778273D01*
X105225120Y-90549465D01*
X105030535Y-90354880D01*
X104801727Y-90201995D01*
X104724485Y-90170000D01*
X104801727Y-90138005D01*
X105030535Y-89985120D01*
X105225120Y-89790535D01*
X105378005Y-89561727D01*
X105483314Y-89307490D01*
X105537000Y-89037592D01*
X105537000Y-88762408D01*
X105483314Y-88492510D01*
X105378005Y-88238273D01*
X105225120Y-88009465D01*
X105030535Y-87814880D01*
X104801727Y-87661995D01*
X104724485Y-87630000D01*
X104801727Y-87598005D01*
X105030535Y-87445120D01*
X105225120Y-87250535D01*
X105378005Y-87021727D01*
X105483314Y-86767490D01*
X105537000Y-86497592D01*
X105537000Y-86222408D01*
X105483314Y-85952510D01*
X105378005Y-85698273D01*
X105225120Y-85469465D01*
X105030535Y-85274880D01*
X104801727Y-85121995D01*
X104724485Y-85090000D01*
X104801727Y-85058005D01*
X105030535Y-84905120D01*
X105225120Y-84710535D01*
X105378005Y-84481727D01*
X105483314Y-84227490D01*
X105537000Y-83957592D01*
X105537000Y-83682408D01*
X105483314Y-83412510D01*
X105378005Y-83158273D01*
X105225120Y-82929465D01*
X105030535Y-82734880D01*
X104801727Y-82581995D01*
X104724485Y-82550000D01*
X104801727Y-82518005D01*
X105030535Y-82365120D01*
X105225120Y-82170535D01*
X105378005Y-81941727D01*
X105483314Y-81687490D01*
X105537000Y-81417592D01*
X105537000Y-81142408D01*
X105483314Y-80872510D01*
X105378005Y-80618273D01*
X105225120Y-80389465D01*
X105030535Y-80194880D01*
X104801727Y-80041995D01*
X104547490Y-79936686D01*
X104277592Y-79883000D01*
X104002408Y-79883000D01*
X103732510Y-79936686D01*
X103478273Y-80041995D01*
X103249465Y-80194880D01*
X103054880Y-80389465D01*
X102901995Y-80618273D01*
X102796686Y-80872510D01*
X102743000Y-81142408D01*
X101818072Y-81142408D01*
X101818072Y-80430000D01*
X101805812Y-80305518D01*
X101769502Y-80185820D01*
X101710537Y-80075506D01*
X101631185Y-79978815D01*
X101534494Y-79899463D01*
X101424180Y-79840498D01*
X101304482Y-79804188D01*
X101180000Y-79791928D01*
X99480000Y-79791928D01*
X99355518Y-79804188D01*
X99235820Y-79840498D01*
X99125506Y-79899463D01*
X99028815Y-79978815D01*
X98949463Y-80075506D01*
X98890498Y-80185820D01*
X98854188Y-80305518D01*
X98841928Y-80430000D01*
X96897511Y-80430000D01*
X96880226Y-80343102D01*
X96802205Y-80154744D01*
X96688937Y-79985226D01*
X96645000Y-79941289D01*
X96645000Y-76268711D01*
X96688937Y-76224774D01*
X96802205Y-76055256D01*
X96880226Y-75866898D01*
X96920000Y-75666939D01*
X96920000Y-75463061D01*
X96880226Y-75263102D01*
X96802205Y-75074744D01*
X96688937Y-74905226D01*
X96544774Y-74761063D01*
X96375256Y-74647795D01*
X96186898Y-74569774D01*
X95986939Y-74530000D01*
X95783061Y-74530000D01*
X95583102Y-74569774D01*
X95394744Y-74647795D01*
X95225226Y-74761063D01*
X95081063Y-74905226D01*
X94967795Y-75074744D01*
X94889774Y-75263102D01*
X94850000Y-75463061D01*
X77597000Y-75463061D01*
X77597000Y-70960792D01*
X77873948Y-71375274D01*
X78484726Y-71986052D01*
X79202924Y-72465936D01*
X80000943Y-72796487D01*
X80848115Y-72965000D01*
X81711885Y-72965000D01*
X82559057Y-72796487D01*
X83357076Y-72465936D01*
X84075274Y-71986052D01*
X84686052Y-71375274D01*
X85165936Y-70657076D01*
X85496487Y-69859057D01*
X85665000Y-69011885D01*
X85665000Y-68438665D01*
X90005000Y-68438665D01*
X90005000Y-68721335D01*
X90060147Y-68998574D01*
X90168320Y-69259727D01*
X90325363Y-69494759D01*
X90525241Y-69694637D01*
X90760273Y-69851680D01*
X91021426Y-69959853D01*
X91298665Y-70015000D01*
X91581335Y-70015000D01*
X91858574Y-69959853D01*
X92119727Y-69851680D01*
X92354759Y-69694637D01*
X92554637Y-69494759D01*
X92711680Y-69259727D01*
X92819853Y-68998574D01*
X92875000Y-68721335D01*
X92875000Y-68438665D01*
X92819853Y-68161426D01*
X92711680Y-67900273D01*
X92554637Y-67665241D01*
X92354759Y-67465363D01*
X92119727Y-67308320D01*
X91858574Y-67200147D01*
X91581335Y-67145000D01*
X91298665Y-67145000D01*
X91021426Y-67200147D01*
X90760273Y-67308320D01*
X90525241Y-67465363D01*
X90325363Y-67665241D01*
X90168320Y-67900273D01*
X90060147Y-68161426D01*
X90005000Y-68438665D01*
X85665000Y-68438665D01*
X85665000Y-68148115D01*
X85496487Y-67300943D01*
X85165936Y-66502924D01*
X84686052Y-65784726D01*
X84075274Y-65173948D01*
X83357076Y-64694064D01*
X82559057Y-64363513D01*
X81711885Y-64195000D01*
X80848115Y-64195000D01*
X80000943Y-64363513D01*
X79202924Y-64694064D01*
X78484726Y-65173948D01*
X77873948Y-65784726D01*
X77597000Y-66199208D01*
X77597000Y-64160000D01*
X175133000Y-64160000D01*
X175133000Y-66199208D01*
G37*
G04 #@! TD.AperFunction*
M02*
